<?xml version="1.0" encoding="UTF-8" standalone="no"?><!-- Generator: Gravit.io --><svg xmlns="http://www.w3.org/2000/svg" xmlns:xlink="http://www.w3.org/1999/xlink" style="isolation:isolate" viewBox="-0.005 0 1103.974 240.15" width="1103.974pt" height="240.15pt"><g><path d=" M 161.096 0.001 L 130.872 52.352 L 100.647 0.001 L -0.005 0.001 L 130.872 226.689 L 261.749 0.001 L 161.096 0.001 Z " fill="rgb(65,184,131)"/><path d=" M 730.548 118.314 L 730.548 118.314 L 730.548 63.726 L 730.548 9.138 L 730.548 9.138 Q 730.548 7.214 731.991 6.172 L 731.991 6.172 L 731.991 6.172 Q 733.434 5.13 735.358 5.13 L 735.358 5.13 L 761.649 5.13 L 761.649 5.13 Q 769.024 5.13 774.475 6.253 L 774.475 6.253 L 774.475 6.253 Q 779.925 7.375 784.655 10.26 L 784.655 10.26 L 784.655 10.26 Q 789.384 13.146 791.869 18.677 L 791.869 18.677 L 791.869 18.677 Q 794.354 24.208 794.354 32.384 L 794.354 32.384 L 794.354 32.384 Q 794.354 42.324 790.667 49.217 L 790.667 49.217 L 790.667 49.217 Q 786.979 56.111 780.727 58.836 L 780.727 58.836 L 780.727 58.836 Q 788.743 62.043 792.991 68.455 L 792.991 68.455 L 792.991 68.455 Q 797.24 74.868 797.24 86.411 L 797.24 86.411 L 797.24 89.296 L 797.24 89.296 Q 797.24 106.61 788.583 114.466 L 788.583 114.466 L 788.583 114.466 Q 779.925 122.321 765.497 122.321 L 765.497 122.321 L 735.358 122.321 L 735.358 122.321 Q 733.113 122.321 731.831 121.119 L 731.831 121.119 L 731.831 121.119 Q 730.548 119.917 730.548 118.314 Z  M 740.969 63.325 L 740.969 112.542 L 764.214 112.542 L 764.214 112.542 Q 786.659 112.542 786.659 88.815 L 786.659 88.815 L 786.659 86.09 L 786.659 86.09 Q 786.659 63.325 764.214 63.325 L 764.214 63.325 L 740.969 63.325 Z  M 740.969 14.91 L 740.969 54.187 L 761.97 54.187 L 761.97 54.187 Q 773.352 54.187 778.563 49.458 L 778.563 49.458 L 778.563 49.458 Q 783.773 44.728 783.773 33.506 L 783.773 33.506 L 783.773 33.506 Q 783.773 23.086 778.002 18.998 L 778.002 18.998 L 778.002 18.998 Q 772.23 14.91 761.329 14.91 L 761.329 14.91 L 740.969 14.91 Z  M 811.668 92.984 L 811.668 92.984 L 811.668 75.509 L 811.668 75.509 Q 811.668 63.325 820.646 54.428 L 820.646 54.428 L 820.646 54.428 Q 829.623 45.53 841.968 45.53 L 841.968 45.53 L 841.968 45.53 Q 854.312 45.53 863.45 54.347 L 863.45 54.347 L 863.45 54.347 Q 872.588 63.165 872.588 75.509 L 872.588 75.509 L 872.588 92.984 L 872.588 92.984 Q 872.588 105.007 863.37 114.225 L 863.37 114.225 L 863.37 114.225 Q 854.152 123.444 841.968 123.444 L 841.968 123.444 L 841.968 123.444 Q 829.944 123.444 820.806 114.225 L 820.806 114.225 L 820.806 114.225 Q 811.668 105.007 811.668 92.984 Z  M 822.089 75.509 L 822.089 92.984 L 822.089 92.984 Q 822.089 101.16 827.94 107.492 L 827.94 107.492 L 827.94 107.492 Q 833.792 113.825 841.968 113.825 L 841.968 113.825 L 841.968 113.825 Q 850.304 113.825 856.236 107.492 L 856.236 107.492 L 856.236 107.492 Q 862.168 101.16 862.168 92.984 L 862.168 92.984 L 862.168 75.509 L 862.168 75.509 Q 862.168 67.654 856.156 61.401 L 856.156 61.401 L 856.156 61.401 Q 850.144 55.149 841.968 55.149 L 841.968 55.149 L 841.968 55.149 Q 833.792 55.149 827.94 61.401 L 827.94 61.401 L 827.94 61.401 Q 822.089 67.654 822.089 75.509 L 822.089 75.509 Z  M 891.024 118.153 L 891.024 118.153 L 891.024 3.848 L 891.024 3.848 Q 891.024 2.245 892.467 1.122 L 892.467 1.122 L 892.467 1.122 Q 893.91 0 896.155 0 L 896.155 0 L 896.155 0 Q 898.399 0 899.922 1.122 L 899.922 1.122 L 899.922 1.122 Q 901.445 2.245 901.445 3.848 L 901.445 3.848 L 901.445 118.153 L 901.445 118.153 Q 901.445 119.756 899.922 121.039 L 899.922 121.039 L 899.922 121.039 Q 898.399 122.321 896.155 122.321 L 896.155 122.321 L 896.155 122.321 Q 894.071 122.321 892.548 121.039 L 892.548 121.039 L 892.548 121.039 Q 891.024 119.756 891.024 118.153 Z  M 922.927 22.044 L 922.927 22.044 L 922.927 22.044 Q 920.843 20.04 920.843 17.314 L 920.843 17.314 L 920.843 17.314 Q 920.843 14.589 922.927 12.665 L 922.927 12.665 L 922.927 12.665 Q 925.012 10.741 928.057 10.741 L 928.057 10.741 L 928.057 10.741 Q 930.943 10.741 932.947 12.665 L 932.947 12.665 L 932.947 12.665 Q 934.951 14.589 934.951 17.314 L 934.951 17.314 L 934.951 17.314 Q 934.951 20.04 932.947 22.044 L 932.947 22.044 L 932.947 22.044 Q 930.943 24.048 928.057 24.048 L 928.057 24.048 L 928.057 24.048 Q 925.012 24.048 922.927 22.044 Z  M 922.927 118.153 L 922.927 118.153 L 922.927 50.339 L 922.927 50.339 Q 922.927 48.736 924.37 47.614 L 924.37 47.614 L 924.37 47.614 Q 925.813 46.492 928.057 46.492 L 928.057 46.492 L 928.057 46.492 Q 930.302 46.492 931.825 47.614 L 931.825 47.614 L 931.825 47.614 Q 933.348 48.736 933.348 50.339 L 933.348 50.339 L 933.348 118.153 L 933.348 118.153 Q 933.348 119.756 931.745 121.039 L 931.745 121.039 L 931.745 121.039 Q 930.142 122.321 928.057 122.321 L 928.057 122.321 L 928.057 122.321 Q 925.973 122.321 924.45 121.039 L 924.45 121.039 L 924.45 121.039 Q 922.927 119.756 922.927 118.153 Z  M 945.853 50.981 L 945.853 50.981 L 945.853 50.981 Q 945.853 49.057 947.857 47.614 L 947.857 47.614 L 947.857 47.614 Q 949.861 46.171 952.105 46.171 L 952.105 46.171 L 952.105 46.171 Q 954.991 46.171 955.953 48.576 L 955.953 48.576 L 977.114 106.29 L 998.276 49.217 L 998.276 49.217 Q 999.558 46.171 1001.963 46.171 L 1001.963 46.171 L 1001.963 46.171 Q 1003.887 46.171 1006.131 47.614 L 1006.131 47.614 L 1006.131 47.614 Q 1008.376 49.057 1008.376 50.82 L 1008.376 50.82 L 1008.376 50.82 Q 1008.376 52.103 1007.735 53.385 L 1007.735 53.385 L 981.924 121.039 L 981.924 121.039 Q 980.962 123.604 977.114 123.604 L 977.114 123.604 L 977.114 123.604 Q 973.267 123.604 972.305 121.039 L 972.305 121.039 L 946.494 53.385 L 946.494 53.385 Q 945.853 52.424 945.853 50.981 Z  M 1020.881 22.044 L 1020.881 22.044 L 1020.881 22.044 Q 1018.796 20.04 1018.796 17.314 L 1018.796 17.314 L 1018.796 17.314 Q 1018.796 14.589 1020.881 12.665 L 1020.881 12.665 L 1020.881 12.665 Q 1022.965 10.741 1026.011 10.741 L 1026.011 10.741 L 1026.011 10.741 Q 1028.896 10.741 1030.9 12.665 L 1030.9 12.665 L 1030.9 12.665 Q 1032.904 14.589 1032.904 17.314 L 1032.904 17.314 L 1032.904 17.314 Q 1032.904 20.04 1030.9 22.044 L 1030.9 22.044 L 1030.9 22.044 Q 1028.896 24.048 1026.011 24.048 L 1026.011 24.048 L 1026.011 24.048 Q 1022.965 24.048 1020.881 22.044 Z  M 1020.881 118.153 L 1020.881 118.153 L 1020.881 50.339 L 1020.881 50.339 Q 1020.881 48.736 1022.323 47.614 L 1022.323 47.614 L 1022.323 47.614 Q 1023.766 46.492 1026.011 46.492 L 1026.011 46.492 L 1026.011 46.492 Q 1028.255 46.492 1029.778 47.614 L 1029.778 47.614 L 1029.778 47.614 Q 1031.301 48.736 1031.301 50.339 L 1031.301 50.339 L 1031.301 118.153 L 1031.301 118.153 Q 1031.301 119.756 1029.698 121.039 L 1029.698 121.039 L 1029.698 121.039 Q 1028.095 122.321 1026.011 122.321 L 1026.011 122.321 L 1026.011 122.321 Q 1023.927 122.321 1022.404 121.039 L 1022.404 121.039 L 1022.404 121.039 Q 1020.881 119.756 1020.881 118.153 Z  M 1046.21 102.282 L 1046.21 102.282 L 1046.21 102.282 Q 1046.21 89.938 1055.749 85.128 L 1055.749 85.128 L 1055.749 85.128 Q 1065.288 80.319 1083.564 80.319 L 1083.564 80.319 L 1091.74 80.319 L 1091.74 76.471 L 1091.74 76.471 Q 1091.74 67.654 1087.091 61.161 L 1087.091 61.161 L 1087.091 61.161 Q 1082.442 54.668 1072.823 54.668 L 1072.823 54.668 L 1072.823 54.668 Q 1066.41 54.668 1061.2 56.993 L 1061.2 56.993 L 1061.2 56.993 Q 1055.99 59.317 1055.669 59.317 L 1055.669 59.317 L 1055.669 59.317 Q 1053.745 59.317 1052.623 57.554 L 1052.623 57.554 L 1052.623 57.554 Q 1051.501 55.79 1051.501 53.706 L 1051.501 53.706 L 1051.501 53.706 Q 1051.501 50.66 1058.395 48.095 L 1058.395 48.095 L 1058.395 48.095 Q 1065.288 45.53 1073.144 45.53 L 1073.144 45.53 L 1073.144 45.53 Q 1088.213 45.53 1095.187 54.267 L 1095.187 54.267 L 1095.187 54.267 Q 1102.161 63.004 1102.161 76.471 L 1102.161 76.471 L 1102.161 118.153 L 1102.161 118.153 Q 1102.161 119.917 1100.718 121.119 L 1100.718 121.119 L 1100.718 121.119 Q 1099.275 122.321 1097.031 122.321 L 1097.031 122.321 L 1097.031 122.321 Q 1094.947 122.321 1093.584 121.119 L 1093.584 121.119 L 1093.584 121.119 Q 1092.221 119.917 1092.221 118.153 L 1092.221 118.153 L 1092.221 111.099 L 1092.221 111.099 Q 1081.48 123.444 1068.013 123.444 L 1068.013 123.444 L 1068.013 123.444 Q 1058.395 123.444 1052.302 118.073 L 1052.302 118.073 L 1052.302 118.073 Q 1046.21 112.702 1046.21 102.282 Z  M 1056.631 101.32 L 1056.631 101.32 L 1056.631 101.32 Q 1056.631 108.053 1060.479 111.34 L 1060.479 111.34 L 1060.479 111.34 Q 1064.326 114.626 1070.579 114.626 L 1070.579 114.626 L 1070.579 114.626 Q 1078.113 114.626 1084.927 109.015 L 1084.927 109.015 L 1084.927 109.015 Q 1091.74 103.404 1091.74 97.793 L 1091.74 97.793 L 1091.74 87.533 L 1085.007 87.533 L 1085.007 87.533 Q 1078.594 87.533 1074.186 88.014 L 1074.186 88.014 L 1074.186 88.014 Q 1069.777 88.495 1065.448 89.777 L 1065.448 89.777 L 1065.448 89.777 Q 1061.12 91.06 1058.875 93.945 L 1058.875 93.945 L 1058.875 93.945 Q 1056.631 96.831 1056.631 101.32 Z " fill-rule="evenodd" fill="rgb(65,184,131)"/><path d=" M 588.027 154.866 L 588.027 154.866 L 588.027 154.866 Q 588.027 152.781 589.31 151.419 L 589.31 151.419 L 589.31 151.419 Q 590.592 150.056 592.516 150.056 L 592.516 150.056 L 592.516 150.056 Q 599.57 150.056 601.814 144.846 L 601.814 144.846 L 601.814 144.846 Q 604.059 139.636 604.059 129.215 L 604.059 129.215 L 604.059 50.339 L 604.059 50.339 Q 604.059 48.576 605.502 47.534 L 605.502 47.534 L 605.502 47.534 Q 606.944 46.492 609.189 46.492 L 609.189 46.492 L 609.189 46.492 Q 611.433 46.492 612.956 47.614 L 612.956 47.614 L 612.956 47.614 Q 614.479 48.736 614.479 50.339 L 614.479 50.339 L 614.479 129.215 L 614.479 129.215 Q 614.479 159.515 593.317 159.515 L 593.317 159.515 L 593.317 159.515 Q 590.592 159.515 589.31 158.152 L 589.31 158.152 L 589.31 158.152 Q 588.027 156.789 588.027 154.866 Z  M 604.059 22.044 L 604.059 22.044 L 604.059 22.044 Q 601.975 20.04 601.975 17.314 L 601.975 17.314 L 601.975 17.314 Q 601.975 14.589 604.059 12.665 L 604.059 12.665 L 604.059 12.665 Q 606.143 10.741 609.189 10.741 L 609.189 10.741 L 609.189 10.741 Q 612.074 10.741 614.078 12.665 L 614.078 12.665 L 614.078 12.665 Q 616.082 14.589 616.082 17.314 L 616.082 17.314 L 616.082 17.314 Q 616.082 20.04 614.078 22.044 L 614.078 22.044 L 614.078 22.044 Q 612.074 24.048 609.189 24.048 L 609.189 24.048 L 609.189 24.048 Q 606.143 24.048 604.059 22.044 Z  M 629.87 111.901 L 629.87 111.901 L 629.87 111.901 Q 629.87 110.298 630.992 108.695 L 630.992 108.695 L 630.992 108.695 Q 632.114 107.091 633.557 107.091 L 633.557 107.091 L 633.557 107.091 Q 634.679 107.091 637.084 108.935 L 637.084 108.935 L 637.084 108.935 Q 639.488 110.779 643.977 112.702 L 643.977 112.702 L 643.977 112.702 Q 648.466 114.626 654.719 114.626 L 654.719 114.626 L 654.719 114.626 Q 663.215 114.626 667.223 111.42 L 667.223 111.42 L 667.223 111.42 Q 671.231 108.214 671.231 103.244 L 671.231 103.244 L 671.231 103.244 Q 671.231 97.472 667.143 94.026 L 667.143 94.026 L 667.143 94.026 Q 663.055 90.579 657.325 88.84 L 657.325 88.84 L 657.325 88.84 Q 651.594 87.101 645.702 85.313 L 645.702 85.313 L 645.702 85.313 Q 639.809 83.525 635.721 79.116 L 635.721 79.116 L 635.721 79.116 Q 631.633 74.708 631.633 67.333 L 631.633 67.333 L 631.633 67.333 Q 631.633 58.516 637.966 52.023 L 637.966 52.023 L 637.966 52.023 Q 644.298 45.53 656.963 45.53 L 656.963 45.53 L 656.963 45.53 Q 664.818 45.53 671.632 48.015 L 671.632 48.015 L 671.632 48.015 Q 678.445 50.5 678.445 53.385 L 678.445 53.385 L 678.445 53.385 Q 678.445 54.989 677.163 56.912 L 677.163 56.912 L 677.163 56.912 Q 675.88 58.836 674.117 58.836 L 674.117 58.836 L 674.117 58.836 Q 673.636 58.836 668.185 56.592 L 668.185 56.592 L 668.185 56.592 Q 662.734 54.347 657.123 54.347 L 657.123 54.347 L 657.123 54.347 Q 649.107 54.347 645.1 58.195 L 645.1 58.195 L 645.1 58.195 Q 641.092 62.043 641.092 66.852 L 641.092 66.852 L 641.092 66.852 Q 641.092 71.822 645.18 74.708 L 645.18 74.708 L 645.18 74.708 Q 649.268 77.593 655.053 79.337 L 655.053 79.337 L 655.053 79.337 Q 660.838 81.08 666.756 82.864 L 666.756 82.864 L 666.756 82.864 Q 672.674 84.647 676.762 89.697 L 676.762 89.697 L 676.762 89.697 Q 680.85 94.747 680.85 102.763 L 680.85 102.763 L 680.85 102.763 Q 680.85 112.382 674.037 117.913 L 674.037 117.913 L 674.037 117.913 Q 667.223 123.444 655.039 123.444 L 655.039 123.444 L 655.039 123.444 Q 644.458 123.444 637.164 119.676 L 637.164 119.676 L 637.164 119.676 Q 629.87 115.909 629.87 111.901 Z  M 336.651 9.619 L 336.651 9.619 L 336.651 9.619 Q 336.651 7.695 338.575 6.413 L 338.575 6.413 L 338.575 6.413 Q 340.499 5.13 342.743 5.13 L 342.743 5.13 L 342.743 5.13 Q 346.27 5.13 346.912 7.856 L 346.912 7.856 L 376.57 106.29 L 406.068 7.856 L 406.068 7.856 Q 407.03 5.13 410.076 5.13 L 410.076 5.13 L 410.076 5.13 Q 412.321 5.13 414.405 6.493 L 414.405 6.493 L 414.405 6.493 Q 416.489 7.856 416.489 9.78 L 416.489 9.78 L 416.489 9.78 Q 416.489 9.94 416.409 10.26 L 416.409 10.26 L 416.409 10.26 Q 416.328 10.581 416.328 10.741 L 416.328 10.741 L 382.983 119.436 L 382.983 119.436 Q 381.861 123.283 376.57 123.283 L 376.57 123.283 L 376.57 123.283 Q 371.44 123.283 370.318 119.436 L 370.318 119.436 L 336.812 10.741 L 336.812 10.741 Q 336.651 10.421 336.651 9.619 Z  M 422.901 93.304 L 422.901 93.304 L 422.901 50.5 L 422.901 50.5 Q 422.901 49.057 424.424 47.774 L 424.424 47.774 L 424.424 47.774 Q 425.947 46.492 428.192 46.492 L 428.192 46.492 L 428.192 46.492 Q 430.116 46.492 431.719 47.774 L 431.719 47.774 L 431.719 47.774 Q 433.322 49.057 433.322 50.5 L 433.322 50.5 L 433.322 93.304 L 433.322 93.304 Q 433.322 101.32 439.254 107.572 L 439.254 107.572 L 439.254 107.572 Q 445.185 113.825 453.362 113.825 L 453.362 113.825 L 453.362 113.825 Q 461.538 113.825 467.469 107.572 L 467.469 107.572 L 467.469 107.572 Q 473.401 101.32 473.401 93.304 L 473.401 93.304 L 473.401 50.339 L 473.401 50.339 Q 473.401 48.736 475.004 47.614 L 475.004 47.614 L 475.004 47.614 Q 476.607 46.492 478.691 46.492 L 478.691 46.492 L 478.691 46.492 Q 480.776 46.492 482.299 47.614 L 482.299 47.614 L 482.299 47.614 Q 483.822 48.736 483.822 50.339 L 483.822 50.339 L 483.822 93.304 L 483.822 93.304 Q 483.822 105.328 474.764 114.386 L 474.764 114.386 L 474.764 114.386 Q 465.706 123.444 453.362 123.444 L 453.362 123.444 L 453.362 123.444 Q 440.857 123.444 431.879 114.386 L 431.879 114.386 L 431.879 114.386 Q 422.901 105.328 422.901 93.304 Z  M 500.334 92.984 L 500.334 92.984 L 500.334 75.028 L 500.334 75.028 Q 500.334 63.004 509.312 54.267 L 509.312 54.267 L 509.312 54.267 Q 518.29 45.53 530.955 45.53 L 530.955 45.53 L 530.955 45.53 Q 543.139 45.53 552.036 53.866 L 552.036 53.866 L 552.036 53.866 Q 560.934 62.203 560.934 74.708 L 560.934 74.708 L 560.934 74.708 Q 560.934 79.196 559.892 81.922 L 559.892 81.922 L 559.892 81.922 Q 558.85 84.647 556.525 85.769 L 556.525 85.769 L 556.525 85.769 Q 554.2 86.892 552.277 87.212 L 552.277 87.212 L 552.277 87.212 Q 550.353 87.533 546.986 87.533 L 546.986 87.533 L 510.755 87.533 L 510.755 93.465 L 510.755 93.465 Q 510.755 102.923 517.568 108.614 L 517.568 108.614 L 517.568 108.614 Q 524.382 114.306 535.123 114.306 L 535.123 114.306 L 535.123 114.306 Q 540.573 114.306 544.662 112.702 L 544.662 112.702 L 544.662 112.702 Q 548.75 111.099 550.914 109.496 L 550.914 109.496 L 550.914 109.496 Q 553.078 107.893 554.361 107.893 L 554.361 107.893 L 554.361 107.893 Q 556.124 107.893 557.487 109.576 L 557.487 109.576 L 557.487 109.576 Q 558.85 111.26 558.85 112.863 L 558.85 112.863 L 558.85 112.863 Q 558.85 116.229 551.956 119.837 L 551.956 119.837 L 551.956 119.837 Q 545.062 123.444 534.802 123.444 L 534.802 123.444 L 534.802 123.444 Q 519.572 123.444 509.953 115.027 L 509.953 115.027 L 509.953 115.027 Q 500.334 106.61 500.334 92.984 Z  M 510.755 73.746 L 510.755 79.838 L 542.818 79.838 L 542.818 79.838 Q 547.627 79.838 549.231 78.796 L 549.231 78.796 L 549.231 78.796 Q 550.834 77.754 550.834 74.387 L 550.834 74.387 L 550.834 74.387 Q 550.834 66.371 545.143 60.279 L 545.143 60.279 L 545.143 60.279 Q 539.451 54.187 530.794 54.187 L 530.794 54.187 L 530.794 54.187 Q 522.458 54.187 516.606 59.958 L 516.606 59.958 L 516.606 59.958 Q 510.755 65.73 510.755 73.746 L 510.755 73.746 Z  M 572.957 115.909 L 572.957 115.909 L 572.957 115.909 Q 572.957 112.702 575.041 110.538 L 575.041 110.538 L 575.041 110.538 Q 577.126 108.374 580.332 108.374 L 580.332 108.374 L 580.332 108.374 Q 583.218 108.374 585.382 110.618 L 585.382 110.618 L 585.382 110.618 Q 587.546 112.863 587.546 115.909 L 587.546 115.909 L 587.546 115.909 Q 587.546 118.794 585.382 121.039 L 585.382 121.039 L 585.382 121.039 Q 583.218 123.283 580.332 123.283 L 580.332 123.283 L 580.332 123.283 Q 577.126 123.283 575.041 121.119 L 575.041 121.119 L 575.041 121.119 Q 572.957 118.955 572.957 115.909 Z  M 1067.701 240.15 L 1067.701 240.15 L 1067.701 240.15 Q 1066.315 240.15 1065.231 239.909 L 1065.231 239.909 L 1065.231 239.909 Q 1064.146 239.668 1063.363 239.367 L 1063.363 239.367 L 1064.387 235.632 L 1064.387 235.632 Q 1064.93 235.812 1065.653 235.963 L 1065.653 235.963 L 1065.653 235.963 Q 1066.376 236.114 1067.159 236.114 L 1067.159 236.114 L 1067.159 236.114 Q 1069.328 236.114 1070.051 234.608 L 1070.051 234.608 L 1070.051 234.608 Q 1070.773 233.101 1070.773 230.39 L 1070.773 230.39 L 1070.773 197.798 L 1075.714 197.798 L 1075.714 230.39 L 1075.714 230.39 Q 1075.714 234.849 1073.906 237.499 L 1073.906 237.499 L 1073.906 237.499 Q 1072.099 240.15 1067.701 240.15 Z  M 1073.304 191.773 L 1073.304 191.773 L 1073.304 191.773 Q 1071.858 191.773 1070.864 190.87 L 1070.864 190.87 L 1070.864 190.87 Q 1069.87 189.966 1069.87 188.58 L 1069.87 188.58 L 1069.87 188.58 Q 1069.87 187.134 1070.864 186.261 L 1070.864 186.261 L 1070.864 186.261 Q 1071.858 185.387 1073.304 185.387 L 1073.304 185.387 L 1073.304 185.387 Q 1074.689 185.387 1075.683 186.261 L 1075.683 186.261 L 1075.683 186.261 Q 1076.677 187.134 1076.677 188.58 L 1076.677 188.58 L 1076.677 188.58 Q 1076.677 189.966 1075.683 190.87 L 1075.683 190.87 L 1075.683 190.87 Q 1074.689 191.773 1073.304 191.773 Z  M 1093.245 227.8 L 1093.245 227.8 L 1093.245 227.8 Q 1090.112 227.8 1087.281 226.655 L 1087.281 226.655 L 1087.281 226.655 Q 1084.449 225.511 1082.341 223.763 L 1082.341 223.763 L 1084.811 220.45 L 1084.811 220.45 Q 1086.738 222.016 1088.757 222.98 L 1088.757 222.98 L 1088.757 222.98 Q 1090.775 223.944 1093.426 223.944 L 1093.426 223.944 L 1093.426 223.944 Q 1096.317 223.944 1097.763 222.619 L 1097.763 222.619 L 1097.763 222.619 Q 1099.209 221.293 1099.209 219.366 L 1099.209 219.366 L 1099.209 219.366 Q 1099.209 218.221 1098.607 217.377 L 1098.607 217.377 L 1098.607 217.377 Q 1098.004 216.534 1097.07 215.901 L 1097.07 215.901 L 1097.07 215.901 Q 1096.137 215.269 1094.932 214.787 L 1094.932 214.787 L 1094.932 214.787 Q 1093.727 214.305 1092.522 213.823 L 1092.522 213.823 L 1092.522 213.823 Q 1090.956 213.281 1089.389 212.588 L 1089.389 212.588 L 1089.389 212.588 Q 1087.823 211.895 1086.588 210.901 L 1086.588 210.901 L 1086.588 210.901 Q 1085.353 209.907 1084.57 208.582 L 1084.57 208.582 L 1084.57 208.582 Q 1083.786 207.256 1083.786 205.389 L 1083.786 205.389 L 1083.786 205.389 Q 1083.786 203.642 1084.479 202.105 L 1084.479 202.105 L 1084.479 202.105 Q 1085.172 200.569 1086.467 199.455 L 1086.467 199.455 L 1086.467 199.455 Q 1087.763 198.34 1089.63 197.707 L 1089.63 197.707 L 1089.63 197.707 Q 1091.498 197.075 1093.847 197.075 L 1093.847 197.075 L 1093.847 197.075 Q 1096.619 197.075 1098.938 198.039 L 1098.938 198.039 L 1098.938 198.039 Q 1101.257 199.003 1102.944 200.388 L 1102.944 200.388 L 1100.595 203.521 L 1100.595 203.521 Q 1099.089 202.376 1097.462 201.654 L 1097.462 201.654 L 1097.462 201.654 Q 1095.835 200.931 1093.908 200.931 L 1093.908 200.931 L 1093.908 200.931 Q 1091.136 200.931 1089.841 202.196 L 1089.841 202.196 L 1089.841 202.196 Q 1088.546 203.461 1088.546 205.148 L 1088.546 205.148 L 1088.546 205.148 Q 1088.546 206.172 1089.088 206.925 L 1089.088 206.925 L 1089.088 206.925 Q 1089.63 207.678 1090.534 208.25 L 1090.534 208.25 L 1090.534 208.25 Q 1091.438 208.823 1092.612 209.275 L 1092.612 209.275 L 1092.612 209.275 Q 1093.787 209.726 1095.052 210.208 L 1095.052 210.208 L 1095.052 210.208 Q 1096.619 210.811 1098.215 211.473 L 1098.215 211.473 L 1098.215 211.473 Q 1099.812 212.136 1101.077 213.13 L 1101.077 213.13 L 1101.077 213.13 Q 1102.342 214.124 1103.155 215.57 L 1103.155 215.57 L 1103.155 215.57 Q 1103.969 217.016 1103.969 219.064 L 1103.969 219.064 L 1103.969 219.064 Q 1103.969 220.872 1103.276 222.438 L 1103.276 222.438 L 1103.276 222.438 Q 1102.583 224.004 1101.227 225.209 L 1101.227 225.209 L 1101.227 225.209 Q 1099.872 226.414 1097.854 227.107 L 1097.854 227.107 L 1097.854 227.107 Q 1095.835 227.8 1093.245 227.8 Z  M 977.394 227.077 L 971.55 227.077 L 958.898 187.556 L 964.26 187.556 L 970.586 208.883 L 970.586 208.883 Q 971.67 212.437 972.484 215.45 L 972.484 215.45 L 972.484 215.45 Q 973.297 218.462 974.442 221.956 L 974.442 221.956 L 974.683 221.956 L 974.683 221.956 Q 975.767 218.462 976.61 215.45 L 976.61 215.45 L 976.61 215.45 Q 977.454 212.437 978.478 208.883 L 978.478 208.883 L 984.804 187.556 L 989.925 187.556 L 977.394 227.077 Z  M 1001.612 227.8 L 1001.612 227.8 L 1001.612 227.8 Q 996.913 227.8 994.774 224.908 L 994.774 224.908 L 994.774 224.908 Q 992.636 222.016 992.636 216.353 L 992.636 216.353 L 992.636 197.798 L 997.636 197.798 L 997.636 215.691 L 997.636 215.691 Q 997.636 219.848 998.931 221.685 L 998.931 221.685 L 998.931 221.685 Q 1000.226 223.522 1003.118 223.522 L 1003.118 223.522 L 1003.118 223.522 Q 1005.407 223.522 1007.155 222.348 L 1007.155 222.348 L 1007.155 222.348 Q 1008.902 221.173 1011.01 218.582 L 1011.01 218.582 L 1011.01 197.798 L 1015.95 197.798 L 1015.95 227.077 L 1011.854 227.077 L 1011.432 222.498 L 1011.251 222.498 L 1011.251 222.498 Q 1009.203 224.908 1006.944 226.354 L 1006.944 226.354 L 1006.944 226.354 Q 1004.685 227.8 1001.612 227.8 Z  M 1037.699 227.8 L 1037.699 227.8 L 1037.699 227.8 Q 1034.747 227.8 1032.186 226.746 L 1032.186 226.746 L 1032.186 226.746 Q 1029.626 225.691 1027.728 223.733 L 1027.728 223.733 L 1027.728 223.733 Q 1025.831 221.775 1024.746 218.944 L 1024.746 218.944 L 1024.746 218.944 Q 1023.662 216.112 1023.662 212.498 L 1023.662 212.498 L 1023.662 212.498 Q 1023.662 208.883 1024.776 206.021 L 1024.776 206.021 L 1024.776 206.021 Q 1025.891 203.16 1027.728 201.172 L 1027.728 201.172 L 1027.728 201.172 Q 1029.566 199.183 1031.915 198.129 L 1031.915 198.129 L 1031.915 198.129 Q 1034.265 197.075 1036.795 197.075 L 1036.795 197.075 L 1036.795 197.075 Q 1039.567 197.075 1041.765 198.039 L 1041.765 198.039 L 1041.765 198.039 Q 1043.964 199.003 1045.44 200.81 L 1045.44 200.81 L 1045.44 200.81 Q 1046.916 202.617 1047.7 205.148 L 1047.7 205.148 L 1047.7 205.148 Q 1048.483 207.678 1048.483 210.811 L 1048.483 210.811 L 1048.483 210.811 Q 1048.483 211.594 1048.453 212.347 L 1048.453 212.347 L 1048.453 212.347 Q 1048.423 213.1 1048.302 213.642 L 1048.302 213.642 L 1028.542 213.642 L 1028.542 213.642 Q 1028.843 218.341 1031.463 221.083 L 1031.463 221.083 L 1031.463 221.083 Q 1034.084 223.824 1038.301 223.824 L 1038.301 223.824 L 1038.301 223.824 Q 1040.41 223.824 1042.187 223.191 L 1042.187 223.191 L 1042.187 223.191 Q 1043.964 222.559 1045.591 221.534 L 1045.591 221.534 L 1047.338 224.788 L 1047.338 224.788 Q 1045.41 225.993 1043.061 226.896 L 1043.061 226.896 L 1043.061 226.896 Q 1040.711 227.8 1037.699 227.8 Z  M 1028.481 210.088 L 1028.481 210.088 L 1044.145 210.088 L 1044.145 210.088 Q 1044.145 205.63 1042.247 203.31 L 1042.247 203.31 L 1042.247 203.31 Q 1040.35 200.991 1036.916 200.991 L 1036.916 200.991 L 1036.916 200.991 Q 1035.349 200.991 1033.934 201.593 L 1033.934 201.593 L 1033.934 201.593 Q 1032.518 202.196 1031.373 203.37 L 1031.373 203.37 L 1031.373 203.37 Q 1030.229 204.545 1029.475 206.232 L 1029.475 206.232 L 1029.475 206.232 Q 1028.722 207.919 1028.481 210.088 Z  M 1058.303 227.8 L 1058.303 227.8 L 1058.303 227.8 Q 1056.797 227.8 1055.742 226.746 L 1055.742 226.746 L 1055.742 226.746 Q 1054.688 225.691 1054.688 224.065 L 1054.688 224.065 L 1054.688 224.065 Q 1054.688 222.318 1055.742 221.263 L 1055.742 221.263 L 1055.742 221.263 Q 1056.797 220.209 1058.303 220.209 L 1058.303 220.209 L 1058.303 220.209 Q 1059.749 220.209 1060.803 221.263 L 1060.803 221.263 L 1060.803 221.263 Q 1061.857 222.318 1061.857 224.065 L 1061.857 224.065 L 1061.857 224.065 Q 1061.857 225.691 1060.803 226.746 L 1060.803 226.746 L 1060.803 226.746 Q 1059.749 227.8 1058.303 227.8 Z  M 898.472 227.8 L 898.472 227.8 L 898.472 227.8 Q 892.93 227.8 889.647 223.824 L 889.647 223.824 L 889.647 223.824 Q 886.363 219.848 886.363 212.498 L 886.363 212.498 L 886.363 212.498 Q 886.363 208.943 887.417 206.082 L 887.417 206.082 L 887.417 206.082 Q 888.472 203.22 890.219 201.232 L 890.219 201.232 L 890.219 201.232 Q 891.966 199.244 894.255 198.159 L 894.255 198.159 L 894.255 198.159 Q 896.545 197.075 899.075 197.075 L 899.075 197.075 L 899.075 197.075 Q 901.605 197.075 903.473 197.979 L 903.473 197.979 L 903.473 197.979 Q 905.34 198.882 907.268 200.449 L 907.268 200.449 L 907.027 195.448 L 907.027 184.182 L 912.028 184.182 L 912.028 227.077 L 907.931 227.077 L 907.509 223.643 L 907.329 223.643 L 907.329 223.643 Q 905.581 225.33 903.322 226.565 L 903.322 226.565 L 903.322 226.565 Q 901.063 227.8 898.472 227.8 Z  M 899.557 223.643 L 899.557 223.643 L 899.557 223.643 Q 901.605 223.643 903.413 222.649 L 903.413 222.649 L 903.413 222.649 Q 905.22 221.655 907.027 219.607 L 907.027 219.607 L 907.027 204.304 L 907.027 204.304 Q 905.16 202.617 903.443 201.925 L 903.443 201.925 L 903.443 201.925 Q 901.726 201.232 899.918 201.232 L 899.918 201.232 L 899.918 201.232 Q 898.171 201.232 896.635 202.045 L 896.635 202.045 L 896.635 202.045 Q 895.099 202.858 893.954 204.334 L 893.954 204.334 L 893.954 204.334 Q 892.809 205.81 892.147 207.859 L 892.147 207.859 L 892.147 207.859 Q 891.484 209.907 891.484 212.437 L 891.484 212.437 L 891.484 212.437 Q 891.484 217.739 893.593 220.691 L 893.593 220.691 L 893.593 220.691 Q 895.701 223.643 899.557 223.643 Z  M 933.776 227.8 L 933.776 227.8 L 933.776 227.8 Q 930.824 227.8 928.264 226.746 L 928.264 226.746 L 928.264 226.746 Q 925.703 225.691 923.805 223.733 L 923.805 223.733 L 923.805 223.733 Q 921.908 221.775 920.823 218.944 L 920.823 218.944 L 920.823 218.944 Q 919.739 216.112 919.739 212.498 L 919.739 212.498 L 919.739 212.498 Q 919.739 208.883 920.854 206.021 L 920.854 206.021 L 920.854 206.021 Q 921.968 203.16 923.805 201.172 L 923.805 201.172 L 923.805 201.172 Q 925.643 199.183 927.993 198.129 L 927.993 198.129 L 927.993 198.129 Q 930.342 197.075 932.872 197.075 L 932.872 197.075 L 932.872 197.075 Q 935.644 197.075 937.843 198.039 L 937.843 198.039 L 937.843 198.039 Q 940.042 199.003 941.518 200.81 L 941.518 200.81 L 941.518 200.81 Q 942.994 202.617 943.777 205.148 L 943.777 205.148 L 943.777 205.148 Q 944.56 207.678 944.56 210.811 L 944.56 210.811 L 944.56 210.811 Q 944.56 211.594 944.53 212.347 L 944.53 212.347 L 944.53 212.347 Q 944.5 213.1 944.379 213.642 L 944.379 213.642 L 924.619 213.642 L 924.619 213.642 Q 924.92 218.341 927.541 221.083 L 927.541 221.083 L 927.541 221.083 Q 930.161 223.824 934.379 223.824 L 934.379 223.824 L 934.379 223.824 Q 936.487 223.824 938.264 223.191 L 938.264 223.191 L 938.264 223.191 Q 940.042 222.559 941.668 221.534 L 941.668 221.534 L 943.415 224.788 L 943.415 224.788 Q 941.487 225.993 939.138 226.896 L 939.138 226.896 L 939.138 226.896 Q 936.788 227.8 933.776 227.8 Z  M 924.559 210.088 L 924.559 210.088 L 940.222 210.088 L 940.222 210.088 Q 940.222 205.63 938.325 203.31 L 938.325 203.31 L 938.325 203.31 Q 936.427 200.991 932.993 200.991 L 932.993 200.991 L 932.993 200.991 Q 931.426 200.991 930.011 201.593 L 930.011 201.593 L 930.011 201.593 Q 928.595 202.196 927.45 203.37 L 927.45 203.37 L 927.45 203.37 Q 926.306 204.545 925.553 206.232 L 925.553 206.232 L 925.553 206.232 Q 924.8 207.919 924.559 210.088 Z  M 656.588 227.8 L 656.588 227.8 L 656.588 227.8 Q 654.54 227.8 652.341 226.806 L 652.341 226.806 L 652.341 226.806 Q 650.142 225.812 648.214 224.065 L 648.214 224.065 L 648.034 224.065 L 647.612 227.077 L 643.636 227.077 L 643.636 184.182 L 648.576 184.182 L 648.576 195.87 L 648.455 201.172 L 648.455 201.172 Q 650.443 199.424 652.793 198.25 L 652.793 198.25 L 652.793 198.25 Q 655.143 197.075 657.613 197.075 L 657.613 197.075 L 657.613 197.075 Q 660.444 197.075 662.613 198.129 L 662.613 198.129 L 662.613 198.129 Q 664.782 199.183 666.258 201.141 L 666.258 201.141 L 666.258 201.141 Q 667.734 203.099 668.487 205.841 L 668.487 205.841 L 668.487 205.841 Q 669.24 208.582 669.24 211.955 L 669.24 211.955 L 669.24 211.955 Q 669.24 215.691 668.216 218.643 L 668.216 218.643 L 668.216 218.643 Q 667.191 221.595 665.444 223.643 L 665.444 223.643 L 665.444 223.643 Q 663.697 225.691 661.408 226.746 L 661.408 226.746 L 661.408 226.746 Q 659.119 227.8 656.588 227.8 Z  M 655.745 223.643 L 655.745 223.643 L 655.745 223.643 Q 657.552 223.643 659.089 222.83 L 659.089 222.83 L 659.089 222.83 Q 660.625 222.016 661.739 220.54 L 661.739 220.54 L 661.739 220.54 Q 662.854 219.064 663.486 216.896 L 663.486 216.896 L 663.486 216.896 Q 664.119 214.727 664.119 212.016 L 664.119 212.016 L 664.119 212.016 Q 664.119 209.606 663.697 207.618 L 663.697 207.618 L 663.697 207.618 Q 663.276 205.63 662.342 204.214 L 662.342 204.214 L 662.342 204.214 Q 661.408 202.798 659.932 202.015 L 659.932 202.015 L 659.932 202.015 Q 658.456 201.232 656.408 201.232 L 656.408 201.232 L 656.408 201.232 Q 652.853 201.232 648.576 205.208 L 648.576 205.208 L 648.576 220.57 L 648.576 220.57 Q 650.504 222.257 652.401 222.95 L 652.401 222.95 L 652.401 222.95 Q 654.299 223.643 655.745 223.643 Z  M 688.337 227.8 L 688.337 227.8 L 688.337 227.8 Q 685.626 227.8 683.187 226.776 L 683.187 226.776 L 683.187 226.776 Q 680.747 225.752 678.879 223.794 L 678.879 223.794 L 678.879 223.794 Q 677.011 221.836 675.897 218.974 L 675.897 218.974 L 675.897 218.974 Q 674.782 216.112 674.782 212.498 L 674.782 212.498 L 674.782 212.498 Q 674.782 208.823 675.897 205.961 L 675.897 205.961 L 675.897 205.961 Q 677.011 203.099 678.879 201.111 L 678.879 201.111 L 678.879 201.111 Q 680.747 199.123 683.187 198.099 L 683.187 198.099 L 683.187 198.099 Q 685.626 197.075 688.337 197.075 L 688.337 197.075 L 688.337 197.075 Q 691.049 197.075 693.488 198.099 L 693.488 198.099 L 693.488 198.099 Q 695.928 199.123 697.796 201.111 L 697.796 201.111 L 697.796 201.111 Q 699.664 203.099 700.778 205.961 L 700.778 205.961 L 700.778 205.961 Q 701.893 208.823 701.893 212.498 L 701.893 212.498 L 701.893 212.498 Q 701.893 216.112 700.778 218.974 L 700.778 218.974 L 700.778 218.974 Q 699.664 221.836 697.796 223.794 L 697.796 223.794 L 697.796 223.794 Q 695.928 225.752 693.488 226.776 L 693.488 226.776 L 693.488 226.776 Q 691.049 227.8 688.337 227.8 Z  M 688.337 223.703 L 688.337 223.703 L 688.337 223.703 Q 690.205 223.703 691.771 222.89 L 691.771 222.89 L 691.771 222.89 Q 693.338 222.077 694.452 220.601 L 694.452 220.601 L 694.452 220.601 Q 695.567 219.125 696.169 217.076 L 696.169 217.076 L 696.169 217.076 Q 696.772 215.028 696.772 212.498 L 696.772 212.498 L 696.772 212.498 Q 696.772 209.967 696.169 207.889 L 696.169 207.889 L 696.169 207.889 Q 695.567 205.81 694.452 204.304 L 694.452 204.304 L 694.452 204.304 Q 693.338 202.798 691.771 201.985 L 691.771 201.985 L 691.771 201.985 Q 690.205 201.172 688.337 201.172 L 688.337 201.172 L 688.337 201.172 Q 686.47 201.172 684.904 201.985 L 684.904 201.985 L 684.904 201.985 Q 683.337 202.798 682.223 204.304 L 682.223 204.304 L 682.223 204.304 Q 681.108 205.81 680.506 207.889 L 680.506 207.889 L 680.506 207.889 Q 679.903 209.967 679.903 212.498 L 679.903 212.498 L 679.903 212.498 Q 679.903 215.028 680.506 217.076 L 680.506 217.076 L 680.506 217.076 Q 681.108 219.125 682.223 220.601 L 682.223 220.601 L 682.223 220.601 Q 683.337 222.077 684.904 222.89 L 684.904 222.89 L 684.904 222.89 Q 686.47 223.703 688.337 223.703 Z  M 714.845 227.8 L 714.845 227.8 L 714.845 227.8 Q 712.014 227.8 710.809 226.113 L 710.809 226.113 L 710.809 226.113 Q 709.604 224.426 709.604 221.173 L 709.604 221.173 L 709.604 184.182 L 714.544 184.182 L 714.544 221.534 L 714.544 221.534 Q 714.544 222.739 714.966 223.221 L 714.966 223.221 L 714.966 223.221 Q 715.388 223.703 715.93 223.703 L 715.93 223.703 L 715.93 223.703 Q 716.171 223.703 716.382 223.703 L 716.382 223.703 L 716.382 223.703 Q 716.593 223.703 717.014 223.583 L 717.014 223.583 L 717.677 227.318 L 717.677 227.318 Q 717.195 227.559 716.532 227.679 L 716.532 227.679 L 716.532 227.679 Q 715.87 227.8 714.845 227.8 Z  M 729.907 227.077 L 724.967 227.077 L 724.967 197.798 L 729.907 197.798 L 729.907 227.077 Z  M 727.497 191.773 L 727.497 191.773 L 727.497 191.773 Q 726.051 191.773 725.057 190.87 L 725.057 190.87 L 725.057 190.87 Q 724.063 189.966 724.063 188.58 L 724.063 188.58 L 724.063 188.58 Q 724.063 187.134 725.057 186.261 L 725.057 186.261 L 725.057 186.261 Q 726.051 185.387 727.497 185.387 L 727.497 185.387 L 727.497 185.387 Q 728.943 185.387 729.937 186.261 L 729.937 186.261 L 729.937 186.261 Q 730.931 187.134 730.931 188.58 L 730.931 188.58 L 730.931 188.58 Q 730.931 189.966 729.937 190.87 L 729.937 190.87 L 729.937 190.87 Q 728.943 191.773 727.497 191.773 Z  M 751.896 227.077 L 746.113 227.077 L 735.57 197.798 L 740.691 197.798 L 746.233 214.425 L 746.233 214.425 Q 746.896 216.594 747.589 218.763 L 747.589 218.763 L 747.589 218.763 Q 748.281 220.932 748.944 223.041 L 748.944 223.041 L 749.185 223.041 L 749.185 223.041 Q 749.848 220.932 750.51 218.763 L 750.51 218.763 L 750.51 218.763 Q 751.173 216.594 751.836 214.425 L 751.836 214.425 L 757.378 197.798 L 762.258 197.798 L 751.896 227.077 Z  M 772.861 227.077 L 767.921 227.077 L 767.921 197.798 L 772.861 197.798 L 772.861 227.077 Z  M 770.452 191.773 L 770.452 191.773 L 770.452 191.773 Q 769.006 191.773 768.012 190.87 L 768.012 190.87 L 768.012 190.87 Q 767.018 189.966 767.018 188.58 L 767.018 188.58 L 767.018 188.58 Q 767.018 187.134 768.012 186.261 L 768.012 186.261 L 768.012 186.261 Q 769.006 185.387 770.452 185.387 L 770.452 185.387 L 770.452 185.387 Q 771.898 185.387 772.892 186.261 L 772.892 186.261 L 772.892 186.261 Q 773.886 187.134 773.886 188.58 L 773.886 188.58 L 773.886 188.58 Q 773.886 189.966 772.892 190.87 L 772.892 190.87 L 772.892 190.87 Q 771.898 191.773 770.452 191.773 Z  M 789.489 227.8 L 789.489 227.8 L 789.489 227.8 Q 785.814 227.8 783.374 225.631 L 783.374 225.631 L 783.374 225.631 Q 780.934 223.462 780.934 219.486 L 780.934 219.486 L 780.934 219.486 Q 780.934 214.666 785.212 212.106 L 785.212 212.106 L 785.212 212.106 Q 789.489 209.546 798.887 208.521 L 798.887 208.521 L 798.887 208.521 Q 798.887 207.136 798.616 205.81 L 798.616 205.81 L 798.616 205.81 Q 798.345 204.485 797.682 203.461 L 797.682 203.461 L 797.682 203.461 Q 797.02 202.437 795.845 201.804 L 795.845 201.804 L 795.845 201.804 Q 794.67 201.172 792.863 201.172 L 792.863 201.172 L 792.863 201.172 Q 790.332 201.172 788.103 202.135 L 788.103 202.135 L 788.103 202.135 Q 785.874 203.099 784.127 204.304 L 784.127 204.304 L 782.199 200.87 L 782.199 200.87 Q 784.248 199.545 787.2 198.31 L 787.2 198.31 L 787.2 198.31 Q 790.152 197.075 793.706 197.075 L 793.706 197.075 L 793.706 197.075 Q 799.068 197.075 801.478 200.358 L 801.478 200.358 L 801.478 200.358 Q 803.888 203.642 803.888 209.124 L 803.888 209.124 L 803.888 227.077 L 799.791 227.077 L 799.369 223.583 L 799.189 223.583 L 799.189 223.583 Q 797.08 225.33 794.67 226.565 L 794.67 226.565 L 794.67 226.565 Q 792.26 227.8 789.489 227.8 Z  M 790.935 223.824 L 790.935 223.824 L 790.935 223.824 Q 793.044 223.824 794.911 222.83 L 794.911 222.83 L 794.911 222.83 Q 796.779 221.836 798.887 219.908 L 798.887 219.908 L 798.887 211.775 L 798.887 211.775 Q 795.212 212.257 792.712 212.919 L 792.712 212.919 L 792.712 212.919 Q 790.212 213.582 788.676 214.486 L 788.676 214.486 L 788.676 214.486 Q 787.14 215.389 786.447 216.564 L 786.447 216.564 L 786.447 216.564 Q 785.754 217.739 785.754 219.125 L 785.754 219.125 L 785.754 219.125 Q 785.754 221.655 787.26 222.739 L 787.26 222.739 L 787.26 222.739 Q 788.766 223.824 790.935 223.824 Z  M 818.045 227.077 L 813.105 227.077 L 813.105 197.798 L 817.202 197.798 L 817.624 202.015 L 817.804 202.015 L 817.804 202.015 Q 819.913 199.906 822.232 198.491 L 822.232 198.491 L 822.232 198.491 Q 824.552 197.075 827.624 197.075 L 827.624 197.075 L 827.624 197.075 Q 832.263 197.075 834.402 199.967 L 834.402 199.967 L 834.402 199.967 Q 836.54 202.858 836.54 208.521 L 836.54 208.521 L 836.54 227.077 L 831.6 227.077 L 831.6 209.184 L 831.6 209.184 Q 831.6 205.027 830.275 203.19 L 830.275 203.19 L 830.275 203.19 Q 828.95 201.352 826.058 201.352 L 826.058 201.352 L 826.058 201.352 Q 823.768 201.352 822.021 202.497 L 822.021 202.497 L 822.021 202.497 Q 820.274 203.642 818.045 205.871 L 818.045 205.871 L 818.045 227.077 Z  M 852.807 227.8 L 852.807 227.8 L 852.807 227.8 Q 849.132 227.8 846.692 225.631 L 846.692 225.631 L 846.692 225.631 Q 844.252 223.462 844.252 219.486 L 844.252 219.486 L 844.252 219.486 Q 844.252 214.666 848.529 212.106 L 848.529 212.106 L 848.529 212.106 Q 852.807 209.546 862.205 208.521 L 862.205 208.521 L 862.205 208.521 Q 862.205 207.136 861.934 205.81 L 861.934 205.81 L 861.934 205.81 Q 861.663 204.485 861 203.461 L 861 203.461 L 861 203.461 Q 860.337 202.437 859.163 201.804 L 859.163 201.804 L 859.163 201.804 Q 857.988 201.172 856.18 201.172 L 856.18 201.172 L 856.18 201.172 Q 853.65 201.172 851.421 202.135 L 851.421 202.135 L 851.421 202.135 Q 849.192 203.099 847.445 204.304 L 847.445 204.304 L 845.517 200.87 L 845.517 200.87 Q 847.565 199.545 850.517 198.31 L 850.517 198.31 L 850.517 198.31 Q 853.469 197.075 857.024 197.075 L 857.024 197.075 L 857.024 197.075 Q 862.386 197.075 864.795 200.358 L 864.795 200.358 L 864.795 200.358 Q 867.205 203.642 867.205 209.124 L 867.205 209.124 L 867.205 227.077 L 863.109 227.077 L 862.687 223.583 L 862.506 223.583 L 862.506 223.583 Q 860.398 225.33 857.988 226.565 L 857.988 226.565 L 857.988 226.565 Q 855.578 227.8 852.807 227.8 Z  M 854.253 223.824 L 854.253 223.824 L 854.253 223.824 Q 856.361 223.824 858.229 222.83 L 858.229 222.83 L 858.229 222.83 Q 860.096 221.836 862.205 219.908 L 862.205 219.908 L 862.205 211.775 L 862.205 211.775 Q 858.53 212.257 856.03 212.919 L 856.03 212.919 L 856.03 212.919 Q 853.53 213.582 851.993 214.486 L 851.993 214.486 L 851.993 214.486 Q 850.457 215.389 849.764 216.564 L 849.764 216.564 L 849.764 216.564 Q 849.071 217.739 849.071 219.125 L 849.071 219.125 L 849.071 219.125 Q 849.071 221.655 850.578 222.739 L 850.578 222.739 L 850.578 222.739 Q 852.084 223.824 854.253 223.824 Z  M 352.23 227.8 L 352.23 227.8 L 352.23 227.8 Q 348.495 227.8 345.362 226.414 L 345.362 226.414 L 345.362 226.414 Q 342.229 225.029 339.91 222.408 L 339.91 222.408 L 339.91 222.408 Q 337.591 219.787 336.295 215.962 L 336.295 215.962 L 336.295 215.962 Q 335 212.136 335 207.317 L 335 207.317 L 335 207.317 Q 335 202.557 336.325 198.762 L 336.325 198.762 L 336.325 198.762 Q 337.651 194.966 340 192.316 L 340 192.316 L 340 192.316 Q 342.35 189.665 345.543 188.249 L 345.543 188.249 L 345.543 188.249 Q 348.736 186.833 352.531 186.833 L 352.531 186.833 L 352.531 186.833 Q 356.146 186.833 358.887 188.309 L 358.887 188.309 L 358.887 188.309 Q 361.628 189.785 363.375 191.713 L 363.375 191.713 L 360.664 194.966 L 360.664 194.966 Q 359.098 193.279 357.11 192.255 L 357.11 192.255 L 357.11 192.255 Q 355.122 191.231 352.592 191.231 L 352.592 191.231 L 352.592 191.231 Q 349.76 191.231 347.471 192.346 L 347.471 192.346 L 347.471 192.346 Q 345.181 193.46 343.555 195.539 L 343.555 195.539 L 343.555 195.539 Q 341.928 197.617 341.055 200.569 L 341.055 200.569 L 341.055 200.569 Q 340.181 203.521 340.181 207.196 L 340.181 207.196 L 340.181 207.196 Q 340.181 210.931 341.055 213.913 L 341.055 213.913 L 341.055 213.913 Q 341.928 216.896 343.495 219.004 L 343.495 219.004 L 343.495 219.004 Q 345.061 221.113 347.32 222.257 L 347.32 222.257 L 347.32 222.257 Q 349.579 223.402 352.411 223.402 L 352.411 223.402 L 352.411 223.402 Q 355.303 223.402 357.471 222.227 L 357.471 222.227 L 357.471 222.227 Q 359.64 221.052 361.568 218.944 L 361.568 218.944 L 364.339 222.077 L 364.339 222.077 Q 361.99 224.788 359.038 226.294 L 359.038 226.294 L 359.038 226.294 Q 356.086 227.8 352.23 227.8 Z  M 382.594 227.8 L 382.594 227.8 L 382.594 227.8 Q 379.883 227.8 377.443 226.776 L 377.443 226.776 L 377.443 226.776 Q 375.003 225.752 373.135 223.794 L 373.135 223.794 L 373.135 223.794 Q 371.268 221.836 370.153 218.974 L 370.153 218.974 L 370.153 218.974 Q 369.038 216.112 369.038 212.498 L 369.038 212.498 L 369.038 212.498 Q 369.038 208.823 370.153 205.961 L 370.153 205.961 L 370.153 205.961 Q 371.268 203.099 373.135 201.111 L 373.135 201.111 L 373.135 201.111 Q 375.003 199.123 377.443 198.099 L 377.443 198.099 L 377.443 198.099 Q 379.883 197.075 382.594 197.075 L 382.594 197.075 L 382.594 197.075 Q 385.305 197.075 387.745 198.099 L 387.745 198.099 L 387.745 198.099 Q 390.184 199.123 392.052 201.111 L 392.052 201.111 L 392.052 201.111 Q 393.92 203.099 395.034 205.961 L 395.034 205.961 L 395.034 205.961 Q 396.149 208.823 396.149 212.498 L 396.149 212.498 L 396.149 212.498 Q 396.149 216.112 395.034 218.974 L 395.034 218.974 L 395.034 218.974 Q 393.92 221.836 392.052 223.794 L 392.052 223.794 L 392.052 223.794 Q 390.184 225.752 387.745 226.776 L 387.745 226.776 L 387.745 226.776 Q 385.305 227.8 382.594 227.8 Z  M 382.594 223.703 L 382.594 223.703 L 382.594 223.703 Q 384.461 223.703 386.028 222.89 L 386.028 222.89 L 386.028 222.89 Q 387.594 222.077 388.708 220.601 L 388.708 220.601 L 388.708 220.601 Q 389.823 219.125 390.425 217.076 L 390.425 217.076 L 390.425 217.076 Q 391.028 215.028 391.028 212.498 L 391.028 212.498 L 391.028 212.498 Q 391.028 209.967 390.425 207.889 L 390.425 207.889 L 390.425 207.889 Q 389.823 205.81 388.708 204.304 L 388.708 204.304 L 388.708 204.304 Q 387.594 202.798 386.028 201.985 L 386.028 201.985 L 386.028 201.985 Q 384.461 201.172 382.594 201.172 L 382.594 201.172 L 382.594 201.172 Q 380.726 201.172 379.16 201.985 L 379.16 201.985 L 379.16 201.985 Q 377.593 202.798 376.479 204.304 L 376.479 204.304 L 376.479 204.304 Q 375.364 205.81 374.762 207.889 L 374.762 207.889 L 374.762 207.889 Q 374.159 209.967 374.159 212.498 L 374.159 212.498 L 374.159 212.498 Q 374.159 215.028 374.762 217.076 L 374.762 217.076 L 374.762 217.076 Q 375.364 219.125 376.479 220.601 L 376.479 220.601 L 376.479 220.601 Q 377.593 222.077 379.16 222.89 L 379.16 222.89 L 379.16 222.89 Q 380.726 223.703 382.594 223.703 Z  M 408.8 227.077 L 403.86 227.077 L 403.86 197.798 L 407.957 197.798 L 408.378 202.015 L 408.559 202.015 L 408.559 202.015 Q 410.487 199.906 412.746 198.491 L 412.746 198.491 L 412.746 198.491 Q 415.005 197.075 417.656 197.075 L 417.656 197.075 L 417.656 197.075 Q 421.03 197.075 422.928 198.551 L 422.928 198.551 L 422.928 198.551 Q 424.825 200.027 425.729 202.678 L 425.729 202.678 L 425.729 202.678 Q 428.018 200.147 430.338 198.611 L 430.338 198.611 L 430.338 198.611 Q 432.657 197.075 435.368 197.075 L 435.368 197.075 L 435.368 197.075 Q 439.887 197.075 442.086 199.967 L 442.086 199.967 L 442.086 199.967 Q 444.285 202.858 444.285 208.521 L 444.285 208.521 L 444.285 227.077 L 439.345 227.077 L 439.345 209.184 L 439.345 209.184 Q 439.345 205.027 438.019 203.19 L 438.019 203.19 L 438.019 203.19 Q 436.694 201.352 433.922 201.352 L 433.922 201.352 L 433.922 201.352 Q 430.609 201.352 426.573 205.871 L 426.573 205.871 L 426.573 227.077 L 421.632 227.077 L 421.632 209.184 L 421.632 209.184 Q 421.632 205.027 420.307 203.19 L 420.307 203.19 L 420.307 203.19 Q 418.982 201.352 416.15 201.352 L 416.15 201.352 L 416.15 201.352 Q 412.837 201.352 408.8 205.871 L 408.8 205.871 L 408.8 227.077 Z  M 462.358 227.8 L 462.358 227.8 L 462.358 227.8 Q 457.659 227.8 455.52 224.908 L 455.52 224.908 L 455.52 224.908 Q 453.382 222.016 453.382 216.353 L 453.382 216.353 L 453.382 197.798 L 458.382 197.798 L 458.382 215.691 L 458.382 215.691 Q 458.382 219.848 459.677 221.685 L 459.677 221.685 L 459.677 221.685 Q 460.972 223.522 463.864 223.522 L 463.864 223.522 L 463.864 223.522 Q 466.154 223.522 467.901 222.348 L 467.901 222.348 L 467.901 222.348 Q 469.648 221.173 471.756 218.582 L 471.756 218.582 L 471.756 197.798 L 476.696 197.798 L 476.696 227.077 L 472.6 227.077 L 472.178 222.498 L 471.997 222.498 L 471.997 222.498 Q 469.949 224.908 467.69 226.354 L 467.69 226.354 L 467.69 226.354 Q 465.431 227.8 462.358 227.8 Z  M 491.517 227.077 L 486.577 227.077 L 486.577 197.798 L 490.673 197.798 L 491.095 202.015 L 491.276 202.015 L 491.276 202.015 Q 493.384 199.906 495.704 198.491 L 495.704 198.491 L 495.704 198.491 Q 498.023 197.075 501.096 197.075 L 501.096 197.075 L 501.096 197.075 Q 505.735 197.075 507.873 199.967 L 507.873 199.967 L 507.873 199.967 Q 510.012 202.858 510.012 208.521 L 510.012 208.521 L 510.012 227.077 L 505.072 227.077 L 505.072 209.184 L 505.072 209.184 Q 505.072 205.027 503.747 203.19 L 503.747 203.19 L 503.747 203.19 Q 502.421 201.352 499.529 201.352 L 499.529 201.352 L 499.529 201.352 Q 497.24 201.352 495.493 202.497 L 495.493 202.497 L 495.493 202.497 Q 493.746 203.642 491.517 205.871 L 491.517 205.871 L 491.517 227.077 Z  M 524.471 227.077 L 519.531 227.077 L 519.531 197.798 L 524.471 197.798 L 524.471 227.077 Z  M 522.061 191.773 L 522.061 191.773 L 522.061 191.773 Q 520.615 191.773 519.621 190.87 L 519.621 190.87 L 519.621 190.87 Q 518.627 189.966 518.627 188.58 L 518.627 188.58 L 518.627 188.58 Q 518.627 187.134 519.621 186.261 L 519.621 186.261 L 519.621 186.261 Q 520.615 185.387 522.061 185.387 L 522.061 185.387 L 522.061 185.387 Q 523.507 185.387 524.501 186.261 L 524.501 186.261 L 524.501 186.261 Q 525.495 187.134 525.495 188.58 L 525.495 188.58 L 525.495 188.58 Q 525.495 189.966 524.501 190.87 L 524.501 190.87 L 524.501 190.87 Q 523.507 191.773 522.061 191.773 Z  M 544.352 227.8 L 544.352 227.8 L 544.352 227.8 Q 538.809 227.8 535.526 223.824 L 535.526 223.824 L 535.526 223.824 Q 532.242 219.848 532.242 212.498 L 532.242 212.498 L 532.242 212.498 Q 532.242 208.943 533.297 206.082 L 533.297 206.082 L 533.297 206.082 Q 534.351 203.22 536.098 201.232 L 536.098 201.232 L 536.098 201.232 Q 537.845 199.244 540.135 198.159 L 540.135 198.159 L 540.135 198.159 Q 542.424 197.075 544.954 197.075 L 544.954 197.075 L 544.954 197.075 Q 547.485 197.075 549.352 197.979 L 549.352 197.979 L 549.352 197.979 Q 551.22 198.882 553.148 200.449 L 553.148 200.449 L 552.906 195.448 L 552.906 184.182 L 557.907 184.182 L 557.907 227.077 L 553.81 227.077 L 553.389 223.643 L 553.208 223.643 L 553.208 223.643 Q 551.461 225.33 549.201 226.565 L 549.201 226.565 L 549.201 226.565 Q 546.942 227.8 544.352 227.8 Z  M 545.436 223.643 L 545.436 223.643 L 545.436 223.643 Q 547.485 223.643 549.292 222.649 L 549.292 222.649 L 549.292 222.649 Q 551.099 221.655 552.906 219.607 L 552.906 219.607 L 552.906 204.304 L 552.906 204.304 Q 551.039 202.617 549.322 201.925 L 549.322 201.925 L 549.322 201.925 Q 547.605 201.232 545.798 201.232 L 545.798 201.232 L 545.798 201.232 Q 544.051 201.232 542.514 202.045 L 542.514 202.045 L 542.514 202.045 Q 540.978 202.858 539.833 204.334 L 539.833 204.334 L 539.833 204.334 Q 538.689 205.81 538.026 207.859 L 538.026 207.859 L 538.026 207.859 Q 537.363 209.907 537.363 212.437 L 537.363 212.437 L 537.363 212.437 Q 537.363 217.739 539.472 220.691 L 539.472 220.691 L 539.472 220.691 Q 541.58 223.643 545.436 223.643 Z  M 574.535 227.8 L 574.535 227.8 L 574.535 227.8 Q 570.86 227.8 568.42 225.631 L 568.42 225.631 L 568.42 225.631 Q 565.98 223.462 565.98 219.486 L 565.98 219.486 L 565.98 219.486 Q 565.98 214.666 570.257 212.106 L 570.257 212.106 L 570.257 212.106 Q 574.535 209.546 583.933 208.521 L 583.933 208.521 L 583.933 208.521 Q 583.933 207.136 583.662 205.81 L 583.662 205.81 L 583.662 205.81 Q 583.391 204.485 582.728 203.461 L 582.728 203.461 L 582.728 203.461 Q 582.065 202.437 580.89 201.804 L 580.89 201.804 L 580.89 201.804 Q 579.716 201.172 577.908 201.172 L 577.908 201.172 L 577.908 201.172 Q 575.378 201.172 573.149 202.135 L 573.149 202.135 L 573.149 202.135 Q 570.92 203.099 569.173 204.304 L 569.173 204.304 L 567.245 200.87 L 567.245 200.87 Q 569.293 199.545 572.245 198.31 L 572.245 198.31 L 572.245 198.31 Q 575.197 197.075 578.752 197.075 L 578.752 197.075 L 578.752 197.075 Q 584.113 197.075 586.523 200.358 L 586.523 200.358 L 586.523 200.358 Q 588.933 203.642 588.933 209.124 L 588.933 209.124 L 588.933 227.077 L 584.836 227.077 L 584.415 223.583 L 584.234 223.583 L 584.234 223.583 Q 582.125 225.33 579.716 226.565 L 579.716 226.565 L 579.716 226.565 Q 577.306 227.8 574.535 227.8 Z  M 575.98 223.824 L 575.98 223.824 L 575.98 223.824 Q 578.089 223.824 579.957 222.83 L 579.957 222.83 L 579.957 222.83 Q 581.824 221.836 583.933 219.908 L 583.933 219.908 L 583.933 211.775 L 583.933 211.775 Q 580.258 212.257 577.758 212.919 L 577.758 212.919 L 577.758 212.919 Q 575.258 213.582 573.721 214.486 L 573.721 214.486 L 573.721 214.486 Q 572.185 215.389 571.492 216.564 L 571.492 216.564 L 571.492 216.564 Q 570.799 217.739 570.799 219.125 L 570.799 219.125 L 570.799 219.125 Q 570.799 221.655 572.305 222.739 L 572.305 222.739 L 572.305 222.739 Q 573.812 223.824 575.98 223.824 Z  M 608.151 227.8 L 608.151 227.8 L 608.151 227.8 Q 602.609 227.8 599.325 223.824 L 599.325 223.824 L 599.325 223.824 Q 596.042 219.848 596.042 212.498 L 596.042 212.498 L 596.042 212.498 Q 596.042 208.943 597.096 206.082 L 597.096 206.082 L 597.096 206.082 Q 598.151 203.22 599.898 201.232 L 599.898 201.232 L 599.898 201.232 Q 601.645 199.244 603.934 198.159 L 603.934 198.159 L 603.934 198.159 Q 606.223 197.075 608.754 197.075 L 608.754 197.075 L 608.754 197.075 Q 611.284 197.075 613.152 197.979 L 613.152 197.979 L 613.152 197.979 Q 615.019 198.882 616.947 200.449 L 616.947 200.449 L 616.706 195.448 L 616.706 184.182 L 621.706 184.182 L 621.706 227.077 L 617.61 227.077 L 617.188 223.643 L 617.007 223.643 L 617.007 223.643 Q 615.26 225.33 613.001 226.565 L 613.001 226.565 L 613.001 226.565 Q 610.742 227.8 608.151 227.8 Z  M 609.236 223.643 L 609.236 223.643 L 609.236 223.643 Q 611.284 223.643 613.091 222.649 L 613.091 222.649 L 613.091 222.649 Q 614.899 221.655 616.706 219.607 L 616.706 219.607 L 616.706 204.304 L 616.706 204.304 Q 614.839 202.617 613.122 201.925 L 613.122 201.925 L 613.122 201.925 Q 611.405 201.232 609.597 201.232 L 609.597 201.232 L 609.597 201.232 Q 607.85 201.232 606.314 202.045 L 606.314 202.045 L 606.314 202.045 Q 604.778 202.858 603.633 204.334 L 603.633 204.334 L 603.633 204.334 Q 602.488 205.81 601.826 207.859 L 601.826 207.859 L 601.826 207.859 Q 601.163 209.907 601.163 212.437 L 601.163 212.437 L 601.163 212.437 Q 601.163 217.739 603.271 220.691 L 603.271 220.691 L 603.271 220.691 Q 605.38 223.643 609.236 223.643 Z " fill-rule="evenodd" fill="rgb(255,255,255)"/><path d=" M 161.096 0.001 L 130.872 52.352 L 100.647 0.001 L 52.346 0.001 L 130.872 136.011 L 209.398 0.001 L 161.096 0.001 Z " fill="rgb(52,73,94)"/><path d=" M 34.621 47.899 L 28.971 38.112 L 57.29 21.762 L 62.515 30.812 L 62.515 30.812 Q 63.79 33.021 64.485 35.074 L 64.485 35.074 L 64.485 35.074 Q 65.179 37.126 65.166 38.953 L 65.166 38.953 L 65.166 38.953 Q 65.152 40.779 64.247 42.312 L 64.247 42.312 L 64.247 42.312 Q 63.342 43.845 61.394 44.97 L 61.394 44.97 L 61.394 44.97 Q 59.359 46.145 57.027 46.106 L 57.027 46.106 L 57.027 46.106 Q 54.695 46.066 52.97 44.58 L 52.97 44.58 L 52.797 44.68 L 52.797 44.68 Q 53.627 47.318 52.848 49.817 L 52.848 49.817 L 52.848 49.817 Q 52.068 52.317 49.21 53.967 L 49.21 53.967 L 49.21 53.967 Q 47.088 55.192 45.055 55.269 L 45.055 55.269 L 45.055 55.269 Q 43.021 55.347 41.144 54.496 L 41.144 54.496 L 41.144 54.496 Q 39.267 53.646 37.619 51.941 L 37.619 51.941 L 37.619 51.941 Q 35.971 50.237 34.621 47.899 L 34.621 47.899 L 34.621 47.899 Z  M 56.293 29.035 L 48.499 33.535 L 50.574 37.129 L 50.574 37.129 Q 52.299 40.117 54.144 40.813 L 54.144 40.813 L 54.144 40.813 Q 55.989 41.509 57.808 40.459 L 57.808 40.459 L 57.808 40.459 Q 59.886 39.259 59.952 37.373 L 59.952 37.373 L 59.952 37.373 Q 60.018 35.487 58.418 32.716 L 58.418 32.716 L 56.293 29.035 L 56.293 29.035 Z  M 44.732 35.71 L 35.768 40.885 L 38.218 45.129 L 38.218 45.129 Q 40.018 48.247 42.141 49.273 L 42.141 49.273 L 42.141 49.273 Q 44.263 50.299 46.645 48.924 L 46.645 48.924 L 46.645 48.924 Q 48.897 47.624 48.964 45.391 L 48.964 45.391 L 48.964 45.391 Q 49.032 43.158 47.182 39.954 L 47.182 39.954 L 44.732 35.71 L 44.732 35.71 Z  M 49.727 75.262 L 49.727 75.262 L 49.727 75.262 Q 48.127 72.491 47.819 69.608 L 47.819 69.608 L 47.819 69.608 Q 47.512 66.726 48.489 63.968 L 48.489 63.968 L 48.489 63.968 Q 49.466 61.21 51.669 58.725 L 51.669 58.725 L 51.669 58.725 Q 53.872 56.241 57.336 54.241 L 57.336 54.241 L 57.336 54.241 Q 60.757 52.266 63.988 51.613 L 63.988 51.613 L 63.988 51.613 Q 67.219 50.96 70.031 51.53 L 70.031 51.53 L 70.031 51.53 Q 72.843 52.101 75.164 53.821 L 75.164 53.821 L 75.164 53.821 Q 77.485 55.541 79.085 58.312 L 79.085 58.312 L 79.085 58.312 Q 80.685 61.083 81.014 63.953 L 81.014 63.953 L 81.014 63.953 Q 81.343 66.823 80.444 69.565 L 80.444 69.565 L 80.444 69.565 Q 79.544 72.307 77.363 74.779 L 77.363 74.779 L 77.363 74.779 Q 75.182 77.251 71.761 79.226 L 71.761 79.226 L 71.761 79.226 Q 68.297 81.226 65.044 81.892 L 65.044 81.892 L 65.044 81.892 Q 61.791 82.557 58.901 82.003 L 58.901 82.003 L 58.901 82.003 Q 56.012 81.448 53.669 79.741 L 53.669 79.741 L 53.669 79.741 Q 51.327 78.033 49.727 75.262 Z  M 54.1 72.737 L 54.1 72.737 L 54.1 72.737 Q 55.075 74.426 56.586 75.343 L 56.586 75.343 L 56.586 75.343 Q 58.097 76.26 60.011 76.425 L 60.011 76.425 L 60.011 76.425 Q 61.925 76.591 64.152 75.998 L 64.152 75.998 L 64.152 75.998 Q 66.379 75.405 68.761 74.03 L 68.761 74.03 L 68.761 74.03 Q 73.524 71.28 75.093 67.747 L 75.093 67.747 L 75.093 67.747 Q 76.662 64.214 74.712 60.837 L 74.712 60.837 L 74.712 60.837 Q 72.762 57.459 68.918 57.052 L 68.918 57.052 L 68.918 57.052 Q 65.074 56.644 60.311 59.394 L 60.311 59.394 L 60.311 59.394 Q 57.929 60.769 56.302 62.401 L 56.302 62.401 L 56.302 62.401 Q 54.675 64.033 53.861 65.773 L 53.861 65.773 L 53.861 65.773 Q 53.047 67.513 53.086 69.281 L 53.086 69.281 L 53.086 69.281 Q 53.125 71.048 54.1 72.737 Z  M 70.446 109.949 L 60.746 93.148 L 89.065 76.798 L 91.965 81.821 L 67.89 95.721 L 74.69 107.499 L 70.446 109.949 L 70.446 109.949 Z  M 76.196 119.909 L 73.296 114.886 L 101.615 98.536 L 104.515 103.559 L 76.196 119.909 L 76.196 119.909 Z  M 86.696 138.095 L 83.271 132.163 L 106.49 106.979 L 109.565 112.305 L 97.619 124.514 L 97.619 124.514 Q 95.594 126.607 93.742 128.398 L 93.742 128.398 L 93.742 128.398 Q 91.889 130.189 89.846 132.351 L 89.846 132.351 L 89.946 132.524 L 89.946 132.524 Q 92.839 131.835 95.317 131.126 L 95.317 131.126 L 95.317 131.126 Q 97.794 130.417 100.594 129.667 L 100.594 129.667 L 117.115 125.382 L 120.09 130.535 L 86.696 138.095 L 86.696 138.095 Z  M 96.646 155.329 L 93.746 150.306 L 122.065 133.956 L 124.965 138.979 L 96.646 155.329 L 96.646 155.329 Z  M 119.215 159.619 L 119.215 159.619 L 115.176 160.623 L 119.351 167.855 L 122.24 164.859 L 122.24 164.859 Q 124.092 162.866 126.111 160.863 L 126.111 160.863 L 126.111 160.863 Q 128.13 158.86 130.118 156.904 L 130.118 156.904 L 130.018 156.731 L 130.018 156.731 Q 127.287 157.5 124.577 158.256 L 124.577 158.256 L 124.577 158.256 Q 121.867 159.012 119.215 159.619 Z  M 101.621 163.946 L 98.671 158.836 L 132.315 151.71 L 135.715 157.599 L 112.721 183.172 L 109.671 177.889 L 116.061 171.256 L 110.561 161.729 L 101.621 163.946 L 101.621 163.946 Z " fill="rgb(255,255,255)"/></g></svg>