<?xml version="1.0" encoding="UTF-8" standalone="no"?><!-- Generator: Gravit.io --><svg xmlns="http://www.w3.org/2000/svg" xmlns:xlink="http://www.w3.org/1999/xlink" style="isolation:isolate" viewBox="-0.005 -0.09 1104.476 240.114" width="1104.476pt" height="240.114pt"><g><g><path d=" M 161.096 0.001 L 130.872 52.352 L 100.647 0.001 L -0.005 0.001 L 130.872 226.689 L 261.749 0.001 L 161.096 0.001 Z " fill="rgb(65,184,131)"/></g><path d=" M 161.096 0.001 L 130.872 52.352 L 100.647 0.001 L 52.346 0.001 L 130.872 136.011 L 209.398 0.001 L 161.096 0.001 Z " fill="rgb(52,73,94)"/><path d=" M 588.529 154.74 L 588.529 154.74 L 588.529 154.74 Q 588.529 152.655 589.812 151.293 L 589.812 151.293 L 589.812 151.293 Q 591.094 149.93 593.018 149.93 L 593.018 149.93 L 593.018 149.93 Q 600.072 149.93 602.316 144.72 L 602.316 144.72 L 602.316 144.72 Q 604.561 139.51 604.561 129.089 L 604.561 129.089 L 604.561 50.213 L 604.561 50.213 Q 604.561 48.45 606.004 47.408 L 606.004 47.408 L 606.004 47.408 Q 607.446 46.366 609.691 46.366 L 609.691 46.366 L 609.691 46.366 Q 611.935 46.366 613.458 47.488 L 613.458 47.488 L 613.458 47.488 Q 614.981 48.61 614.981 50.213 L 614.981 50.213 L 614.981 129.089 L 614.981 129.089 Q 614.981 159.389 593.819 159.389 L 593.819 159.389 L 593.819 159.389 Q 591.094 159.389 589.812 158.026 L 589.812 158.026 L 589.812 158.026 Q 588.529 156.663 588.529 154.74 Z  M 604.561 21.918 L 604.561 21.918 L 604.561 21.918 Q 602.477 19.914 602.477 17.188 L 602.477 17.188 L 602.477 17.188 Q 602.477 14.463 604.561 12.539 L 604.561 12.539 L 604.561 12.539 Q 606.645 10.615 609.691 10.615 L 609.691 10.615 L 609.691 10.615 Q 612.576 10.615 614.58 12.539 L 614.58 12.539 L 614.58 12.539 Q 616.584 14.463 616.584 17.188 L 616.584 17.188 L 616.584 17.188 Q 616.584 19.914 614.58 21.918 L 614.58 21.918 L 614.58 21.918 Q 612.576 23.922 609.691 23.922 L 609.691 23.922 L 609.691 23.922 Q 606.645 23.922 604.561 21.918 Z  M 630.372 111.775 L 630.372 111.775 L 630.372 111.775 Q 630.372 110.172 631.494 108.569 L 631.494 108.569 L 631.494 108.569 Q 632.616 106.965 634.059 106.965 L 634.059 106.965 L 634.059 106.965 Q 635.181 106.965 637.586 108.809 L 637.586 108.809 L 637.586 108.809 Q 639.99 110.653 644.479 112.576 L 644.479 112.576 L 644.479 112.576 Q 648.968 114.5 655.221 114.5 L 655.221 114.5 L 655.221 114.5 Q 663.717 114.5 667.725 111.294 L 667.725 111.294 L 667.725 111.294 Q 671.733 108.088 671.733 103.118 L 671.733 103.118 L 671.733 103.118 Q 671.733 97.346 667.645 93.9 L 667.645 93.9 L 667.645 93.9 Q 663.557 90.453 657.827 88.714 L 657.827 88.714 L 657.827 88.714 Q 652.096 86.975 646.204 85.187 L 646.204 85.187 L 646.204 85.187 Q 640.311 83.399 636.223 78.99 L 636.223 78.99 L 636.223 78.99 Q 632.135 74.582 632.135 67.207 L 632.135 67.207 L 632.135 67.207 Q 632.135 58.39 638.468 51.897 L 638.468 51.897 L 638.468 51.897 Q 644.8 45.404 657.465 45.404 L 657.465 45.404 L 657.465 45.404 Q 665.32 45.404 672.134 47.889 L 672.134 47.889 L 672.134 47.889 Q 678.947 50.374 678.947 53.259 L 678.947 53.259 L 678.947 53.259 Q 678.947 54.863 677.665 56.786 L 677.665 56.786 L 677.665 56.786 Q 676.382 58.71 674.619 58.71 L 674.619 58.71 L 674.619 58.71 Q 674.138 58.71 668.687 56.466 L 668.687 56.466 L 668.687 56.466 Q 663.236 54.221 657.625 54.221 L 657.625 54.221 L 657.625 54.221 Q 649.609 54.221 645.602 58.069 L 645.602 58.069 L 645.602 58.069 Q 641.594 61.917 641.594 66.726 L 641.594 66.726 L 641.594 66.726 Q 641.594 71.696 645.682 74.582 L 645.682 74.582 L 645.682 74.582 Q 649.77 77.467 655.555 79.211 L 655.555 79.211 L 655.555 79.211 Q 661.34 80.954 667.258 82.738 L 667.258 82.738 L 667.258 82.738 Q 673.176 84.521 677.264 89.571 L 677.264 89.571 L 677.264 89.571 Q 681.352 94.621 681.352 102.637 L 681.352 102.637 L 681.352 102.637 Q 681.352 112.256 674.539 117.787 L 674.539 117.787 L 674.539 117.787 Q 667.725 123.318 655.541 123.318 L 655.541 123.318 L 655.541 123.318 Q 644.96 123.318 637.666 119.55 L 637.666 119.55 L 637.666 119.55 Q 630.372 115.783 630.372 111.775 Z  M 337.153 9.493 L 337.153 9.493 L 337.153 9.493 Q 337.153 7.569 339.077 6.287 L 339.077 6.287 L 339.077 6.287 Q 341.001 5.004 343.245 5.004 L 343.245 5.004 L 343.245 5.004 Q 346.772 5.004 347.414 7.73 L 347.414 7.73 L 377.072 106.164 L 406.57 7.73 L 406.57 7.73 Q 407.532 5.004 410.578 5.004 L 410.578 5.004 L 410.578 5.004 Q 412.823 5.004 414.907 6.367 L 414.907 6.367 L 414.907 6.367 Q 416.991 7.73 416.991 9.654 L 416.991 9.654 L 416.991 9.654 Q 416.991 9.814 416.911 10.134 L 416.911 10.134 L 416.911 10.134 Q 416.83 10.455 416.83 10.615 L 416.83 10.615 L 383.485 119.31 L 383.485 119.31 Q 382.363 123.157 377.072 123.157 L 377.072 123.157 L 377.072 123.157 Q 371.942 123.157 370.82 119.31 L 370.82 119.31 L 337.314 10.615 L 337.314 10.615 Q 337.153 10.295 337.153 9.493 Z  M 423.403 93.178 L 423.403 93.178 L 423.403 50.374 L 423.403 50.374 Q 423.403 48.931 424.926 47.648 L 424.926 47.648 L 424.926 47.648 Q 426.449 46.366 428.694 46.366 L 428.694 46.366 L 428.694 46.366 Q 430.618 46.366 432.221 47.648 L 432.221 47.648 L 432.221 47.648 Q 433.824 48.931 433.824 50.374 L 433.824 50.374 L 433.824 93.178 L 433.824 93.178 Q 433.824 101.194 439.756 107.446 L 439.756 107.446 L 439.756 107.446 Q 445.687 113.699 453.864 113.699 L 453.864 113.699 L 453.864 113.699 Q 462.04 113.699 467.971 107.446 L 467.971 107.446 L 467.971 107.446 Q 473.903 101.194 473.903 93.178 L 473.903 93.178 L 473.903 50.213 L 473.903 50.213 Q 473.903 48.61 475.506 47.488 L 475.506 47.488 L 475.506 47.488 Q 477.109 46.366 479.193 46.366 L 479.193 46.366 L 479.193 46.366 Q 481.278 46.366 482.801 47.488 L 482.801 47.488 L 482.801 47.488 Q 484.324 48.61 484.324 50.213 L 484.324 50.213 L 484.324 93.178 L 484.324 93.178 Q 484.324 105.202 475.266 114.26 L 475.266 114.26 L 475.266 114.26 Q 466.208 123.318 453.864 123.318 L 453.864 123.318 L 453.864 123.318 Q 441.359 123.318 432.381 114.26 L 432.381 114.26 L 432.381 114.26 Q 423.403 105.202 423.403 93.178 Z  M 500.836 92.858 L 500.836 92.858 L 500.836 74.902 L 500.836 74.902 Q 500.836 62.878 509.814 54.141 L 509.814 54.141 L 509.814 54.141 Q 518.792 45.404 531.457 45.404 L 531.457 45.404 L 531.457 45.404 Q 543.641 45.404 552.538 53.74 L 552.538 53.74 L 552.538 53.74 Q 561.436 62.077 561.436 74.582 L 561.436 74.582 L 561.436 74.582 Q 561.436 79.07 560.394 81.796 L 560.394 81.796 L 560.394 81.796 Q 559.352 84.521 557.027 85.643 L 557.027 85.643 L 557.027 85.643 Q 554.702 86.766 552.779 87.086 L 552.779 87.086 L 552.779 87.086 Q 550.855 87.407 547.488 87.407 L 547.488 87.407 L 511.257 87.407 L 511.257 93.339 L 511.257 93.339 Q 511.257 102.797 518.07 108.488 L 518.07 108.488 L 518.07 108.488 Q 524.884 114.18 535.625 114.18 L 535.625 114.18 L 535.625 114.18 Q 541.075 114.18 545.164 112.576 L 545.164 112.576 L 545.164 112.576 Q 549.252 110.973 551.416 109.37 L 551.416 109.37 L 551.416 109.37 Q 553.58 107.767 554.863 107.767 L 554.863 107.767 L 554.863 107.767 Q 556.626 107.767 557.989 109.45 L 557.989 109.45 L 557.989 109.45 Q 559.352 111.134 559.352 112.737 L 559.352 112.737 L 559.352 112.737 Q 559.352 116.103 552.458 119.711 L 552.458 119.711 L 552.458 119.711 Q 545.564 123.318 535.304 123.318 L 535.304 123.318 L 535.304 123.318 Q 520.074 123.318 510.455 114.901 L 510.455 114.901 L 510.455 114.901 Q 500.836 106.484 500.836 92.858 Z  M 511.257 73.62 L 511.257 79.712 L 543.32 79.712 L 543.32 79.712 Q 548.129 79.712 549.733 78.67 L 549.733 78.67 L 549.733 78.67 Q 551.336 77.628 551.336 74.261 L 551.336 74.261 L 551.336 74.261 Q 551.336 66.245 545.645 60.153 L 545.645 60.153 L 545.645 60.153 Q 539.953 54.061 531.296 54.061 L 531.296 54.061 L 531.296 54.061 Q 522.96 54.061 517.108 59.832 L 517.108 59.832 L 517.108 59.832 Q 511.257 65.604 511.257 73.62 L 511.257 73.62 Z  M 573.459 115.783 L 573.459 115.783 L 573.459 115.783 Q 573.459 112.576 575.543 110.412 L 575.543 110.412 L 575.543 110.412 Q 577.628 108.248 580.834 108.248 L 580.834 108.248 L 580.834 108.248 Q 583.72 108.248 585.884 110.492 L 585.884 110.492 L 585.884 110.492 Q 588.048 112.737 588.048 115.783 L 588.048 115.783 L 588.048 115.783 Q 588.048 118.668 585.884 120.913 L 585.884 120.913 L 585.884 120.913 Q 583.72 123.157 580.834 123.157 L 580.834 123.157 L 580.834 123.157 Q 577.628 123.157 575.543 120.993 L 575.543 120.993 L 575.543 120.993 Q 573.459 118.829 573.459 115.783 Z  M 1068.204 240.024 L 1068.204 240.024 L 1068.204 240.024 Q 1066.817 240.024 1065.733 239.783 L 1065.733 239.783 L 1065.733 239.783 Q 1064.648 239.542 1063.865 239.241 L 1063.865 239.241 L 1064.889 235.506 L 1064.889 235.506 Q 1065.433 235.686 1066.155 235.837 L 1066.155 235.837 L 1066.155 235.837 Q 1066.878 235.988 1067.662 235.988 L 1067.662 235.988 L 1067.662 235.988 Q 1069.83 235.988 1070.553 234.482 L 1070.553 234.482 L 1070.553 234.482 Q 1071.275 232.975 1071.275 230.264 L 1071.275 230.264 L 1071.275 197.672 L 1076.216 197.672 L 1076.216 230.264 L 1076.216 230.264 Q 1076.216 234.723 1074.408 237.373 L 1074.408 237.373 L 1074.408 237.373 Q 1072.601 240.024 1068.204 240.024 Z  M 1073.806 191.647 L 1073.806 191.647 L 1073.806 191.647 Q 1072.36 191.647 1071.366 190.744 L 1071.366 190.744 L 1071.366 190.744 Q 1070.372 189.84 1070.372 188.454 L 1070.372 188.454 L 1070.372 188.454 Q 1070.372 187.008 1071.366 186.135 L 1071.366 186.135 L 1071.366 186.135 Q 1072.36 185.261 1073.806 185.261 L 1073.806 185.261 L 1073.806 185.261 Q 1075.191 185.261 1076.185 186.135 L 1076.185 186.135 L 1076.185 186.135 Q 1077.179 187.008 1077.179 188.454 L 1077.179 188.454 L 1077.179 188.454 Q 1077.179 189.84 1076.185 190.744 L 1076.185 190.744 L 1076.185 190.744 Q 1075.191 191.647 1073.806 191.647 Z  M 1093.747 227.674 L 1093.747 227.674 L 1093.747 227.674 Q 1090.615 227.674 1087.783 226.529 L 1087.783 226.529 L 1087.783 226.529 Q 1084.951 225.385 1082.843 223.637 L 1082.843 223.637 L 1085.313 220.324 L 1085.313 220.324 Q 1087.24 221.89 1089.259 222.854 L 1089.259 222.854 L 1089.259 222.854 Q 1091.277 223.818 1093.928 223.818 L 1093.928 223.818 L 1093.928 223.818 Q 1096.819 223.818 1098.265 222.493 L 1098.265 222.493 L 1098.265 222.493 Q 1099.711 221.167 1099.711 219.24 L 1099.711 219.24 L 1099.711 219.24 Q 1099.711 218.095 1099.11 217.251 L 1099.11 217.251 L 1099.11 217.251 Q 1098.506 216.408 1097.572 215.775 L 1097.572 215.775 L 1097.572 215.775 Q 1096.639 215.143 1095.434 214.661 L 1095.434 214.661 L 1095.434 214.661 Q 1094.23 214.179 1093.024 213.697 L 1093.024 213.697 L 1093.024 213.697 Q 1091.459 213.155 1089.891 212.462 L 1089.891 212.462 L 1089.891 212.462 Q 1088.325 211.769 1087.09 210.775 L 1087.09 210.775 L 1087.09 210.775 Q 1085.855 209.781 1085.072 208.456 L 1085.072 208.456 L 1085.072 208.456 Q 1084.288 207.13 1084.288 205.263 L 1084.288 205.263 L 1084.288 205.263 Q 1084.288 203.516 1084.981 201.979 L 1084.981 201.979 L 1084.981 201.979 Q 1085.674 200.443 1086.969 199.329 L 1086.969 199.329 L 1086.969 199.329 Q 1088.265 198.214 1090.132 197.581 L 1090.132 197.581 L 1090.132 197.581 Q 1092.001 196.949 1094.35 196.949 L 1094.35 196.949 L 1094.35 196.949 Q 1097.121 196.949 1099.44 197.913 L 1099.44 197.913 L 1099.44 197.913 Q 1101.759 198.877 1103.446 200.262 L 1103.446 200.262 L 1101.097 203.395 L 1101.097 203.395 Q 1099.591 202.25 1097.964 201.528 L 1097.964 201.528 L 1097.964 201.528 Q 1096.337 200.805 1094.41 200.805 L 1094.41 200.805 L 1094.41 200.805 Q 1091.638 200.805 1090.343 202.07 L 1090.343 202.07 L 1090.343 202.07 Q 1089.048 203.335 1089.048 205.022 L 1089.048 205.022 L 1089.048 205.022 Q 1089.048 206.046 1089.59 206.799 L 1089.59 206.799 L 1089.59 206.799 Q 1090.132 207.552 1091.037 208.124 L 1091.037 208.124 L 1091.037 208.124 Q 1091.94 208.697 1093.115 209.149 L 1093.115 209.149 L 1093.115 209.149 Q 1094.289 209.6 1095.554 210.082 L 1095.554 210.082 L 1095.554 210.082 Q 1097.121 210.685 1098.717 211.347 L 1098.717 211.347 L 1098.717 211.347 Q 1100.314 212.01 1101.579 213.004 L 1101.579 213.004 L 1101.579 213.004 Q 1102.844 213.998 1103.657 215.444 L 1103.657 215.444 L 1103.657 215.444 Q 1104.471 216.89 1104.471 218.938 L 1104.471 218.938 L 1104.471 218.938 Q 1104.471 220.746 1103.778 222.312 L 1103.778 222.312 L 1103.778 222.312 Q 1103.085 223.878 1101.73 225.083 L 1101.73 225.083 L 1101.73 225.083 Q 1100.374 226.288 1098.356 226.981 L 1098.356 226.981 L 1098.356 226.981 Q 1096.337 227.674 1093.747 227.674 Z  M 977.896 226.951 L 972.053 226.951 L 959.4 187.43 L 964.762 187.43 L 971.089 208.757 L 971.089 208.757 Q 972.172 212.311 972.986 215.324 L 972.986 215.324 L 972.986 215.324 Q 973.799 218.336 974.944 221.83 L 974.944 221.83 L 975.185 221.83 L 975.185 221.83 Q 976.269 218.336 977.112 215.324 L 977.112 215.324 L 977.112 215.324 Q 977.956 212.311 978.98 208.757 L 978.98 208.757 L 985.306 187.43 L 990.428 187.43 L 977.896 226.951 Z  M 1002.115 227.674 L 1002.115 227.674 L 1002.115 227.674 Q 997.415 227.674 995.277 224.782 L 995.277 224.782 L 995.277 224.782 Q 993.138 221.89 993.138 216.227 L 993.138 216.227 L 993.138 197.672 L 998.138 197.672 L 998.138 215.565 L 998.138 215.565 Q 998.138 219.722 999.433 221.559 L 999.433 221.559 L 999.433 221.559 Q 1000.728 223.396 1003.62 223.396 L 1003.62 223.396 L 1003.62 223.396 Q 1005.909 223.396 1007.657 222.222 L 1007.657 222.222 L 1007.657 222.222 Q 1009.404 221.047 1011.512 218.456 L 1011.512 218.456 L 1011.512 197.672 L 1016.452 197.672 L 1016.452 226.951 L 1012.356 226.951 L 1011.934 222.372 L 1011.753 222.372 L 1011.753 222.372 Q 1009.705 224.782 1007.446 226.228 L 1007.446 226.228 L 1007.446 226.228 Q 1005.188 227.674 1002.115 227.674 Z  M 1038.201 227.674 L 1038.201 227.674 L 1038.201 227.674 Q 1035.249 227.674 1032.688 226.62 L 1032.688 226.62 L 1032.688 226.62 Q 1030.128 225.565 1028.23 223.607 L 1028.23 223.607 L 1028.23 223.607 Q 1026.334 221.649 1025.248 218.818 L 1025.248 218.818 L 1025.248 218.818 Q 1024.164 215.986 1024.164 212.372 L 1024.164 212.372 L 1024.164 212.372 Q 1024.164 208.757 1025.278 205.895 L 1025.278 205.895 L 1025.278 205.895 Q 1026.393 203.034 1028.23 201.046 L 1028.23 201.046 L 1028.23 201.046 Q 1030.068 199.057 1032.417 198.003 L 1032.417 198.003 L 1032.417 198.003 Q 1034.767 196.949 1037.297 196.949 L 1037.297 196.949 L 1037.297 196.949 Q 1040.069 196.949 1042.267 197.913 L 1042.267 197.913 L 1042.267 197.913 Q 1044.466 198.877 1045.942 200.684 L 1045.942 200.684 L 1045.942 200.684 Q 1047.418 202.491 1048.202 205.022 L 1048.202 205.022 L 1048.202 205.022 Q 1048.985 207.552 1048.985 210.685 L 1048.985 210.685 L 1048.985 210.685 Q 1048.985 211.468 1048.955 212.221 L 1048.955 212.221 L 1048.955 212.221 Q 1048.925 212.974 1048.804 213.516 L 1048.804 213.516 L 1029.044 213.516 L 1029.044 213.516 Q 1029.345 218.215 1031.965 220.957 L 1031.965 220.957 L 1031.965 220.957 Q 1034.586 223.698 1038.803 223.698 L 1038.803 223.698 L 1038.803 223.698 Q 1040.912 223.698 1042.689 223.065 L 1042.689 223.065 L 1042.689 223.065 Q 1044.466 222.433 1046.093 221.408 L 1046.093 221.408 L 1047.84 224.662 L 1047.84 224.662 Q 1045.912 225.867 1043.563 226.77 L 1043.563 226.77 L 1043.563 226.77 Q 1041.214 227.674 1038.201 227.674 Z  M 1028.983 209.962 L 1028.983 209.962 L 1044.647 209.962 L 1044.647 209.962 Q 1044.647 205.504 1042.749 203.184 L 1042.749 203.184 L 1042.749 203.184 Q 1040.852 200.865 1037.418 200.865 L 1037.418 200.865 L 1037.418 200.865 Q 1035.851 200.865 1034.436 201.467 L 1034.436 201.467 L 1034.436 201.467 Q 1033.02 202.07 1031.876 203.244 L 1031.876 203.244 L 1031.876 203.244 Q 1030.731 204.419 1029.977 206.106 L 1029.977 206.106 L 1029.977 206.106 Q 1029.225 207.793 1028.983 209.962 Z  M 1058.805 227.674 L 1058.805 227.674 L 1058.805 227.674 Q 1057.299 227.674 1056.244 226.62 L 1056.244 226.62 L 1056.244 226.62 Q 1055.19 225.565 1055.19 223.939 L 1055.19 223.939 L 1055.19 223.939 Q 1055.19 222.192 1056.244 221.137 L 1056.244 221.137 L 1056.244 221.137 Q 1057.299 220.083 1058.805 220.083 L 1058.805 220.083 L 1058.805 220.083 Q 1060.251 220.083 1061.305 221.137 L 1061.305 221.137 L 1061.305 221.137 Q 1062.36 222.192 1062.36 223.939 L 1062.36 223.939 L 1062.36 223.939 Q 1062.36 225.565 1061.305 226.62 L 1061.305 226.62 L 1061.305 226.62 Q 1060.251 227.674 1058.805 227.674 Z  M 898.974 227.674 L 898.974 227.674 L 898.974 227.674 Q 893.432 227.674 890.149 223.698 L 890.149 223.698 L 890.149 223.698 Q 886.865 219.722 886.865 212.372 L 886.865 212.372 L 886.865 212.372 Q 886.865 208.817 887.919 205.956 L 887.919 205.956 L 887.919 205.956 Q 888.974 203.094 890.721 201.106 L 890.721 201.106 L 890.721 201.106 Q 892.468 199.118 894.757 198.033 L 894.757 198.033 L 894.757 198.033 Q 897.047 196.949 899.577 196.949 L 899.577 196.949 L 899.577 196.949 Q 902.107 196.949 903.975 197.853 L 903.975 197.853 L 903.975 197.853 Q 905.842 198.756 907.77 200.323 L 907.77 200.323 L 907.529 195.322 L 907.529 184.056 L 912.53 184.056 L 912.53 226.951 L 908.433 226.951 L 908.011 223.517 L 907.831 223.517 L 907.831 223.517 Q 906.083 225.204 903.824 226.439 L 903.824 226.439 L 903.824 226.439 Q 901.565 227.674 898.974 227.674 Z  M 900.059 223.517 L 900.059 223.517 L 900.059 223.517 Q 902.107 223.517 903.915 222.523 L 903.915 222.523 L 903.915 222.523 Q 905.722 221.529 907.529 219.481 L 907.529 219.481 L 907.529 204.178 L 907.529 204.178 Q 905.662 202.491 903.945 201.799 L 903.945 201.799 L 903.945 201.799 Q 902.228 201.106 900.42 201.106 L 900.42 201.106 L 900.42 201.106 Q 898.673 201.106 897.137 201.919 L 897.137 201.919 L 897.137 201.919 Q 895.601 202.732 894.456 204.208 L 894.456 204.208 L 894.456 204.208 Q 893.311 205.684 892.649 207.733 L 892.649 207.733 L 892.649 207.733 Q 891.986 209.781 891.986 212.311 L 891.986 212.311 L 891.986 212.311 Q 891.986 217.613 894.095 220.565 L 894.095 220.565 L 894.095 220.565 Q 896.203 223.517 900.059 223.517 Z  M 934.278 227.674 L 934.278 227.674 L 934.278 227.674 Q 931.326 227.674 928.766 226.62 L 928.766 226.62 L 928.766 226.62 Q 926.205 225.565 924.307 223.607 L 924.307 223.607 L 924.307 223.607 Q 922.41 221.649 921.325 218.818 L 921.325 218.818 L 921.325 218.818 Q 920.241 215.986 920.241 212.372 L 920.241 212.372 L 920.241 212.372 Q 920.241 208.757 921.356 205.895 L 921.356 205.895 L 921.356 205.895 Q 922.47 203.034 924.307 201.046 L 924.307 201.046 L 924.307 201.046 Q 926.145 199.057 928.495 198.003 L 928.495 198.003 L 928.495 198.003 Q 930.844 196.949 933.374 196.949 L 933.374 196.949 L 933.374 196.949 Q 936.146 196.949 938.345 197.913 L 938.345 197.913 L 938.345 197.913 Q 940.544 198.877 942.02 200.684 L 942.02 200.684 L 942.02 200.684 Q 943.496 202.491 944.279 205.022 L 944.279 205.022 L 944.279 205.022 Q 945.063 207.552 945.063 210.685 L 945.063 210.685 L 945.063 210.685 Q 945.063 211.468 945.032 212.221 L 945.032 212.221 L 945.032 212.221 Q 945.002 212.974 944.881 213.516 L 944.881 213.516 L 925.121 213.516 L 925.121 213.516 Q 925.422 218.215 928.043 220.957 L 928.043 220.957 L 928.043 220.957 Q 930.663 223.698 934.881 223.698 L 934.881 223.698 L 934.881 223.698 Q 936.989 223.698 938.766 223.065 L 938.766 223.065 L 938.766 223.065 Q 940.544 222.433 942.17 221.408 L 942.17 221.408 L 943.917 224.662 L 943.917 224.662 Q 941.99 225.867 939.64 226.77 L 939.64 226.77 L 939.64 226.77 Q 937.29 227.674 934.278 227.674 Z  M 925.061 209.962 L 925.061 209.962 L 940.725 209.962 L 940.725 209.962 Q 940.725 205.504 938.827 203.184 L 938.827 203.184 L 938.827 203.184 Q 936.929 200.865 933.495 200.865 L 933.495 200.865 L 933.495 200.865 Q 931.928 200.865 930.513 201.467 L 930.513 201.467 L 930.513 201.467 Q 929.097 202.07 927.952 203.244 L 927.952 203.244 L 927.952 203.244 Q 926.808 204.419 926.055 206.106 L 926.055 206.106 L 926.055 206.106 Q 925.302 207.793 925.061 209.962 Z  M 657.09 227.674 L 657.09 227.674 L 657.09 227.674 Q 655.042 227.674 652.843 226.68 L 652.843 226.68 L 652.843 226.68 Q 650.644 225.686 648.716 223.939 L 648.716 223.939 L 648.536 223.939 L 648.114 226.951 L 644.138 226.951 L 644.138 184.056 L 649.078 184.056 L 649.078 195.744 L 648.957 201.046 L 648.957 201.046 Q 650.945 199.298 653.295 198.124 L 653.295 198.124 L 653.295 198.124 Q 655.645 196.949 658.115 196.949 L 658.115 196.949 L 658.115 196.949 Q 660.946 196.949 663.115 198.003 L 663.115 198.003 L 663.115 198.003 Q 665.284 199.057 666.76 201.015 L 666.76 201.015 L 666.76 201.015 Q 668.236 202.973 668.989 205.715 L 668.989 205.715 L 668.989 205.715 Q 669.742 208.456 669.742 211.829 L 669.742 211.829 L 669.742 211.829 Q 669.742 215.565 668.718 218.517 L 668.718 218.517 L 668.718 218.517 Q 667.693 221.469 665.946 223.517 L 665.946 223.517 L 665.946 223.517 Q 664.199 225.565 661.91 226.62 L 661.91 226.62 L 661.91 226.62 Q 659.621 227.674 657.09 227.674 Z  M 656.247 223.517 L 656.247 223.517 L 656.247 223.517 Q 658.054 223.517 659.591 222.704 L 659.591 222.704 L 659.591 222.704 Q 661.127 221.89 662.241 220.414 L 662.241 220.414 L 662.241 220.414 Q 663.356 218.938 663.988 216.77 L 663.988 216.77 L 663.988 216.77 Q 664.621 214.601 664.621 211.89 L 664.621 211.89 L 664.621 211.89 Q 664.621 209.48 664.199 207.492 L 664.199 207.492 L 664.199 207.492 Q 663.778 205.504 662.844 204.088 L 662.844 204.088 L 662.844 204.088 Q 661.91 202.672 660.434 201.889 L 660.434 201.889 L 660.434 201.889 Q 658.958 201.106 656.91 201.106 L 656.91 201.106 L 656.91 201.106 Q 653.355 201.106 649.078 205.082 L 649.078 205.082 L 649.078 220.444 L 649.078 220.444 Q 651.006 222.131 652.903 222.824 L 652.903 222.824 L 652.903 222.824 Q 654.801 223.517 656.247 223.517 Z  M 688.839 227.674 L 688.839 227.674 L 688.839 227.674 Q 686.128 227.674 683.689 226.65 L 683.689 226.65 L 683.689 226.65 Q 681.249 225.626 679.381 223.668 L 679.381 223.668 L 679.381 223.668 Q 677.513 221.71 676.399 218.848 L 676.399 218.848 L 676.399 218.848 Q 675.284 215.986 675.284 212.372 L 675.284 212.372 L 675.284 212.372 Q 675.284 208.697 676.399 205.835 L 676.399 205.835 L 676.399 205.835 Q 677.513 202.973 679.381 200.985 L 679.381 200.985 L 679.381 200.985 Q 681.249 198.997 683.689 197.973 L 683.689 197.973 L 683.689 197.973 Q 686.128 196.949 688.839 196.949 L 688.839 196.949 L 688.839 196.949 Q 691.551 196.949 693.99 197.973 L 693.99 197.973 L 693.99 197.973 Q 696.43 198.997 698.298 200.985 L 698.298 200.985 L 698.298 200.985 Q 700.166 202.973 701.28 205.835 L 701.28 205.835 L 701.28 205.835 Q 702.395 208.697 702.395 212.372 L 702.395 212.372 L 702.395 212.372 Q 702.395 215.986 701.28 218.848 L 701.28 218.848 L 701.28 218.848 Q 700.166 221.71 698.298 223.668 L 698.298 223.668 L 698.298 223.668 Q 696.43 225.626 693.99 226.65 L 693.99 226.65 L 693.99 226.65 Q 691.551 227.674 688.839 227.674 Z  M 688.839 223.577 L 688.839 223.577 L 688.839 223.577 Q 690.707 223.577 692.273 222.764 L 692.273 222.764 L 692.273 222.764 Q 693.84 221.951 694.954 220.475 L 694.954 220.475 L 694.954 220.475 Q 696.069 218.999 696.671 216.95 L 696.671 216.95 L 696.671 216.95 Q 697.274 214.902 697.274 212.372 L 697.274 212.372 L 697.274 212.372 Q 697.274 209.841 696.671 207.763 L 696.671 207.763 L 696.671 207.763 Q 696.069 205.684 694.954 204.178 L 694.954 204.178 L 694.954 204.178 Q 693.84 202.672 692.273 201.859 L 692.273 201.859 L 692.273 201.859 Q 690.707 201.046 688.839 201.046 L 688.839 201.046 L 688.839 201.046 Q 686.972 201.046 685.406 201.859 L 685.406 201.859 L 685.406 201.859 Q 683.839 202.672 682.725 204.178 L 682.725 204.178 L 682.725 204.178 Q 681.61 205.684 681.008 207.763 L 681.008 207.763 L 681.008 207.763 Q 680.405 209.841 680.405 212.372 L 680.405 212.372 L 680.405 212.372 Q 680.405 214.902 681.008 216.95 L 681.008 216.95 L 681.008 216.95 Q 681.61 218.999 682.725 220.475 L 682.725 220.475 L 682.725 220.475 Q 683.839 221.951 685.406 222.764 L 685.406 222.764 L 685.406 222.764 Q 686.972 223.577 688.839 223.577 Z  M 715.347 227.674 L 715.347 227.674 L 715.347 227.674 Q 712.516 227.674 711.311 225.987 L 711.311 225.987 L 711.311 225.987 Q 710.106 224.3 710.106 221.047 L 710.106 221.047 L 710.106 184.056 L 715.046 184.056 L 715.046 221.408 L 715.046 221.408 Q 715.046 222.613 715.468 223.095 L 715.468 223.095 L 715.468 223.095 Q 715.89 223.577 716.432 223.577 L 716.432 223.577 L 716.432 223.577 Q 716.673 223.577 716.884 223.577 L 716.884 223.577 L 716.884 223.577 Q 717.095 223.577 717.516 223.457 L 717.516 223.457 L 718.179 227.192 L 718.179 227.192 Q 717.697 227.433 717.034 227.553 L 717.034 227.553 L 717.034 227.553 Q 716.372 227.674 715.347 227.674 Z  M 730.409 226.951 L 725.469 226.951 L 725.469 197.672 L 730.409 197.672 L 730.409 226.951 Z  M 727.999 191.647 L 727.999 191.647 L 727.999 191.647 Q 726.553 191.647 725.559 190.744 L 725.559 190.744 L 725.559 190.744 Q 724.565 189.84 724.565 188.454 L 724.565 188.454 L 724.565 188.454 Q 724.565 187.008 725.559 186.135 L 725.559 186.135 L 725.559 186.135 Q 726.553 185.261 727.999 185.261 L 727.999 185.261 L 727.999 185.261 Q 729.445 185.261 730.439 186.135 L 730.439 186.135 L 730.439 186.135 Q 731.433 187.008 731.433 188.454 L 731.433 188.454 L 731.433 188.454 Q 731.433 189.84 730.439 190.744 L 730.439 190.744 L 730.439 190.744 Q 729.445 191.647 727.999 191.647 Z  M 752.398 226.951 L 746.615 226.951 L 736.072 197.672 L 741.193 197.672 L 746.735 214.299 L 746.735 214.299 Q 747.398 216.468 748.091 218.637 L 748.091 218.637 L 748.091 218.637 Q 748.783 220.806 749.446 222.915 L 749.446 222.915 L 749.687 222.915 L 749.687 222.915 Q 750.35 220.806 751.012 218.637 L 751.012 218.637 L 751.012 218.637 Q 751.675 216.468 752.338 214.299 L 752.338 214.299 L 757.88 197.672 L 762.76 197.672 L 752.398 226.951 Z  M 773.363 226.951 L 768.423 226.951 L 768.423 197.672 L 773.363 197.672 L 773.363 226.951 Z  M 770.954 191.647 L 770.954 191.647 L 770.954 191.647 Q 769.508 191.647 768.514 190.744 L 768.514 190.744 L 768.514 190.744 Q 767.52 189.84 767.52 188.454 L 767.52 188.454 L 767.52 188.454 Q 767.52 187.008 768.514 186.135 L 768.514 186.135 L 768.514 186.135 Q 769.508 185.261 770.954 185.261 L 770.954 185.261 L 770.954 185.261 Q 772.4 185.261 773.394 186.135 L 773.394 186.135 L 773.394 186.135 Q 774.388 187.008 774.388 188.454 L 774.388 188.454 L 774.388 188.454 Q 774.388 189.84 773.394 190.744 L 773.394 190.744 L 773.394 190.744 Q 772.4 191.647 770.954 191.647 Z  M 789.991 227.674 L 789.991 227.674 L 789.991 227.674 Q 786.316 227.674 783.876 225.505 L 783.876 225.505 L 783.876 225.505 Q 781.436 223.336 781.436 219.36 L 781.436 219.36 L 781.436 219.36 Q 781.436 214.54 785.714 211.98 L 785.714 211.98 L 785.714 211.98 Q 789.991 209.42 799.389 208.395 L 799.389 208.395 L 799.389 208.395 Q 799.389 207.01 799.118 205.684 L 799.118 205.684 L 799.118 205.684 Q 798.847 204.359 798.184 203.335 L 798.184 203.335 L 798.184 203.335 Q 797.522 202.311 796.347 201.678 L 796.347 201.678 L 796.347 201.678 Q 795.172 201.046 793.365 201.046 L 793.365 201.046 L 793.365 201.046 Q 790.834 201.046 788.605 202.009 L 788.605 202.009 L 788.605 202.009 Q 786.376 202.973 784.629 204.178 L 784.629 204.178 L 782.701 200.744 L 782.701 200.744 Q 784.75 199.419 787.702 198.184 L 787.702 198.184 L 787.702 198.184 Q 790.654 196.949 794.208 196.949 L 794.208 196.949 L 794.208 196.949 Q 799.57 196.949 801.98 200.232 L 801.98 200.232 L 801.98 200.232 Q 804.39 203.516 804.39 208.998 L 804.39 208.998 L 804.39 226.951 L 800.293 226.951 L 799.871 223.457 L 799.691 223.457 L 799.691 223.457 Q 797.582 225.204 795.172 226.439 L 795.172 226.439 L 795.172 226.439 Q 792.762 227.674 789.991 227.674 Z  M 791.437 223.698 L 791.437 223.698 L 791.437 223.698 Q 793.546 223.698 795.413 222.704 L 795.413 222.704 L 795.413 222.704 Q 797.281 221.71 799.389 219.782 L 799.389 219.782 L 799.389 211.649 L 799.389 211.649 Q 795.714 212.131 793.214 212.793 L 793.214 212.793 L 793.214 212.793 Q 790.714 213.456 789.178 214.36 L 789.178 214.36 L 789.178 214.36 Q 787.642 215.263 786.949 216.438 L 786.949 216.438 L 786.949 216.438 Q 786.256 217.613 786.256 218.999 L 786.256 218.999 L 786.256 218.999 Q 786.256 221.529 787.762 222.613 L 787.762 222.613 L 787.762 222.613 Q 789.268 223.698 791.437 223.698 Z  M 818.547 226.951 L 813.607 226.951 L 813.607 197.672 L 817.704 197.672 L 818.126 201.889 L 818.306 201.889 L 818.306 201.889 Q 820.415 199.78 822.734 198.365 L 822.734 198.365 L 822.734 198.365 Q 825.054 196.949 828.126 196.949 L 828.126 196.949 L 828.126 196.949 Q 832.765 196.949 834.904 199.841 L 834.904 199.841 L 834.904 199.841 Q 837.042 202.732 837.042 208.395 L 837.042 208.395 L 837.042 226.951 L 832.102 226.951 L 832.102 209.058 L 832.102 209.058 Q 832.102 204.901 830.777 203.064 L 830.777 203.064 L 830.777 203.064 Q 829.452 201.226 826.56 201.226 L 826.56 201.226 L 826.56 201.226 Q 824.27 201.226 822.523 202.371 L 822.523 202.371 L 822.523 202.371 Q 820.776 203.516 818.547 205.745 L 818.547 205.745 L 818.547 226.951 Z  M 853.309 227.674 L 853.309 227.674 L 853.309 227.674 Q 849.634 227.674 847.194 225.505 L 847.194 225.505 L 847.194 225.505 Q 844.754 223.336 844.754 219.36 L 844.754 219.36 L 844.754 219.36 Q 844.754 214.54 849.031 211.98 L 849.031 211.98 L 849.031 211.98 Q 853.309 209.42 862.707 208.395 L 862.707 208.395 L 862.707 208.395 Q 862.707 207.01 862.436 205.684 L 862.436 205.684 L 862.436 205.684 Q 862.165 204.359 861.502 203.335 L 861.502 203.335 L 861.502 203.335 Q 860.839 202.311 859.665 201.678 L 859.665 201.678 L 859.665 201.678 Q 858.49 201.046 856.682 201.046 L 856.682 201.046 L 856.682 201.046 Q 854.152 201.046 851.923 202.009 L 851.923 202.009 L 851.923 202.009 Q 849.694 202.973 847.947 204.178 L 847.947 204.178 L 846.019 200.744 L 846.019 200.744 Q 848.067 199.419 851.019 198.184 L 851.019 198.184 L 851.019 198.184 Q 853.971 196.949 857.526 196.949 L 857.526 196.949 L 857.526 196.949 Q 862.888 196.949 865.297 200.232 L 865.297 200.232 L 865.297 200.232 Q 867.707 203.516 867.707 208.998 L 867.707 208.998 L 867.707 226.951 L 863.611 226.951 L 863.189 223.457 L 863.008 223.457 L 863.008 223.457 Q 860.9 225.204 858.49 226.439 L 858.49 226.439 L 858.49 226.439 Q 856.08 227.674 853.309 227.674 Z  M 854.755 223.698 L 854.755 223.698 L 854.755 223.698 Q 856.863 223.698 858.731 222.704 L 858.731 222.704 L 858.731 222.704 Q 860.598 221.71 862.707 219.782 L 862.707 219.782 L 862.707 211.649 L 862.707 211.649 Q 859.032 212.131 856.532 212.793 L 856.532 212.793 L 856.532 212.793 Q 854.032 213.456 852.495 214.36 L 852.495 214.36 L 852.495 214.36 Q 850.959 215.263 850.266 216.438 L 850.266 216.438 L 850.266 216.438 Q 849.573 217.613 849.573 218.999 L 849.573 218.999 L 849.573 218.999 Q 849.573 221.529 851.08 222.613 L 851.08 222.613 L 851.08 222.613 Q 852.586 223.698 854.755 223.698 Z  M 352.732 227.674 L 352.732 227.674 L 352.732 227.674 Q 348.997 227.674 345.864 226.288 L 345.864 226.288 L 345.864 226.288 Q 342.731 224.903 340.412 222.282 L 340.412 222.282 L 340.412 222.282 Q 338.093 219.661 336.797 215.836 L 336.797 215.836 L 336.797 215.836 Q 335.502 212.01 335.502 207.191 L 335.502 207.191 L 335.502 207.191 Q 335.502 202.431 336.827 198.636 L 336.827 198.636 L 336.827 198.636 Q 338.153 194.84 340.502 192.19 L 340.502 192.19 L 340.502 192.19 Q 342.852 189.539 346.045 188.123 L 346.045 188.123 L 346.045 188.123 Q 349.238 186.707 353.033 186.707 L 353.033 186.707 L 353.033 186.707 Q 356.648 186.707 359.389 188.183 L 359.389 188.183 L 359.389 188.183 Q 362.13 189.659 363.877 191.587 L 363.877 191.587 L 361.166 194.84 L 361.166 194.84 Q 359.6 193.153 357.612 192.129 L 357.612 192.129 L 357.612 192.129 Q 355.624 191.105 353.094 191.105 L 353.094 191.105 L 353.094 191.105 Q 350.262 191.105 347.973 192.22 L 347.973 192.22 L 347.973 192.22 Q 345.683 193.334 344.057 195.413 L 344.057 195.413 L 344.057 195.413 Q 342.43 197.491 341.557 200.443 L 341.557 200.443 L 341.557 200.443 Q 340.683 203.395 340.683 207.07 L 340.683 207.07 L 340.683 207.07 Q 340.683 210.805 341.557 213.787 L 341.557 213.787 L 341.557 213.787 Q 342.43 216.77 343.997 218.878 L 343.997 218.878 L 343.997 218.878 Q 345.563 220.987 347.822 222.131 L 347.822 222.131 L 347.822 222.131 Q 350.081 223.276 352.913 223.276 L 352.913 223.276 L 352.913 223.276 Q 355.805 223.276 357.973 222.101 L 357.973 222.101 L 357.973 222.101 Q 360.142 220.926 362.07 218.818 L 362.07 218.818 L 364.841 221.951 L 364.841 221.951 Q 362.492 224.662 359.54 226.168 L 359.54 226.168 L 359.54 226.168 Q 356.588 227.674 352.732 227.674 Z  M 383.096 227.674 L 383.096 227.674 L 383.096 227.674 Q 380.385 227.674 377.945 226.65 L 377.945 226.65 L 377.945 226.65 Q 375.505 225.626 373.637 223.668 L 373.637 223.668 L 373.637 223.668 Q 371.77 221.71 370.655 218.848 L 370.655 218.848 L 370.655 218.848 Q 369.54 215.986 369.54 212.372 L 369.54 212.372 L 369.54 212.372 Q 369.54 208.697 370.655 205.835 L 370.655 205.835 L 370.655 205.835 Q 371.77 202.973 373.637 200.985 L 373.637 200.985 L 373.637 200.985 Q 375.505 198.997 377.945 197.973 L 377.945 197.973 L 377.945 197.973 Q 380.385 196.949 383.096 196.949 L 383.096 196.949 L 383.096 196.949 Q 385.807 196.949 388.247 197.973 L 388.247 197.973 L 388.247 197.973 Q 390.686 198.997 392.554 200.985 L 392.554 200.985 L 392.554 200.985 Q 394.422 202.973 395.536 205.835 L 395.536 205.835 L 395.536 205.835 Q 396.651 208.697 396.651 212.372 L 396.651 212.372 L 396.651 212.372 Q 396.651 215.986 395.536 218.848 L 395.536 218.848 L 395.536 218.848 Q 394.422 221.71 392.554 223.668 L 392.554 223.668 L 392.554 223.668 Q 390.686 225.626 388.247 226.65 L 388.247 226.65 L 388.247 226.65 Q 385.807 227.674 383.096 227.674 Z  M 383.096 223.577 L 383.096 223.577 L 383.096 223.577 Q 384.963 223.577 386.53 222.764 L 386.53 222.764 L 386.53 222.764 Q 388.096 221.951 389.21 220.475 L 389.21 220.475 L 389.21 220.475 Q 390.325 218.999 390.927 216.95 L 390.927 216.95 L 390.927 216.95 Q 391.53 214.902 391.53 212.372 L 391.53 212.372 L 391.53 212.372 Q 391.53 209.841 390.927 207.763 L 390.927 207.763 L 390.927 207.763 Q 390.325 205.684 389.21 204.178 L 389.21 204.178 L 389.21 204.178 Q 388.096 202.672 386.53 201.859 L 386.53 201.859 L 386.53 201.859 Q 384.963 201.046 383.096 201.046 L 383.096 201.046 L 383.096 201.046 Q 381.228 201.046 379.662 201.859 L 379.662 201.859 L 379.662 201.859 Q 378.095 202.672 376.981 204.178 L 376.981 204.178 L 376.981 204.178 Q 375.866 205.684 375.264 207.763 L 375.264 207.763 L 375.264 207.763 Q 374.661 209.841 374.661 212.372 L 374.661 212.372 L 374.661 212.372 Q 374.661 214.902 375.264 216.95 L 375.264 216.95 L 375.264 216.95 Q 375.866 218.999 376.981 220.475 L 376.981 220.475 L 376.981 220.475 Q 378.095 221.951 379.662 222.764 L 379.662 222.764 L 379.662 222.764 Q 381.228 223.577 383.096 223.577 Z  M 409.302 226.951 L 404.362 226.951 L 404.362 197.672 L 408.459 197.672 L 408.88 201.889 L 409.061 201.889 L 409.061 201.889 Q 410.989 199.78 413.248 198.365 L 413.248 198.365 L 413.248 198.365 Q 415.507 196.949 418.158 196.949 L 418.158 196.949 L 418.158 196.949 Q 421.532 196.949 423.43 198.425 L 423.43 198.425 L 423.43 198.425 Q 425.327 199.901 426.231 202.552 L 426.231 202.552 L 426.231 202.552 Q 428.52 200.021 430.84 198.485 L 430.84 198.485 L 430.84 198.485 Q 433.159 196.949 435.87 196.949 L 435.87 196.949 L 435.87 196.949 Q 440.389 196.949 442.588 199.841 L 442.588 199.841 L 442.588 199.841 Q 444.787 202.732 444.787 208.395 L 444.787 208.395 L 444.787 226.951 L 439.847 226.951 L 439.847 209.058 L 439.847 209.058 Q 439.847 204.901 438.521 203.064 L 438.521 203.064 L 438.521 203.064 Q 437.196 201.226 434.424 201.226 L 434.424 201.226 L 434.424 201.226 Q 431.111 201.226 427.075 205.745 L 427.075 205.745 L 427.075 226.951 L 422.134 226.951 L 422.134 209.058 L 422.134 209.058 Q 422.134 204.901 420.809 203.064 L 420.809 203.064 L 420.809 203.064 Q 419.484 201.226 416.652 201.226 L 416.652 201.226 L 416.652 201.226 Q 413.339 201.226 409.302 205.745 L 409.302 205.745 L 409.302 226.951 Z  M 462.86 227.674 L 462.86 227.674 L 462.86 227.674 Q 458.161 227.674 456.022 224.782 L 456.022 224.782 L 456.022 224.782 Q 453.884 221.89 453.884 216.227 L 453.884 216.227 L 453.884 197.672 L 458.884 197.672 L 458.884 215.565 L 458.884 215.565 Q 458.884 219.722 460.179 221.559 L 460.179 221.559 L 460.179 221.559 Q 461.474 223.396 464.366 223.396 L 464.366 223.396 L 464.366 223.396 Q 466.656 223.396 468.403 222.222 L 468.403 222.222 L 468.403 222.222 Q 470.15 221.047 472.258 218.456 L 472.258 218.456 L 472.258 197.672 L 477.198 197.672 L 477.198 226.951 L 473.102 226.951 L 472.68 222.372 L 472.499 222.372 L 472.499 222.372 Q 470.451 224.782 468.192 226.228 L 468.192 226.228 L 468.192 226.228 Q 465.933 227.674 462.86 227.674 Z  M 492.019 226.951 L 487.079 226.951 L 487.079 197.672 L 491.175 197.672 L 491.597 201.889 L 491.778 201.889 L 491.778 201.889 Q 493.886 199.78 496.206 198.365 L 496.206 198.365 L 496.206 198.365 Q 498.525 196.949 501.598 196.949 L 501.598 196.949 L 501.598 196.949 Q 506.237 196.949 508.375 199.841 L 508.375 199.841 L 508.375 199.841 Q 510.514 202.732 510.514 208.395 L 510.514 208.395 L 510.514 226.951 L 505.574 226.951 L 505.574 209.058 L 505.574 209.058 Q 505.574 204.901 504.249 203.064 L 504.249 203.064 L 504.249 203.064 Q 502.923 201.226 500.031 201.226 L 500.031 201.226 L 500.031 201.226 Q 497.742 201.226 495.995 202.371 L 495.995 202.371 L 495.995 202.371 Q 494.248 203.516 492.019 205.745 L 492.019 205.745 L 492.019 226.951 Z  M 524.973 226.951 L 520.033 226.951 L 520.033 197.672 L 524.973 197.672 L 524.973 226.951 Z  M 522.563 191.647 L 522.563 191.647 L 522.563 191.647 Q 521.117 191.647 520.123 190.744 L 520.123 190.744 L 520.123 190.744 Q 519.129 189.84 519.129 188.454 L 519.129 188.454 L 519.129 188.454 Q 519.129 187.008 520.123 186.135 L 520.123 186.135 L 520.123 186.135 Q 521.117 185.261 522.563 185.261 L 522.563 185.261 L 522.563 185.261 Q 524.009 185.261 525.003 186.135 L 525.003 186.135 L 525.003 186.135 Q 525.997 187.008 525.997 188.454 L 525.997 188.454 L 525.997 188.454 Q 525.997 189.84 525.003 190.744 L 525.003 190.744 L 525.003 190.744 Q 524.009 191.647 522.563 191.647 Z  M 544.854 227.674 L 544.854 227.674 L 544.854 227.674 Q 539.311 227.674 536.028 223.698 L 536.028 223.698 L 536.028 223.698 Q 532.744 219.722 532.744 212.372 L 532.744 212.372 L 532.744 212.372 Q 532.744 208.817 533.799 205.956 L 533.799 205.956 L 533.799 205.956 Q 534.853 203.094 536.6 201.106 L 536.6 201.106 L 536.6 201.106 Q 538.347 199.118 540.637 198.033 L 540.637 198.033 L 540.637 198.033 Q 542.926 196.949 545.456 196.949 L 545.456 196.949 L 545.456 196.949 Q 547.987 196.949 549.854 197.853 L 549.854 197.853 L 549.854 197.853 Q 551.722 198.756 553.65 200.323 L 553.65 200.323 L 553.408 195.322 L 553.408 184.056 L 558.409 184.056 L 558.409 226.951 L 554.312 226.951 L 553.891 223.517 L 553.71 223.517 L 553.71 223.517 Q 551.963 225.204 549.703 226.439 L 549.703 226.439 L 549.703 226.439 Q 547.444 227.674 544.854 227.674 Z  M 545.938 223.517 L 545.938 223.517 L 545.938 223.517 Q 547.987 223.517 549.794 222.523 L 549.794 222.523 L 549.794 222.523 Q 551.601 221.529 553.408 219.481 L 553.408 219.481 L 553.408 204.178 L 553.408 204.178 Q 551.541 202.491 549.824 201.799 L 549.824 201.799 L 549.824 201.799 Q 548.107 201.106 546.3 201.106 L 546.3 201.106 L 546.3 201.106 Q 544.553 201.106 543.016 201.919 L 543.016 201.919 L 543.016 201.919 Q 541.48 202.732 540.335 204.208 L 540.335 204.208 L 540.335 204.208 Q 539.191 205.684 538.528 207.733 L 538.528 207.733 L 538.528 207.733 Q 537.865 209.781 537.865 212.311 L 537.865 212.311 L 537.865 212.311 Q 537.865 217.613 539.974 220.565 L 539.974 220.565 L 539.974 220.565 Q 542.082 223.517 545.938 223.517 Z  M 575.037 227.674 L 575.037 227.674 L 575.037 227.674 Q 571.362 227.674 568.922 225.505 L 568.922 225.505 L 568.922 225.505 Q 566.482 223.336 566.482 219.36 L 566.482 219.36 L 566.482 219.36 Q 566.482 214.54 570.759 211.98 L 570.759 211.98 L 570.759 211.98 Q 575.037 209.42 584.435 208.395 L 584.435 208.395 L 584.435 208.395 Q 584.435 207.01 584.164 205.684 L 584.164 205.684 L 584.164 205.684 Q 583.893 204.359 583.23 203.335 L 583.23 203.335 L 583.23 203.335 Q 582.567 202.311 581.392 201.678 L 581.392 201.678 L 581.392 201.678 Q 580.218 201.046 578.41 201.046 L 578.41 201.046 L 578.41 201.046 Q 575.88 201.046 573.651 202.009 L 573.651 202.009 L 573.651 202.009 Q 571.422 202.973 569.675 204.178 L 569.675 204.178 L 567.747 200.744 L 567.747 200.744 Q 569.795 199.419 572.747 198.184 L 572.747 198.184 L 572.747 198.184 Q 575.699 196.949 579.254 196.949 L 579.254 196.949 L 579.254 196.949 Q 584.615 196.949 587.025 200.232 L 587.025 200.232 L 587.025 200.232 Q 589.435 203.516 589.435 208.998 L 589.435 208.998 L 589.435 226.951 L 585.338 226.951 L 584.917 223.457 L 584.736 223.457 L 584.736 223.457 Q 582.627 225.204 580.218 226.439 L 580.218 226.439 L 580.218 226.439 Q 577.808 227.674 575.037 227.674 Z  M 576.482 223.698 L 576.482 223.698 L 576.482 223.698 Q 578.591 223.698 580.459 222.704 L 580.459 222.704 L 580.459 222.704 Q 582.326 221.71 584.435 219.782 L 584.435 219.782 L 584.435 211.649 L 584.435 211.649 Q 580.76 212.131 578.26 212.793 L 578.26 212.793 L 578.26 212.793 Q 575.76 213.456 574.223 214.36 L 574.223 214.36 L 574.223 214.36 Q 572.687 215.263 571.994 216.438 L 571.994 216.438 L 571.994 216.438 Q 571.301 217.613 571.301 218.999 L 571.301 218.999 L 571.301 218.999 Q 571.301 221.529 572.807 222.613 L 572.807 222.613 L 572.807 222.613 Q 574.314 223.698 576.482 223.698 Z  M 608.653 227.674 L 608.653 227.674 L 608.653 227.674 Q 603.111 227.674 599.827 223.698 L 599.827 223.698 L 599.827 223.698 Q 596.544 219.722 596.544 212.372 L 596.544 212.372 L 596.544 212.372 Q 596.544 208.817 597.598 205.956 L 597.598 205.956 L 597.598 205.956 Q 598.653 203.094 600.4 201.106 L 600.4 201.106 L 600.4 201.106 Q 602.147 199.118 604.436 198.033 L 604.436 198.033 L 604.436 198.033 Q 606.725 196.949 609.256 196.949 L 609.256 196.949 L 609.256 196.949 Q 611.786 196.949 613.654 197.853 L 613.654 197.853 L 613.654 197.853 Q 615.521 198.756 617.449 200.323 L 617.449 200.323 L 617.208 195.322 L 617.208 184.056 L 622.208 184.056 L 622.208 226.951 L 618.112 226.951 L 617.69 223.517 L 617.509 223.517 L 617.509 223.517 Q 615.762 225.204 613.503 226.439 L 613.503 226.439 L 613.503 226.439 Q 611.244 227.674 608.653 227.674 Z  M 609.738 223.517 L 609.738 223.517 L 609.738 223.517 Q 611.786 223.517 613.593 222.523 L 613.593 222.523 L 613.593 222.523 Q 615.401 221.529 617.208 219.481 L 617.208 219.481 L 617.208 204.178 L 617.208 204.178 Q 615.341 202.491 613.624 201.799 L 613.624 201.799 L 613.624 201.799 Q 611.907 201.106 610.099 201.106 L 610.099 201.106 L 610.099 201.106 Q 608.352 201.106 606.816 201.919 L 606.816 201.919 L 606.816 201.919 Q 605.28 202.732 604.135 204.208 L 604.135 204.208 L 604.135 204.208 Q 602.99 205.684 602.328 207.733 L 602.328 207.733 L 602.328 207.733 Q 601.665 209.781 601.665 212.311 L 601.665 212.311 L 601.665 212.311 Q 601.665 217.613 603.773 220.565 L 603.773 220.565 L 603.773 220.565 Q 605.882 223.517 609.738 223.517 Z " fill-rule="evenodd" fill="rgb(52,73,94)"/><path d=" M 730.356 118.224 L 730.356 118.224 L 730.356 63.636 L 730.356 9.048 L 730.356 9.048 Q 730.356 7.124 731.799 6.082 L 731.799 6.082 L 731.799 6.082 Q 733.242 5.04 735.166 5.04 L 735.166 5.04 L 761.457 5.04 L 761.457 5.04 Q 768.832 5.04 774.283 6.163 L 774.283 6.163 L 774.283 6.163 Q 779.733 7.285 784.463 10.17 L 784.463 10.17 L 784.463 10.17 Q 789.192 13.056 791.677 18.587 L 791.677 18.587 L 791.677 18.587 Q 794.162 24.118 794.162 32.294 L 794.162 32.294 L 794.162 32.294 Q 794.162 42.234 790.475 49.127 L 790.475 49.127 L 790.475 49.127 Q 786.787 56.021 780.535 58.746 L 780.535 58.746 L 780.535 58.746 Q 788.551 61.953 792.799 68.365 L 792.799 68.365 L 792.799 68.365 Q 797.048 74.778 797.048 86.321 L 797.048 86.321 L 797.048 89.206 L 797.048 89.206 Q 797.048 106.52 788.391 114.376 L 788.391 114.376 L 788.391 114.376 Q 779.733 122.231 765.305 122.231 L 765.305 122.231 L 735.166 122.231 L 735.166 122.231 Q 732.921 122.231 731.639 121.029 L 731.639 121.029 L 731.639 121.029 Q 730.356 119.827 730.356 118.224 Z  M 740.777 63.235 L 740.777 112.452 L 764.022 112.452 L 764.022 112.452 Q 786.467 112.452 786.467 88.725 L 786.467 88.725 L 786.467 86 L 786.467 86 Q 786.467 63.235 764.022 63.235 L 764.022 63.235 L 740.777 63.235 Z  M 740.777 14.82 L 740.777 54.097 L 761.778 54.097 L 761.778 54.097 Q 773.16 54.097 778.371 49.368 L 778.371 49.368 L 778.371 49.368 Q 783.581 44.638 783.581 33.416 L 783.581 33.416 L 783.581 33.416 Q 783.581 22.996 777.81 18.908 L 777.81 18.908 L 777.81 18.908 Q 772.038 14.82 761.137 14.82 L 761.137 14.82 L 740.777 14.82 Z  M 811.476 92.894 L 811.476 92.894 L 811.476 75.419 L 811.476 75.419 Q 811.476 63.235 820.454 54.338 L 820.454 54.338 L 820.454 54.338 Q 829.431 45.44 841.776 45.44 L 841.776 45.44 L 841.776 45.44 Q 854.12 45.44 863.258 54.257 L 863.258 54.257 L 863.258 54.257 Q 872.396 63.075 872.396 75.419 L 872.396 75.419 L 872.396 92.894 L 872.396 92.894 Q 872.396 104.917 863.178 114.135 L 863.178 114.135 L 863.178 114.135 Q 853.96 123.354 841.776 123.354 L 841.776 123.354 L 841.776 123.354 Q 829.752 123.354 820.614 114.135 L 820.614 114.135 L 820.614 114.135 Q 811.476 104.917 811.476 92.894 Z  M 821.897 75.419 L 821.897 92.894 L 821.897 92.894 Q 821.897 101.07 827.748 107.402 L 827.748 107.402 L 827.748 107.402 Q 833.6 113.735 841.776 113.735 L 841.776 113.735 L 841.776 113.735 Q 850.112 113.735 856.044 107.402 L 856.044 107.402 L 856.044 107.402 Q 861.976 101.07 861.976 92.894 L 861.976 92.894 L 861.976 75.419 L 861.976 75.419 Q 861.976 67.564 855.964 61.311 L 855.964 61.311 L 855.964 61.311 Q 849.952 55.059 841.776 55.059 L 841.776 55.059 L 841.776 55.059 Q 833.6 55.059 827.748 61.311 L 827.748 61.311 L 827.748 61.311 Q 821.897 67.564 821.897 75.419 L 821.897 75.419 Z  M 890.832 118.063 L 890.832 118.063 L 890.832 3.758 L 890.832 3.758 Q 890.832 2.155 892.275 1.032 L 892.275 1.032 L 892.275 1.032 Q 893.718 -0.09 895.963 -0.09 L 895.963 -0.09 L 895.963 -0.09 Q 898.207 -0.09 899.73 1.032 L 899.73 1.032 L 899.73 1.032 Q 901.253 2.155 901.253 3.758 L 901.253 3.758 L 901.253 118.063 L 901.253 118.063 Q 901.253 119.666 899.73 120.949 L 899.73 120.949 L 899.73 120.949 Q 898.207 122.231 895.963 122.231 L 895.963 122.231 L 895.963 122.231 Q 893.879 122.231 892.356 120.949 L 892.356 120.949 L 892.356 120.949 Q 890.832 119.666 890.832 118.063 Z  M 922.735 21.954 L 922.735 21.954 L 922.735 21.954 Q 920.651 19.95 920.651 17.224 L 920.651 17.224 L 920.651 17.224 Q 920.651 14.499 922.735 12.575 L 922.735 12.575 L 922.735 12.575 Q 924.82 10.651 927.865 10.651 L 927.865 10.651 L 927.865 10.651 Q 930.751 10.651 932.755 12.575 L 932.755 12.575 L 932.755 12.575 Q 934.759 14.499 934.759 17.224 L 934.759 17.224 L 934.759 17.224 Q 934.759 19.95 932.755 21.954 L 932.755 21.954 L 932.755 21.954 Q 930.751 23.958 927.865 23.958 L 927.865 23.958 L 927.865 23.958 Q 924.82 23.958 922.735 21.954 Z  M 922.735 118.063 L 922.735 118.063 L 922.735 50.249 L 922.735 50.249 Q 922.735 48.646 924.178 47.524 L 924.178 47.524 L 924.178 47.524 Q 925.621 46.402 927.865 46.402 L 927.865 46.402 L 927.865 46.402 Q 930.11 46.402 931.633 47.524 L 931.633 47.524 L 931.633 47.524 Q 933.156 48.646 933.156 50.249 L 933.156 50.249 L 933.156 118.063 L 933.156 118.063 Q 933.156 119.666 931.553 120.949 L 931.553 120.949 L 931.553 120.949 Q 929.95 122.231 927.865 122.231 L 927.865 122.231 L 927.865 122.231 Q 925.781 122.231 924.258 120.949 L 924.258 120.949 L 924.258 120.949 Q 922.735 119.666 922.735 118.063 Z  M 945.661 50.891 L 945.661 50.891 L 945.661 50.891 Q 945.661 48.967 947.665 47.524 L 947.665 47.524 L 947.665 47.524 Q 949.669 46.081 951.913 46.081 L 951.913 46.081 L 951.913 46.081 Q 954.799 46.081 955.761 48.486 L 955.761 48.486 L 976.922 106.2 L 998.084 49.127 L 998.084 49.127 Q 999.366 46.081 1001.771 46.081 L 1001.771 46.081 L 1001.771 46.081 Q 1003.695 46.081 1005.939 47.524 L 1005.939 47.524 L 1005.939 47.524 Q 1008.184 48.967 1008.184 50.73 L 1008.184 50.73 L 1008.184 50.73 Q 1008.184 52.013 1007.543 53.295 L 1007.543 53.295 L 981.732 120.949 L 981.732 120.949 Q 980.77 123.514 976.922 123.514 L 976.922 123.514 L 976.922 123.514 Q 973.075 123.514 972.113 120.949 L 972.113 120.949 L 946.302 53.295 L 946.302 53.295 Q 945.661 52.334 945.661 50.891 Z  M 1020.689 21.954 L 1020.689 21.954 L 1020.689 21.954 Q 1018.604 19.95 1018.604 17.224 L 1018.604 17.224 L 1018.604 17.224 Q 1018.604 14.499 1020.689 12.575 L 1020.689 12.575 L 1020.689 12.575 Q 1022.773 10.651 1025.819 10.651 L 1025.819 10.651 L 1025.819 10.651 Q 1028.704 10.651 1030.708 12.575 L 1030.708 12.575 L 1030.708 12.575 Q 1032.712 14.499 1032.712 17.224 L 1032.712 17.224 L 1032.712 17.224 Q 1032.712 19.95 1030.708 21.954 L 1030.708 21.954 L 1030.708 21.954 Q 1028.704 23.958 1025.819 23.958 L 1025.819 23.958 L 1025.819 23.958 Q 1022.773 23.958 1020.689 21.954 Z  M 1020.689 118.063 L 1020.689 118.063 L 1020.689 50.249 L 1020.689 50.249 Q 1020.689 48.646 1022.131 47.524 L 1022.131 47.524 L 1022.131 47.524 Q 1023.574 46.402 1025.819 46.402 L 1025.819 46.402 L 1025.819 46.402 Q 1028.063 46.402 1029.586 47.524 L 1029.586 47.524 L 1029.586 47.524 Q 1031.109 48.646 1031.109 50.249 L 1031.109 50.249 L 1031.109 118.063 L 1031.109 118.063 Q 1031.109 119.666 1029.506 120.949 L 1029.506 120.949 L 1029.506 120.949 Q 1027.903 122.231 1025.819 122.231 L 1025.819 122.231 L 1025.819 122.231 Q 1023.735 122.231 1022.212 120.949 L 1022.212 120.949 L 1022.212 120.949 Q 1020.689 119.666 1020.689 118.063 Z  M 1046.018 102.192 L 1046.018 102.192 L 1046.018 102.192 Q 1046.018 89.848 1055.557 85.038 L 1055.557 85.038 L 1055.557 85.038 Q 1065.096 80.229 1083.372 80.229 L 1083.372 80.229 L 1091.548 80.229 L 1091.548 76.381 L 1091.548 76.381 Q 1091.548 67.564 1086.899 61.071 L 1086.899 61.071 L 1086.899 61.071 Q 1082.25 54.578 1072.631 54.578 L 1072.631 54.578 L 1072.631 54.578 Q 1066.218 54.578 1061.008 56.903 L 1061.008 56.903 L 1061.008 56.903 Q 1055.798 59.227 1055.477 59.227 L 1055.477 59.227 L 1055.477 59.227 Q 1053.553 59.227 1052.431 57.464 L 1052.431 57.464 L 1052.431 57.464 Q 1051.309 55.7 1051.309 53.616 L 1051.309 53.616 L 1051.309 53.616 Q 1051.309 50.57 1058.203 48.005 L 1058.203 48.005 L 1058.203 48.005 Q 1065.096 45.44 1072.952 45.44 L 1072.952 45.44 L 1072.952 45.44 Q 1088.021 45.44 1094.995 54.177 L 1094.995 54.177 L 1094.995 54.177 Q 1101.969 62.914 1101.969 76.381 L 1101.969 76.381 L 1101.969 118.063 L 1101.969 118.063 Q 1101.969 119.827 1100.526 121.029 L 1100.526 121.029 L 1100.526 121.029 Q 1099.083 122.231 1096.839 122.231 L 1096.839 122.231 L 1096.839 122.231 Q 1094.755 122.231 1093.392 121.029 L 1093.392 121.029 L 1093.392 121.029 Q 1092.029 119.827 1092.029 118.063 L 1092.029 118.063 L 1092.029 111.009 L 1092.029 111.009 Q 1081.288 123.354 1067.821 123.354 L 1067.821 123.354 L 1067.821 123.354 Q 1058.203 123.354 1052.11 117.983 L 1052.11 117.983 L 1052.11 117.983 Q 1046.018 112.612 1046.018 102.192 Z  M 1056.439 101.23 L 1056.439 101.23 L 1056.439 101.23 Q 1056.439 107.963 1060.287 111.25 L 1060.287 111.25 L 1060.287 111.25 Q 1064.134 114.536 1070.387 114.536 L 1070.387 114.536 L 1070.387 114.536 Q 1077.921 114.536 1084.735 108.925 L 1084.735 108.925 L 1084.735 108.925 Q 1091.548 103.314 1091.548 97.703 L 1091.548 97.703 L 1091.548 87.443 L 1084.815 87.443 L 1084.815 87.443 Q 1078.402 87.443 1073.994 87.924 L 1073.994 87.924 L 1073.994 87.924 Q 1069.585 88.405 1065.256 89.687 L 1065.256 89.687 L 1065.256 89.687 Q 1060.928 90.97 1058.683 93.855 L 1058.683 93.855 L 1058.683 93.855 Q 1056.439 96.741 1056.439 101.23 Z " fill-rule="evenodd" fill="rgb(65,184,131)"/><path d=" M 34.621 47.899 L 28.971 38.112 L 57.29 21.762 L 62.515 30.812 L 62.515 30.812 Q 63.79 33.021 64.485 35.074 L 64.485 35.074 L 64.485 35.074 Q 65.179 37.126 65.166 38.953 L 65.166 38.953 L 65.166 38.953 Q 65.152 40.779 64.247 42.312 L 64.247 42.312 L 64.247 42.312 Q 63.342 43.845 61.394 44.97 L 61.394 44.97 L 61.394 44.97 Q 59.359 46.145 57.027 46.106 L 57.027 46.106 L 57.027 46.106 Q 54.695 46.066 52.97 44.58 L 52.97 44.58 L 52.797 44.68 L 52.797 44.68 Q 53.627 47.318 52.848 49.817 L 52.848 49.817 L 52.848 49.817 Q 52.068 52.317 49.21 53.967 L 49.21 53.967 L 49.21 53.967 Q 47.088 55.192 45.055 55.269 L 45.055 55.269 L 45.055 55.269 Q 43.021 55.347 41.144 54.496 L 41.144 54.496 L 41.144 54.496 Q 39.267 53.646 37.619 51.941 L 37.619 51.941 L 37.619 51.941 Q 35.971 50.237 34.621 47.899 L 34.621 47.899 L 34.621 47.899 Z  M 56.293 29.035 L 48.499 33.535 L 50.574 37.129 L 50.574 37.129 Q 52.299 40.117 54.144 40.813 L 54.144 40.813 L 54.144 40.813 Q 55.989 41.509 57.808 40.459 L 57.808 40.459 L 57.808 40.459 Q 59.886 39.259 59.952 37.373 L 59.952 37.373 L 59.952 37.373 Q 60.018 35.487 58.418 32.716 L 58.418 32.716 L 56.293 29.035 L 56.293 29.035 Z  M 44.732 35.71 L 35.768 40.885 L 38.218 45.129 L 38.218 45.129 Q 40.018 48.247 42.141 49.273 L 42.141 49.273 L 42.141 49.273 Q 44.263 50.299 46.645 48.924 L 46.645 48.924 L 46.645 48.924 Q 48.897 47.624 48.964 45.391 L 48.964 45.391 L 48.964 45.391 Q 49.032 43.158 47.182 39.954 L 47.182 39.954 L 44.732 35.71 L 44.732 35.71 Z  M 49.727 75.262 L 49.727 75.262 L 49.727 75.262 Q 48.127 72.491 47.819 69.608 L 47.819 69.608 L 47.819 69.608 Q 47.512 66.726 48.489 63.968 L 48.489 63.968 L 48.489 63.968 Q 49.466 61.21 51.669 58.725 L 51.669 58.725 L 51.669 58.725 Q 53.872 56.241 57.336 54.241 L 57.336 54.241 L 57.336 54.241 Q 60.757 52.266 63.988 51.613 L 63.988 51.613 L 63.988 51.613 Q 67.219 50.96 70.031 51.53 L 70.031 51.53 L 70.031 51.53 Q 72.843 52.101 75.164 53.821 L 75.164 53.821 L 75.164 53.821 Q 77.485 55.541 79.085 58.312 L 79.085 58.312 L 79.085 58.312 Q 80.685 61.083 81.014 63.953 L 81.014 63.953 L 81.014 63.953 Q 81.343 66.823 80.444 69.565 L 80.444 69.565 L 80.444 69.565 Q 79.544 72.307 77.363 74.779 L 77.363 74.779 L 77.363 74.779 Q 75.182 77.251 71.761 79.226 L 71.761 79.226 L 71.761 79.226 Q 68.297 81.226 65.044 81.892 L 65.044 81.892 L 65.044 81.892 Q 61.791 82.557 58.901 82.003 L 58.901 82.003 L 58.901 82.003 Q 56.012 81.448 53.669 79.741 L 53.669 79.741 L 53.669 79.741 Q 51.327 78.033 49.727 75.262 Z  M 54.1 72.737 L 54.1 72.737 L 54.1 72.737 Q 55.075 74.426 56.586 75.343 L 56.586 75.343 L 56.586 75.343 Q 58.097 76.26 60.011 76.425 L 60.011 76.425 L 60.011 76.425 Q 61.925 76.591 64.152 75.998 L 64.152 75.998 L 64.152 75.998 Q 66.379 75.405 68.761 74.03 L 68.761 74.03 L 68.761 74.03 Q 73.524 71.28 75.093 67.747 L 75.093 67.747 L 75.093 67.747 Q 76.662 64.214 74.712 60.837 L 74.712 60.837 L 74.712 60.837 Q 72.762 57.459 68.918 57.052 L 68.918 57.052 L 68.918 57.052 Q 65.074 56.644 60.311 59.394 L 60.311 59.394 L 60.311 59.394 Q 57.929 60.769 56.302 62.401 L 56.302 62.401 L 56.302 62.401 Q 54.675 64.033 53.861 65.773 L 53.861 65.773 L 53.861 65.773 Q 53.047 67.513 53.086 69.281 L 53.086 69.281 L 53.086 69.281 Q 53.125 71.048 54.1 72.737 Z  M 70.446 109.949 L 60.746 93.148 L 89.065 76.798 L 91.965 81.821 L 67.89 95.721 L 74.69 107.499 L 70.446 109.949 L 70.446 109.949 Z  M 76.196 119.909 L 73.296 114.886 L 101.615 98.536 L 104.515 103.559 L 76.196 119.909 L 76.196 119.909 Z  M 86.696 138.095 L 83.271 132.163 L 106.49 106.979 L 109.565 112.305 L 97.619 124.514 L 97.619 124.514 Q 95.594 126.607 93.742 128.398 L 93.742 128.398 L 93.742 128.398 Q 91.889 130.189 89.846 132.351 L 89.846 132.351 L 89.946 132.524 L 89.946 132.524 Q 92.839 131.835 95.317 131.126 L 95.317 131.126 L 95.317 131.126 Q 97.794 130.417 100.594 129.667 L 100.594 129.667 L 117.115 125.382 L 120.09 130.535 L 86.696 138.095 L 86.696 138.095 Z  M 96.646 155.329 L 93.746 150.306 L 122.065 133.956 L 124.965 138.979 L 96.646 155.329 L 96.646 155.329 Z  M 119.215 159.619 L 119.215 159.619 L 115.176 160.623 L 119.351 167.855 L 122.24 164.859 L 122.24 164.859 Q 124.092 162.866 126.111 160.863 L 126.111 160.863 L 126.111 160.863 Q 128.13 158.86 130.118 156.904 L 130.118 156.904 L 130.018 156.731 L 130.018 156.731 Q 127.287 157.5 124.577 158.256 L 124.577 158.256 L 124.577 158.256 Q 121.867 159.012 119.215 159.619 Z  M 101.621 163.946 L 98.671 158.836 L 132.315 151.71 L 135.715 157.599 L 112.721 183.172 L 109.671 177.889 L 116.061 171.256 L 110.561 161.729 L 101.621 163.946 L 101.621 163.946 Z " fill="rgb(255,255,255)"/></g></svg>