<?xml version="1.0" encoding="UTF-8" standalone="no"?><!-- Generator: Gravit.io --><svg xmlns="http://www.w3.org/2000/svg" xmlns:xlink="http://www.w3.org/1999/xlink" style="isolation:isolate" viewBox="87 61.207 1103.969 240.15" width="1103.969pt" height="240.15pt"><defs><clipPath id="_clipPath_4QhhEES2RVZA3u7k6NFYXqasUtlvD3sM"><rect x="87" y="61.207" width="1103.969" height="240.15"/></clipPath></defs><g clip-path="url(#_clipPath_4QhhEES2RVZA3u7k6NFYXqasUtlvD3sM)"><g><g><path d=" M 248.101 64.676 L 217.877 117.027 L 187.652 64.676 L 87 64.676 L 217.877 291.363 L 348.753 64.676 L 248.101 64.676 Z " fill="rgb(65,184,131)"/></g><g><path d=" M 248.101 64.676 L 217.877 117.027 L 187.652 64.676 L 139.351 64.676 L 217.877 200.686 L 296.403 64.676 L 248.101 64.676 Z " fill="rgb(52,73,94)"/></g></g><g><path d=" M 347.969 218 C 347.987 217.132 348 216.258 348 215.363 C 348 198.363 334.888 185.363 317.741 185.363 C 305.638 185.363 295.552 192.363 289.5 202.363 C 283.448 192.363 273.362 185.363 261.259 185.363 C 244.112 185.363 231 198.363 231 215.363 C 231 216.258 231.013 217.132 231.031 218" fill="rgb(255,0,0)"/><path d=" M 254 260 C 262.95 268.007 274.742 277.484 289.5 291.363 C 304.258 277.484 316.05 268.007 325 260" fill="rgb(0,179,3)"/><path d=" M 289.505 260 L 254 260 L 254 260 C 241.306 248.048 231 229.229 231 218 L 231 218 L 348 218 L 348 218 C 348 229.229 337.694 248.048 325 260 L 325 260 L 289.505 260 Z " fill="rgb(242,255,0)"/></g><g><path d=" M 817.548 179.521 L 817.548 179.521 L 817.548 70.345 L 817.548 70.345 Q 817.548 68.421 818.991 67.379 L 818.991 67.379 L 818.991 67.379 Q 820.434 66.337 822.358 66.337 L 822.358 66.337 L 848.649 66.337 L 848.649 66.337 Q 856.024 66.337 861.475 67.46 L 861.475 67.46 L 861.475 67.46 Q 866.925 68.582 871.655 71.467 L 871.655 71.467 L 871.655 71.467 Q 876.384 74.353 878.869 79.884 L 878.869 79.884 L 878.869 79.884 Q 881.354 85.415 881.354 93.591 L 881.354 93.591 L 881.354 93.591 Q 881.354 103.531 877.667 110.424 L 877.667 110.424 L 877.667 110.424 Q 873.979 117.318 867.727 120.043 L 867.727 120.043 L 867.727 120.043 Q 875.743 123.25 879.991 129.662 L 879.991 129.662 L 879.991 129.662 Q 884.24 136.075 884.24 147.618 L 884.24 147.618 L 884.24 150.503 L 884.24 150.503 Q 884.24 167.817 875.583 175.673 L 875.583 175.673 L 875.583 175.673 Q 866.925 183.528 852.497 183.528 L 852.497 183.528 L 822.358 183.528 L 822.358 183.528 Q 820.113 183.528 818.831 182.326 L 818.831 182.326 L 818.831 182.326 Q 817.548 181.124 817.548 179.521 Z  M 827.969 124.532 L 827.969 173.749 L 851.214 173.749 L 851.214 173.749 Q 873.659 173.749 873.659 150.022 L 873.659 150.022 L 873.659 147.297 L 873.659 147.297 Q 873.659 124.532 851.214 124.532 L 851.214 124.532 L 827.969 124.532 Z  M 827.969 76.117 L 827.969 115.394 L 848.97 115.394 L 848.97 115.394 Q 860.352 115.394 865.563 110.665 L 865.563 110.665 L 865.563 110.665 Q 870.773 105.935 870.773 94.713 L 870.773 94.713 L 870.773 94.713 Q 870.773 84.293 865.002 80.205 L 865.002 80.205 L 865.002 80.205 Q 859.23 76.117 848.329 76.117 L 848.329 76.117 L 827.969 76.117 Z  M 898.668 154.191 L 898.668 154.191 L 898.668 136.716 L 898.668 136.716 Q 898.668 124.532 907.646 115.635 L 907.646 115.635 L 907.646 115.635 Q 916.623 106.737 928.968 106.737 L 928.968 106.737 L 928.968 106.737 Q 941.312 106.737 950.45 115.554 L 950.45 115.554 L 950.45 115.554 Q 959.588 124.372 959.588 136.716 L 959.588 136.716 L 959.588 154.191 L 959.588 154.191 Q 959.588 166.214 950.37 175.432 L 950.37 175.432 L 950.37 175.432 Q 941.152 184.651 928.968 184.651 L 928.968 184.651 L 928.968 184.651 Q 916.944 184.651 907.806 175.432 L 907.806 175.432 L 907.806 175.432 Q 898.668 166.214 898.668 154.191 Z  M 909.089 136.716 L 909.089 154.191 L 909.089 154.191 Q 909.089 162.367 914.94 168.699 L 914.94 168.699 L 914.94 168.699 Q 920.792 175.032 928.968 175.032 L 928.968 175.032 L 928.968 175.032 Q 937.304 175.032 943.236 168.699 L 943.236 168.699 L 943.236 168.699 Q 949.168 162.367 949.168 154.191 L 949.168 154.191 L 949.168 136.716 L 949.168 136.716 Q 949.168 128.861 943.156 122.608 L 943.156 122.608 L 943.156 122.608 Q 937.144 116.356 928.968 116.356 L 928.968 116.356 L 928.968 116.356 Q 920.792 116.356 914.94 122.608 L 914.94 122.608 L 914.94 122.608 Q 909.089 128.861 909.089 136.716 L 909.089 136.716 Z  M 978.024 179.36 L 978.024 179.36 L 978.024 65.055 L 978.024 65.055 Q 978.024 63.452 979.467 62.329 L 979.467 62.329 L 979.467 62.329 Q 980.91 61.207 983.155 61.207 L 983.155 61.207 L 983.155 61.207 Q 985.399 61.207 986.922 62.329 L 986.922 62.329 L 986.922 62.329 Q 988.445 63.452 988.445 65.055 L 988.445 65.055 L 988.445 179.36 L 988.445 179.36 Q 988.445 180.963 986.922 182.246 L 986.922 182.246 L 986.922 182.246 Q 985.399 183.528 983.155 183.528 L 983.155 183.528 L 983.155 183.528 Q 981.071 183.528 979.548 182.246 L 979.548 182.246 L 979.548 182.246 Q 978.024 180.963 978.024 179.36 Z  M 1009.927 83.251 L 1009.927 83.251 L 1009.927 83.251 Q 1007.843 81.247 1007.843 78.521 L 1007.843 78.521 L 1007.843 78.521 Q 1007.843 75.796 1009.927 73.872 L 1009.927 73.872 L 1009.927 73.872 Q 1012.012 71.948 1015.057 71.948 L 1015.057 71.948 L 1015.057 71.948 Q 1017.943 71.948 1019.947 73.872 L 1019.947 73.872 L 1019.947 73.872 Q 1021.951 75.796 1021.951 78.521 L 1021.951 78.521 L 1021.951 78.521 Q 1021.951 81.247 1019.947 83.251 L 1019.947 83.251 L 1019.947 83.251 Q 1017.943 85.255 1015.057 85.255 L 1015.057 85.255 L 1015.057 85.255 Q 1012.012 85.255 1009.927 83.251 Z  M 1009.927 179.36 L 1009.927 179.36 L 1009.927 111.546 L 1009.927 111.546 Q 1009.927 109.943 1011.37 108.821 L 1011.37 108.821 L 1011.37 108.821 Q 1012.813 107.699 1015.057 107.699 L 1015.057 107.699 L 1015.057 107.699 Q 1017.302 107.699 1018.825 108.821 L 1018.825 108.821 L 1018.825 108.821 Q 1020.348 109.943 1020.348 111.546 L 1020.348 111.546 L 1020.348 179.36 L 1020.348 179.36 Q 1020.348 180.963 1018.745 182.246 L 1018.745 182.246 L 1018.745 182.246 Q 1017.142 183.528 1015.057 183.528 L 1015.057 183.528 L 1015.057 183.528 Q 1012.973 183.528 1011.45 182.246 L 1011.45 182.246 L 1011.45 182.246 Q 1009.927 180.963 1009.927 179.36 Z  M 1032.853 112.188 L 1032.853 112.188 L 1032.853 112.188 Q 1032.853 110.264 1034.857 108.821 L 1034.857 108.821 L 1034.857 108.821 Q 1036.861 107.378 1039.105 107.378 L 1039.105 107.378 L 1039.105 107.378 Q 1041.991 107.378 1042.953 109.783 L 1042.953 109.783 L 1064.114 167.497 L 1085.276 110.424 L 1085.276 110.424 Q 1086.558 107.378 1088.963 107.378 L 1088.963 107.378 L 1088.963 107.378 Q 1090.887 107.378 1093.131 108.821 L 1093.131 108.821 L 1093.131 108.821 Q 1095.376 110.264 1095.376 112.027 L 1095.376 112.027 L 1095.376 112.027 Q 1095.376 113.31 1094.735 114.592 L 1094.735 114.592 L 1068.924 182.246 L 1068.924 182.246 Q 1067.962 184.811 1064.114 184.811 L 1064.114 184.811 L 1064.114 184.811 Q 1060.267 184.811 1059.305 182.246 L 1059.305 182.246 L 1033.494 114.592 L 1033.494 114.592 Q 1032.853 113.631 1032.853 112.188 Z  M 1107.881 83.251 L 1107.881 83.251 L 1107.881 83.251 Q 1105.796 81.247 1105.796 78.521 L 1105.796 78.521 L 1105.796 78.521 Q 1105.796 75.796 1107.881 73.872 L 1107.881 73.872 L 1107.881 73.872 Q 1109.965 71.948 1113.011 71.948 L 1113.011 71.948 L 1113.011 71.948 Q 1115.896 71.948 1117.9 73.872 L 1117.9 73.872 L 1117.9 73.872 Q 1119.904 75.796 1119.904 78.521 L 1119.904 78.521 L 1119.904 78.521 Q 1119.904 81.247 1117.9 83.251 L 1117.9 83.251 L 1117.9 83.251 Q 1115.896 85.255 1113.011 85.255 L 1113.011 85.255 L 1113.011 85.255 Q 1109.965 85.255 1107.881 83.251 Z  M 1107.881 179.36 L 1107.881 179.36 L 1107.881 111.546 L 1107.881 111.546 Q 1107.881 109.943 1109.323 108.821 L 1109.323 108.821 L 1109.323 108.821 Q 1110.766 107.699 1113.011 107.699 L 1113.011 107.699 L 1113.011 107.699 Q 1115.255 107.699 1116.778 108.821 L 1116.778 108.821 L 1116.778 108.821 Q 1118.301 109.943 1118.301 111.546 L 1118.301 111.546 L 1118.301 179.36 L 1118.301 179.36 Q 1118.301 180.963 1116.698 182.246 L 1116.698 182.246 L 1116.698 182.246 Q 1115.095 183.528 1113.011 183.528 L 1113.011 183.528 L 1113.011 183.528 Q 1110.927 183.528 1109.404 182.246 L 1109.404 182.246 L 1109.404 182.246 Q 1107.881 180.963 1107.881 179.36 Z  M 1133.21 163.489 L 1133.21 163.489 L 1133.21 163.489 Q 1133.21 151.145 1142.749 146.335 L 1142.749 146.335 L 1142.749 146.335 Q 1152.288 141.526 1170.564 141.526 L 1170.564 141.526 L 1178.74 141.526 L 1178.74 137.678 L 1178.74 137.678 Q 1178.74 128.861 1174.091 122.368 L 1174.091 122.368 L 1174.091 122.368 Q 1169.442 115.875 1159.823 115.875 L 1159.823 115.875 L 1159.823 115.875 Q 1153.41 115.875 1148.2 118.2 L 1148.2 118.2 L 1148.2 118.2 Q 1142.99 120.524 1142.669 120.524 L 1142.669 120.524 L 1142.669 120.524 Q 1140.745 120.524 1139.623 118.761 L 1139.623 118.761 L 1139.623 118.761 Q 1138.501 116.997 1138.501 114.913 L 1138.501 114.913 L 1138.501 114.913 Q 1138.501 111.867 1145.395 109.302 L 1145.395 109.302 L 1145.395 109.302 Q 1152.288 106.737 1160.144 106.737 L 1160.144 106.737 L 1160.144 106.737 Q 1175.213 106.737 1182.187 115.474 L 1182.187 115.474 L 1182.187 115.474 Q 1189.161 124.211 1189.161 137.678 L 1189.161 137.678 L 1189.161 179.36 L 1189.161 179.36 Q 1189.161 181.124 1187.718 182.326 L 1187.718 182.326 L 1187.718 182.326 Q 1186.275 183.528 1184.031 183.528 L 1184.031 183.528 L 1184.031 183.528 Q 1181.947 183.528 1180.584 182.326 L 1180.584 182.326 L 1180.584 182.326 Q 1179.221 181.124 1179.221 179.36 L 1179.221 179.36 L 1179.221 172.306 L 1179.221 172.306 Q 1168.48 184.651 1155.013 184.651 L 1155.013 184.651 L 1155.013 184.651 Q 1145.395 184.651 1139.302 179.28 L 1139.302 179.28 L 1139.302 179.28 Q 1133.21 173.909 1133.21 163.489 Z  M 1143.631 162.527 L 1143.631 162.527 L 1143.631 162.527 Q 1143.631 169.26 1147.479 172.547 L 1147.479 172.547 L 1147.479 172.547 Q 1151.326 175.833 1157.579 175.833 L 1157.579 175.833 L 1157.579 175.833 Q 1165.113 175.833 1171.927 170.222 L 1171.927 170.222 L 1171.927 170.222 Q 1178.74 164.611 1178.74 159 L 1178.74 159 L 1178.74 148.74 L 1172.007 148.74 L 1172.007 148.74 Q 1165.594 148.74 1161.186 149.221 L 1161.186 149.221 L 1161.186 149.221 Q 1156.777 149.702 1152.448 150.984 L 1152.448 150.984 L 1152.448 150.984 Q 1148.12 152.267 1145.875 155.152 L 1145.875 155.152 L 1145.875 155.152 Q 1143.631 158.038 1143.631 162.527 Z  M 675.027 216.073 L 675.027 216.073 L 675.027 216.073 Q 675.027 213.988 676.31 212.626 L 676.31 212.626 L 676.31 212.626 Q 677.592 211.263 679.516 211.263 L 679.516 211.263 L 679.516 211.263 Q 686.57 211.263 688.814 206.053 L 688.814 206.053 L 688.814 206.053 Q 691.059 200.843 691.059 190.422 L 691.059 190.422 L 691.059 111.546 L 691.059 111.546 Q 691.059 109.783 692.502 108.741 L 692.502 108.741 L 692.502 108.741 Q 693.944 107.699 696.189 107.699 L 696.189 107.699 L 696.189 107.699 Q 698.433 107.699 699.956 108.821 L 699.956 108.821 L 699.956 108.821 Q 701.479 109.943 701.479 111.546 L 701.479 111.546 L 701.479 190.422 L 701.479 190.422 Q 701.479 220.722 680.317 220.722 L 680.317 220.722 L 680.317 220.722 Q 677.592 220.722 676.31 219.359 L 676.31 219.359 L 676.31 219.359 Q 675.027 217.996 675.027 216.073 Z  M 691.059 83.251 L 691.059 83.251 L 691.059 83.251 Q 688.975 81.247 688.975 78.521 L 688.975 78.521 L 688.975 78.521 Q 688.975 75.796 691.059 73.872 L 691.059 73.872 L 691.059 73.872 Q 693.143 71.948 696.189 71.948 L 696.189 71.948 L 696.189 71.948 Q 699.074 71.948 701.078 73.872 L 701.078 73.872 L 701.078 73.872 Q 703.082 75.796 703.082 78.521 L 703.082 78.521 L 703.082 78.521 Q 703.082 81.247 701.078 83.251 L 701.078 83.251 L 701.078 83.251 Q 699.074 85.255 696.189 85.255 L 696.189 85.255 L 696.189 85.255 Q 693.143 85.255 691.059 83.251 Z  M 716.87 173.108 L 716.87 173.108 L 716.87 173.108 Q 716.87 171.505 717.992 169.902 L 717.992 169.902 L 717.992 169.902 Q 719.114 168.298 720.557 168.298 L 720.557 168.298 L 720.557 168.298 Q 721.679 168.298 724.084 170.142 L 724.084 170.142 L 724.084 170.142 Q 726.488 171.986 730.977 173.909 L 730.977 173.909 L 730.977 173.909 Q 735.466 175.833 741.719 175.833 L 741.719 175.833 L 741.719 175.833 Q 750.215 175.833 754.223 172.627 L 754.223 172.627 L 754.223 172.627 Q 758.231 169.421 758.231 164.451 L 758.231 164.451 L 758.231 164.451 Q 758.231 158.679 754.143 155.233 L 754.143 155.233 L 754.143 155.233 Q 750.055 151.786 744.325 150.047 L 744.325 150.047 L 744.325 150.047 Q 738.594 148.308 732.702 146.52 L 732.702 146.52 L 732.702 146.52 Q 726.809 144.732 722.721 140.323 L 722.721 140.323 L 722.721 140.323 Q 718.633 135.915 718.633 128.54 L 718.633 128.54 L 718.633 128.54 Q 718.633 119.723 724.966 113.23 L 724.966 113.23 L 724.966 113.23 Q 731.298 106.737 743.963 106.737 L 743.963 106.737 L 743.963 106.737 Q 751.818 106.737 758.632 109.222 L 758.632 109.222 L 758.632 109.222 Q 765.445 111.707 765.445 114.592 L 765.445 114.592 L 765.445 114.592 Q 765.445 116.196 764.163 118.119 L 764.163 118.119 L 764.163 118.119 Q 762.88 120.043 761.117 120.043 L 761.117 120.043 L 761.117 120.043 Q 760.636 120.043 755.185 117.799 L 755.185 117.799 L 755.185 117.799 Q 749.734 115.554 744.123 115.554 L 744.123 115.554 L 744.123 115.554 Q 736.107 115.554 732.1 119.402 L 732.1 119.402 L 732.1 119.402 Q 728.092 123.25 728.092 128.059 L 728.092 128.059 L 728.092 128.059 Q 728.092 133.029 732.18 135.915 L 732.18 135.915 L 732.18 135.915 Q 736.268 138.8 742.053 140.544 L 742.053 140.544 L 742.053 140.544 Q 747.838 142.287 753.756 144.071 L 753.756 144.071 L 753.756 144.071 Q 759.674 145.854 763.762 150.904 L 763.762 150.904 L 763.762 150.904 Q 767.85 155.954 767.85 163.97 L 767.85 163.97 L 767.85 163.97 Q 767.85 173.589 761.037 179.12 L 761.037 179.12 L 761.037 179.12 Q 754.223 184.651 742.039 184.651 L 742.039 184.651 L 742.039 184.651 Q 731.458 184.651 724.164 180.883 L 724.164 180.883 L 724.164 180.883 Q 716.87 177.116 716.87 173.108 Z  M 423.651 70.826 L 423.651 70.826 L 423.651 70.826 Q 423.651 68.902 425.575 67.62 L 425.575 67.62 L 425.575 67.62 Q 427.499 66.337 429.743 66.337 L 429.743 66.337 L 429.743 66.337 Q 433.27 66.337 433.912 69.063 L 433.912 69.063 L 463.57 167.497 L 493.068 69.063 L 493.068 69.063 Q 494.03 66.337 497.076 66.337 L 497.076 66.337 L 497.076 66.337 Q 499.321 66.337 501.405 67.7 L 501.405 67.7 L 501.405 67.7 Q 503.489 69.063 503.489 70.987 L 503.489 70.987 L 503.489 70.987 Q 503.489 71.147 503.409 71.467 L 503.409 71.467 L 503.409 71.467 Q 503.328 71.788 503.328 71.948 L 503.328 71.948 L 469.983 180.643 L 469.983 180.643 Q 468.861 184.49 463.57 184.49 L 463.57 184.49 L 463.57 184.49 Q 458.44 184.49 457.318 180.643 L 457.318 180.643 L 423.812 71.948 L 423.812 71.948 Q 423.651 71.628 423.651 70.826 Z  M 509.901 154.511 L 509.901 154.511 L 509.901 111.707 L 509.901 111.707 Q 509.901 110.264 511.424 108.981 L 511.424 108.981 L 511.424 108.981 Q 512.947 107.699 515.192 107.699 L 515.192 107.699 L 515.192 107.699 Q 517.116 107.699 518.719 108.981 L 518.719 108.981 L 518.719 108.981 Q 520.322 110.264 520.322 111.707 L 520.322 111.707 L 520.322 154.511 L 520.322 154.511 Q 520.322 162.527 526.254 168.779 L 526.254 168.779 L 526.254 168.779 Q 532.185 175.032 540.362 175.032 L 540.362 175.032 L 540.362 175.032 Q 548.538 175.032 554.469 168.779 L 554.469 168.779 L 554.469 168.779 Q 560.401 162.527 560.401 154.511 L 560.401 154.511 L 560.401 111.546 L 560.401 111.546 Q 560.401 109.943 562.004 108.821 L 562.004 108.821 L 562.004 108.821 Q 563.607 107.699 565.691 107.699 L 565.691 107.699 L 565.691 107.699 Q 567.776 107.699 569.299 108.821 L 569.299 108.821 L 569.299 108.821 Q 570.822 109.943 570.822 111.546 L 570.822 111.546 L 570.822 154.511 L 570.822 154.511 Q 570.822 166.535 561.764 175.593 L 561.764 175.593 L 561.764 175.593 Q 552.706 184.651 540.362 184.651 L 540.362 184.651 L 540.362 184.651 Q 527.857 184.651 518.879 175.593 L 518.879 175.593 L 518.879 175.593 Q 509.901 166.535 509.901 154.511 Z  M 587.334 154.191 L 587.334 154.191 L 587.334 136.235 L 587.334 136.235 Q 587.334 124.211 596.312 115.474 L 596.312 115.474 L 596.312 115.474 Q 605.29 106.737 617.955 106.737 L 617.955 106.737 L 617.955 106.737 Q 630.139 106.737 639.036 115.073 L 639.036 115.073 L 639.036 115.073 Q 647.934 123.41 647.934 135.915 L 647.934 135.915 L 647.934 135.915 Q 647.934 140.403 646.892 143.129 L 646.892 143.129 L 646.892 143.129 Q 645.85 145.854 643.525 146.976 L 643.525 146.976 L 643.525 146.976 Q 641.2 148.099 639.277 148.419 L 639.277 148.419 L 639.277 148.419 Q 637.353 148.74 633.986 148.74 L 633.986 148.74 L 597.755 148.74 L 597.755 154.672 L 597.755 154.672 Q 597.755 164.13 604.568 169.821 L 604.568 169.821 L 604.568 169.821 Q 611.382 175.513 622.123 175.513 L 622.123 175.513 L 622.123 175.513 Q 627.573 175.513 631.662 173.909 L 631.662 173.909 L 631.662 173.909 Q 635.75 172.306 637.914 170.703 L 637.914 170.703 L 637.914 170.703 Q 640.078 169.1 641.361 169.1 L 641.361 169.1 L 641.361 169.1 Q 643.124 169.1 644.487 170.783 L 644.487 170.783 L 644.487 170.783 Q 645.85 172.467 645.85 174.07 L 645.85 174.07 L 645.85 174.07 Q 645.85 177.436 638.956 181.044 L 638.956 181.044 L 638.956 181.044 Q 632.062 184.651 621.802 184.651 L 621.802 184.651 L 621.802 184.651 Q 606.572 184.651 596.953 176.234 L 596.953 176.234 L 596.953 176.234 Q 587.334 167.817 587.334 154.191 Z  M 597.755 134.953 L 597.755 141.045 L 629.818 141.045 L 629.818 141.045 Q 634.627 141.045 636.231 140.003 L 636.231 140.003 L 636.231 140.003 Q 637.834 138.961 637.834 135.594 L 637.834 135.594 L 637.834 135.594 Q 637.834 127.578 632.143 121.486 L 632.143 121.486 L 632.143 121.486 Q 626.451 115.394 617.794 115.394 L 617.794 115.394 L 617.794 115.394 Q 609.458 115.394 603.606 121.165 L 603.606 121.165 L 603.606 121.165 Q 597.755 126.937 597.755 134.953 L 597.755 134.953 Z  M 659.957 177.116 L 659.957 177.116 L 659.957 177.116 Q 659.957 173.909 662.041 171.745 L 662.041 171.745 L 662.041 171.745 Q 664.126 169.581 667.332 169.581 L 667.332 169.581 L 667.332 169.581 Q 670.218 169.581 672.382 171.825 L 672.382 171.825 L 672.382 171.825 Q 674.546 174.07 674.546 177.116 L 674.546 177.116 L 674.546 177.116 Q 674.546 180.001 672.382 182.246 L 672.382 182.246 L 672.382 182.246 Q 670.218 184.49 667.332 184.49 L 667.332 184.49 L 667.332 184.49 Q 664.126 184.49 662.041 182.326 L 662.041 182.326 L 662.041 182.326 Q 659.957 180.162 659.957 177.116 Z  M 1154.701 301.357 L 1154.701 301.357 L 1154.701 301.357 Q 1153.315 301.357 1152.231 301.116 L 1152.231 301.116 L 1152.231 301.116 Q 1151.146 300.875 1150.363 300.574 L 1150.363 300.574 L 1151.387 296.839 L 1151.387 296.839 Q 1151.93 297.019 1152.653 297.17 L 1152.653 297.17 L 1152.653 297.17 Q 1153.376 297.321 1154.159 297.321 L 1154.159 297.321 L 1154.159 297.321 Q 1156.328 297.321 1157.051 295.815 L 1157.051 295.815 L 1157.051 295.815 Q 1157.773 294.308 1157.773 291.597 L 1157.773 291.597 L 1157.773 259.005 L 1162.714 259.005 L 1162.714 291.597 L 1162.714 291.597 Q 1162.714 296.056 1160.906 298.706 L 1160.906 298.706 L 1160.906 298.706 Q 1159.099 301.357 1154.701 301.357 Z  M 1160.304 252.98 L 1160.304 252.98 L 1160.304 252.98 Q 1158.858 252.98 1157.864 252.077 L 1157.864 252.077 L 1157.864 252.077 Q 1156.87 251.173 1156.87 249.787 L 1156.87 249.787 L 1156.87 249.787 Q 1156.87 248.341 1157.864 247.468 L 1157.864 247.468 L 1157.864 247.468 Q 1158.858 246.594 1160.304 246.594 L 1160.304 246.594 L 1160.304 246.594 Q 1161.689 246.594 1162.683 247.468 L 1162.683 247.468 L 1162.683 247.468 Q 1163.677 248.341 1163.677 249.787 L 1163.677 249.787 L 1163.677 249.787 Q 1163.677 251.173 1162.683 252.077 L 1162.683 252.077 L 1162.683 252.077 Q 1161.689 252.98 1160.304 252.98 Z  M 1180.245 289.007 L 1180.245 289.007 L 1180.245 289.007 Q 1177.112 289.007 1174.281 287.862 L 1174.281 287.862 L 1174.281 287.862 Q 1171.449 286.718 1169.341 284.97 L 1169.341 284.97 L 1171.811 281.657 L 1171.811 281.657 Q 1173.738 283.223 1175.757 284.187 L 1175.757 284.187 L 1175.757 284.187 Q 1177.775 285.151 1180.426 285.151 L 1180.426 285.151 L 1180.426 285.151 Q 1183.317 285.151 1184.763 283.826 L 1184.763 283.826 L 1184.763 283.826 Q 1186.209 282.5 1186.209 280.573 L 1186.209 280.573 L 1186.209 280.573 Q 1186.209 279.428 1185.607 278.584 L 1185.607 278.584 L 1185.607 278.584 Q 1185.004 277.741 1184.07 277.108 L 1184.07 277.108 L 1184.07 277.108 Q 1183.137 276.476 1181.932 275.994 L 1181.932 275.994 L 1181.932 275.994 Q 1180.727 275.512 1179.522 275.03 L 1179.522 275.03 L 1179.522 275.03 Q 1177.956 274.488 1176.389 273.795 L 1176.389 273.795 L 1176.389 273.795 Q 1174.823 273.102 1173.588 272.108 L 1173.588 272.108 L 1173.588 272.108 Q 1172.353 271.114 1171.57 269.789 L 1171.57 269.789 L 1171.57 269.789 Q 1170.786 268.463 1170.786 266.596 L 1170.786 266.596 L 1170.786 266.596 Q 1170.786 264.849 1171.479 263.312 L 1171.479 263.312 L 1171.479 263.312 Q 1172.172 261.776 1173.467 260.662 L 1173.467 260.662 L 1173.467 260.662 Q 1174.763 259.547 1176.63 258.914 L 1176.63 258.914 L 1176.63 258.914 Q 1178.498 258.282 1180.847 258.282 L 1180.847 258.282 L 1180.847 258.282 Q 1183.619 258.282 1185.938 259.246 L 1185.938 259.246 L 1185.938 259.246 Q 1188.257 260.21 1189.944 261.595 L 1189.944 261.595 L 1187.595 264.728 L 1187.595 264.728 Q 1186.089 263.583 1184.462 262.861 L 1184.462 262.861 L 1184.462 262.861 Q 1182.835 262.138 1180.908 262.138 L 1180.908 262.138 L 1180.908 262.138 Q 1178.136 262.138 1176.841 263.403 L 1176.841 263.403 L 1176.841 263.403 Q 1175.546 264.668 1175.546 266.355 L 1175.546 266.355 L 1175.546 266.355 Q 1175.546 267.379 1176.088 268.132 L 1176.088 268.132 L 1176.088 268.132 Q 1176.63 268.885 1177.534 269.457 L 1177.534 269.457 L 1177.534 269.457 Q 1178.438 270.03 1179.612 270.482 L 1179.612 270.482 L 1179.612 270.482 Q 1180.787 270.933 1182.052 271.415 L 1182.052 271.415 L 1182.052 271.415 Q 1183.619 272.018 1185.215 272.68 L 1185.215 272.68 L 1185.215 272.68 Q 1186.812 273.343 1188.077 274.337 L 1188.077 274.337 L 1188.077 274.337 Q 1189.342 275.331 1190.155 276.777 L 1190.155 276.777 L 1190.155 276.777 Q 1190.969 278.223 1190.969 280.271 L 1190.969 280.271 L 1190.969 280.271 Q 1190.969 282.079 1190.276 283.645 L 1190.276 283.645 L 1190.276 283.645 Q 1189.583 285.211 1188.227 286.416 L 1188.227 286.416 L 1188.227 286.416 Q 1186.872 287.621 1184.854 288.314 L 1184.854 288.314 L 1184.854 288.314 Q 1182.835 289.007 1180.245 289.007 Z  M 1064.394 288.284 L 1058.55 288.284 L 1045.898 248.763 L 1051.26 248.763 L 1057.586 270.09 L 1057.586 270.09 Q 1058.67 273.644 1059.484 276.657 L 1059.484 276.657 L 1059.484 276.657 Q 1060.297 279.669 1061.442 283.163 L 1061.442 283.163 L 1061.683 283.163 L 1061.683 283.163 Q 1062.767 279.669 1063.61 276.657 L 1063.61 276.657 L 1063.61 276.657 Q 1064.454 273.644 1065.478 270.09 L 1065.478 270.09 L 1071.804 248.763 L 1076.925 248.763 L 1064.394 288.284 Z  M 1088.612 289.007 L 1088.612 289.007 L 1088.612 289.007 Q 1083.913 289.007 1081.774 286.115 L 1081.774 286.115 L 1081.774 286.115 Q 1079.636 283.223 1079.636 277.56 L 1079.636 277.56 L 1079.636 259.005 L 1084.636 259.005 L 1084.636 276.898 L 1084.636 276.898 Q 1084.636 281.055 1085.931 282.892 L 1085.931 282.892 L 1085.931 282.892 Q 1087.226 284.729 1090.118 284.729 L 1090.118 284.729 L 1090.118 284.729 Q 1092.407 284.729 1094.155 283.555 L 1094.155 283.555 L 1094.155 283.555 Q 1095.902 282.38 1098.01 279.789 L 1098.01 279.789 L 1098.01 259.005 L 1102.95 259.005 L 1102.95 288.284 L 1098.854 288.284 L 1098.432 283.705 L 1098.251 283.705 L 1098.251 283.705 Q 1096.203 286.115 1093.944 287.561 L 1093.944 287.561 L 1093.944 287.561 Q 1091.685 289.007 1088.612 289.007 Z  M 1124.699 289.007 L 1124.699 289.007 L 1124.699 289.007 Q 1121.747 289.007 1119.186 287.953 L 1119.186 287.953 L 1119.186 287.953 Q 1116.626 286.898 1114.728 284.94 L 1114.728 284.94 L 1114.728 284.94 Q 1112.831 282.982 1111.746 280.151 L 1111.746 280.151 L 1111.746 280.151 Q 1110.662 277.319 1110.662 273.705 L 1110.662 273.705 L 1110.662 273.705 Q 1110.662 270.09 1111.776 267.228 L 1111.776 267.228 L 1111.776 267.228 Q 1112.891 264.367 1114.728 262.379 L 1114.728 262.379 L 1114.728 262.379 Q 1116.566 260.39 1118.915 259.336 L 1118.915 259.336 L 1118.915 259.336 Q 1121.265 258.282 1123.795 258.282 L 1123.795 258.282 L 1123.795 258.282 Q 1126.567 258.282 1128.765 259.246 L 1128.765 259.246 L 1128.765 259.246 Q 1130.964 260.21 1132.44 262.017 L 1132.44 262.017 L 1132.44 262.017 Q 1133.916 263.824 1134.7 266.355 L 1134.7 266.355 L 1134.7 266.355 Q 1135.483 268.885 1135.483 272.018 L 1135.483 272.018 L 1135.483 272.018 Q 1135.483 272.801 1135.453 273.554 L 1135.453 273.554 L 1135.453 273.554 Q 1135.423 274.307 1135.302 274.849 L 1135.302 274.849 L 1115.542 274.849 L 1115.542 274.849 Q 1115.843 279.548 1118.463 282.29 L 1118.463 282.29 L 1118.463 282.29 Q 1121.084 285.031 1125.301 285.031 L 1125.301 285.031 L 1125.301 285.031 Q 1127.41 285.031 1129.187 284.398 L 1129.187 284.398 L 1129.187 284.398 Q 1130.964 283.766 1132.591 282.741 L 1132.591 282.741 L 1134.338 285.995 L 1134.338 285.995 Q 1132.41 287.2 1130.061 288.103 L 1130.061 288.103 L 1130.061 288.103 Q 1127.711 289.007 1124.699 289.007 Z  M 1115.481 271.295 L 1115.481 271.295 L 1131.145 271.295 L 1131.145 271.295 Q 1131.145 266.837 1129.247 264.517 L 1129.247 264.517 L 1129.247 264.517 Q 1127.35 262.198 1123.916 262.198 L 1123.916 262.198 L 1123.916 262.198 Q 1122.349 262.198 1120.934 262.8 L 1120.934 262.8 L 1120.934 262.8 Q 1119.518 263.403 1118.373 264.577 L 1118.373 264.577 L 1118.373 264.577 Q 1117.229 265.752 1116.475 267.439 L 1116.475 267.439 L 1116.475 267.439 Q 1115.722 269.126 1115.481 271.295 Z  M 1145.303 289.007 L 1145.303 289.007 L 1145.303 289.007 Q 1143.797 289.007 1142.742 287.953 L 1142.742 287.953 L 1142.742 287.953 Q 1141.688 286.898 1141.688 285.272 L 1141.688 285.272 L 1141.688 285.272 Q 1141.688 283.525 1142.742 282.47 L 1142.742 282.47 L 1142.742 282.47 Q 1143.797 281.416 1145.303 281.416 L 1145.303 281.416 L 1145.303 281.416 Q 1146.749 281.416 1147.803 282.47 L 1147.803 282.47 L 1147.803 282.47 Q 1148.857 283.525 1148.857 285.272 L 1148.857 285.272 L 1148.857 285.272 Q 1148.857 286.898 1147.803 287.953 L 1147.803 287.953 L 1147.803 287.953 Q 1146.749 289.007 1145.303 289.007 Z  M 985.472 289.007 L 985.472 289.007 L 985.472 289.007 Q 979.93 289.007 976.647 285.031 L 976.647 285.031 L 976.647 285.031 Q 973.363 281.055 973.363 273.705 L 973.363 273.705 L 973.363 273.705 Q 973.363 270.15 974.417 267.289 L 974.417 267.289 L 974.417 267.289 Q 975.472 264.427 977.219 262.439 L 977.219 262.439 L 977.219 262.439 Q 978.966 260.451 981.255 259.366 L 981.255 259.366 L 981.255 259.366 Q 983.545 258.282 986.075 258.282 L 986.075 258.282 L 986.075 258.282 Q 988.605 258.282 990.473 259.186 L 990.473 259.186 L 990.473 259.186 Q 992.34 260.089 994.268 261.656 L 994.268 261.656 L 994.027 256.655 L 994.027 245.389 L 999.028 245.389 L 999.028 288.284 L 994.931 288.284 L 994.509 284.85 L 994.329 284.85 L 994.329 284.85 Q 992.581 286.537 990.322 287.772 L 990.322 287.772 L 990.322 287.772 Q 988.063 289.007 985.472 289.007 Z  M 986.557 284.85 L 986.557 284.85 L 986.557 284.85 Q 988.605 284.85 990.413 283.856 L 990.413 283.856 L 990.413 283.856 Q 992.22 282.862 994.027 280.814 L 994.027 280.814 L 994.027 265.511 L 994.027 265.511 Q 992.16 263.824 990.443 263.132 L 990.443 263.132 L 990.443 263.132 Q 988.726 262.439 986.918 262.439 L 986.918 262.439 L 986.918 262.439 Q 985.171 262.439 983.635 263.252 L 983.635 263.252 L 983.635 263.252 Q 982.099 264.065 980.954 265.541 L 980.954 265.541 L 980.954 265.541 Q 979.809 267.017 979.147 269.066 L 979.147 269.066 L 979.147 269.066 Q 978.484 271.114 978.484 273.644 L 978.484 273.644 L 978.484 273.644 Q 978.484 278.946 980.593 281.898 L 980.593 281.898 L 980.593 281.898 Q 982.701 284.85 986.557 284.85 Z  M 1020.776 289.007 L 1020.776 289.007 L 1020.776 289.007 Q 1017.824 289.007 1015.264 287.953 L 1015.264 287.953 L 1015.264 287.953 Q 1012.703 286.898 1010.805 284.94 L 1010.805 284.94 L 1010.805 284.94 Q 1008.908 282.982 1007.823 280.151 L 1007.823 280.151 L 1007.823 280.151 Q 1006.739 277.319 1006.739 273.705 L 1006.739 273.705 L 1006.739 273.705 Q 1006.739 270.09 1007.854 267.228 L 1007.854 267.228 L 1007.854 267.228 Q 1008.968 264.367 1010.805 262.379 L 1010.805 262.379 L 1010.805 262.379 Q 1012.643 260.39 1014.993 259.336 L 1014.993 259.336 L 1014.993 259.336 Q 1017.342 258.282 1019.872 258.282 L 1019.872 258.282 L 1019.872 258.282 Q 1022.644 258.282 1024.843 259.246 L 1024.843 259.246 L 1024.843 259.246 Q 1027.042 260.21 1028.518 262.017 L 1028.518 262.017 L 1028.518 262.017 Q 1029.994 263.824 1030.777 266.355 L 1030.777 266.355 L 1030.777 266.355 Q 1031.56 268.885 1031.56 272.018 L 1031.56 272.018 L 1031.56 272.018 Q 1031.56 272.801 1031.53 273.554 L 1031.53 273.554 L 1031.53 273.554 Q 1031.5 274.307 1031.379 274.849 L 1031.379 274.849 L 1011.619 274.849 L 1011.619 274.849 Q 1011.92 279.548 1014.541 282.29 L 1014.541 282.29 L 1014.541 282.29 Q 1017.161 285.031 1021.379 285.031 L 1021.379 285.031 L 1021.379 285.031 Q 1023.487 285.031 1025.264 284.398 L 1025.264 284.398 L 1025.264 284.398 Q 1027.042 283.766 1028.668 282.741 L 1028.668 282.741 L 1030.415 285.995 L 1030.415 285.995 Q 1028.487 287.2 1026.138 288.103 L 1026.138 288.103 L 1026.138 288.103 Q 1023.788 289.007 1020.776 289.007 Z  M 1011.559 271.295 L 1011.559 271.295 L 1027.222 271.295 L 1027.222 271.295 Q 1027.222 266.837 1025.325 264.517 L 1025.325 264.517 L 1025.325 264.517 Q 1023.427 262.198 1019.993 262.198 L 1019.993 262.198 L 1019.993 262.198 Q 1018.426 262.198 1017.011 262.8 L 1017.011 262.8 L 1017.011 262.8 Q 1015.595 263.403 1014.45 264.577 L 1014.45 264.577 L 1014.45 264.577 Q 1013.306 265.752 1012.553 267.439 L 1012.553 267.439 L 1012.553 267.439 Q 1011.8 269.126 1011.559 271.295 Z  M 743.588 289.007 L 743.588 289.007 L 743.588 289.007 Q 741.54 289.007 739.341 288.013 L 739.341 288.013 L 739.341 288.013 Q 737.142 287.019 735.214 285.272 L 735.214 285.272 L 735.034 285.272 L 734.612 288.284 L 730.636 288.284 L 730.636 245.389 L 735.576 245.389 L 735.576 257.077 L 735.455 262.379 L 735.455 262.379 Q 737.443 260.631 739.793 259.457 L 739.793 259.457 L 739.793 259.457 Q 742.143 258.282 744.613 258.282 L 744.613 258.282 L 744.613 258.282 Q 747.444 258.282 749.613 259.336 L 749.613 259.336 L 749.613 259.336 Q 751.782 260.39 753.258 262.348 L 753.258 262.348 L 753.258 262.348 Q 754.734 264.306 755.487 267.048 L 755.487 267.048 L 755.487 267.048 Q 756.24 269.789 756.24 273.162 L 756.24 273.162 L 756.24 273.162 Q 756.24 276.898 755.216 279.85 L 755.216 279.85 L 755.216 279.85 Q 754.191 282.802 752.444 284.85 L 752.444 284.85 L 752.444 284.85 Q 750.697 286.898 748.408 287.953 L 748.408 287.953 L 748.408 287.953 Q 746.119 289.007 743.588 289.007 Z  M 742.745 284.85 L 742.745 284.85 L 742.745 284.85 Q 744.552 284.85 746.089 284.037 L 746.089 284.037 L 746.089 284.037 Q 747.625 283.223 748.739 281.747 L 748.739 281.747 L 748.739 281.747 Q 749.854 280.271 750.486 278.103 L 750.486 278.103 L 750.486 278.103 Q 751.119 275.934 751.119 273.223 L 751.119 273.223 L 751.119 273.223 Q 751.119 270.813 750.697 268.825 L 750.697 268.825 L 750.697 268.825 Q 750.276 266.837 749.342 265.421 L 749.342 265.421 L 749.342 265.421 Q 748.408 264.005 746.932 263.222 L 746.932 263.222 L 746.932 263.222 Q 745.456 262.439 743.408 262.439 L 743.408 262.439 L 743.408 262.439 Q 739.853 262.439 735.576 266.415 L 735.576 266.415 L 735.576 281.777 L 735.576 281.777 Q 737.504 283.464 739.401 284.157 L 739.401 284.157 L 739.401 284.157 Q 741.299 284.85 742.745 284.85 Z  M 775.337 289.007 L 775.337 289.007 L 775.337 289.007 Q 772.626 289.007 770.187 287.983 L 770.187 287.983 L 770.187 287.983 Q 767.747 286.959 765.879 285.001 L 765.879 285.001 L 765.879 285.001 Q 764.011 283.043 762.897 280.181 L 762.897 280.181 L 762.897 280.181 Q 761.782 277.319 761.782 273.705 L 761.782 273.705 L 761.782 273.705 Q 761.782 270.03 762.897 267.168 L 762.897 267.168 L 762.897 267.168 Q 764.011 264.306 765.879 262.318 L 765.879 262.318 L 765.879 262.318 Q 767.747 260.33 770.187 259.306 L 770.187 259.306 L 770.187 259.306 Q 772.626 258.282 775.337 258.282 L 775.337 258.282 L 775.337 258.282 Q 778.049 258.282 780.488 259.306 L 780.488 259.306 L 780.488 259.306 Q 782.928 260.33 784.796 262.318 L 784.796 262.318 L 784.796 262.318 Q 786.664 264.306 787.778 267.168 L 787.778 267.168 L 787.778 267.168 Q 788.893 270.03 788.893 273.705 L 788.893 273.705 L 788.893 273.705 Q 788.893 277.319 787.778 280.181 L 787.778 280.181 L 787.778 280.181 Q 786.664 283.043 784.796 285.001 L 784.796 285.001 L 784.796 285.001 Q 782.928 286.959 780.488 287.983 L 780.488 287.983 L 780.488 287.983 Q 778.049 289.007 775.337 289.007 Z  M 775.337 284.91 L 775.337 284.91 L 775.337 284.91 Q 777.205 284.91 778.771 284.097 L 778.771 284.097 L 778.771 284.097 Q 780.338 283.284 781.452 281.808 L 781.452 281.808 L 781.452 281.808 Q 782.567 280.332 783.169 278.283 L 783.169 278.283 L 783.169 278.283 Q 783.772 276.235 783.772 273.705 L 783.772 273.705 L 783.772 273.705 Q 783.772 271.174 783.169 269.096 L 783.169 269.096 L 783.169 269.096 Q 782.567 267.017 781.452 265.511 L 781.452 265.511 L 781.452 265.511 Q 780.338 264.005 778.771 263.192 L 778.771 263.192 L 778.771 263.192 Q 777.205 262.379 775.337 262.379 L 775.337 262.379 L 775.337 262.379 Q 773.47 262.379 771.904 263.192 L 771.904 263.192 L 771.904 263.192 Q 770.337 264.005 769.223 265.511 L 769.223 265.511 L 769.223 265.511 Q 768.108 267.017 767.506 269.096 L 767.506 269.096 L 767.506 269.096 Q 766.903 271.174 766.903 273.705 L 766.903 273.705 L 766.903 273.705 Q 766.903 276.235 767.506 278.283 L 767.506 278.283 L 767.506 278.283 Q 768.108 280.332 769.223 281.808 L 769.223 281.808 L 769.223 281.808 Q 770.337 283.284 771.904 284.097 L 771.904 284.097 L 771.904 284.097 Q 773.47 284.91 775.337 284.91 Z  M 801.845 289.007 L 801.845 289.007 L 801.845 289.007 Q 799.014 289.007 797.809 287.32 L 797.809 287.32 L 797.809 287.32 Q 796.604 285.633 796.604 282.38 L 796.604 282.38 L 796.604 245.389 L 801.544 245.389 L 801.544 282.741 L 801.544 282.741 Q 801.544 283.946 801.966 284.428 L 801.966 284.428 L 801.966 284.428 Q 802.388 284.91 802.93 284.91 L 802.93 284.91 L 802.93 284.91 Q 803.171 284.91 803.382 284.91 L 803.382 284.91 L 803.382 284.91 Q 803.593 284.91 804.014 284.79 L 804.014 284.79 L 804.677 288.525 L 804.677 288.525 Q 804.195 288.766 803.532 288.886 L 803.532 288.886 L 803.532 288.886 Q 802.87 289.007 801.845 289.007 Z  M 816.907 288.284 L 811.967 288.284 L 811.967 259.005 L 816.907 259.005 L 816.907 288.284 Z  M 814.497 252.98 L 814.497 252.98 L 814.497 252.98 Q 813.051 252.98 812.057 252.077 L 812.057 252.077 L 812.057 252.077 Q 811.063 251.173 811.063 249.787 L 811.063 249.787 L 811.063 249.787 Q 811.063 248.341 812.057 247.468 L 812.057 247.468 L 812.057 247.468 Q 813.051 246.594 814.497 246.594 L 814.497 246.594 L 814.497 246.594 Q 815.943 246.594 816.937 247.468 L 816.937 247.468 L 816.937 247.468 Q 817.931 248.341 817.931 249.787 L 817.931 249.787 L 817.931 249.787 Q 817.931 251.173 816.937 252.077 L 816.937 252.077 L 816.937 252.077 Q 815.943 252.98 814.497 252.98 Z  M 838.896 288.284 L 833.113 288.284 L 822.57 259.005 L 827.691 259.005 L 833.233 275.632 L 833.233 275.632 Q 833.896 277.801 834.589 279.97 L 834.589 279.97 L 834.589 279.97 Q 835.281 282.139 835.944 284.248 L 835.944 284.248 L 836.185 284.248 L 836.185 284.248 Q 836.848 282.139 837.51 279.97 L 837.51 279.97 L 837.51 279.97 Q 838.173 277.801 838.836 275.632 L 838.836 275.632 L 844.378 259.005 L 849.258 259.005 L 838.896 288.284 Z  M 859.861 288.284 L 854.921 288.284 L 854.921 259.005 L 859.861 259.005 L 859.861 288.284 Z  M 857.452 252.98 L 857.452 252.98 L 857.452 252.98 Q 856.006 252.98 855.012 252.077 L 855.012 252.077 L 855.012 252.077 Q 854.018 251.173 854.018 249.787 L 854.018 249.787 L 854.018 249.787 Q 854.018 248.341 855.012 247.468 L 855.012 247.468 L 855.012 247.468 Q 856.006 246.594 857.452 246.594 L 857.452 246.594 L 857.452 246.594 Q 858.898 246.594 859.892 247.468 L 859.892 247.468 L 859.892 247.468 Q 860.886 248.341 860.886 249.787 L 860.886 249.787 L 860.886 249.787 Q 860.886 251.173 859.892 252.077 L 859.892 252.077 L 859.892 252.077 Q 858.898 252.98 857.452 252.98 Z  M 876.489 289.007 L 876.489 289.007 L 876.489 289.007 Q 872.814 289.007 870.374 286.838 L 870.374 286.838 L 870.374 286.838 Q 867.934 284.669 867.934 280.693 L 867.934 280.693 L 867.934 280.693 Q 867.934 275.873 872.212 273.313 L 872.212 273.313 L 872.212 273.313 Q 876.489 270.753 885.887 269.728 L 885.887 269.728 L 885.887 269.728 Q 885.887 268.343 885.616 267.017 L 885.616 267.017 L 885.616 267.017 Q 885.345 265.692 884.682 264.668 L 884.682 264.668 L 884.682 264.668 Q 884.02 263.644 882.845 263.011 L 882.845 263.011 L 882.845 263.011 Q 881.67 262.379 879.863 262.379 L 879.863 262.379 L 879.863 262.379 Q 877.332 262.379 875.103 263.342 L 875.103 263.342 L 875.103 263.342 Q 872.874 264.306 871.127 265.511 L 871.127 265.511 L 869.199 262.077 L 869.199 262.077 Q 871.248 260.752 874.2 259.517 L 874.2 259.517 L 874.2 259.517 Q 877.152 258.282 880.706 258.282 L 880.706 258.282 L 880.706 258.282 Q 886.068 258.282 888.478 261.565 L 888.478 261.565 L 888.478 261.565 Q 890.888 264.849 890.888 270.331 L 890.888 270.331 L 890.888 288.284 L 886.791 288.284 L 886.369 284.79 L 886.189 284.79 L 886.189 284.79 Q 884.08 286.537 881.67 287.772 L 881.67 287.772 L 881.67 287.772 Q 879.26 289.007 876.489 289.007 Z  M 877.935 285.031 L 877.935 285.031 L 877.935 285.031 Q 880.044 285.031 881.911 284.037 L 881.911 284.037 L 881.911 284.037 Q 883.779 283.043 885.887 281.115 L 885.887 281.115 L 885.887 272.982 L 885.887 272.982 Q 882.212 273.464 879.712 274.126 L 879.712 274.126 L 879.712 274.126 Q 877.212 274.789 875.676 275.693 L 875.676 275.693 L 875.676 275.693 Q 874.14 276.596 873.447 277.771 L 873.447 277.771 L 873.447 277.771 Q 872.754 278.946 872.754 280.332 L 872.754 280.332 L 872.754 280.332 Q 872.754 282.862 874.26 283.946 L 874.26 283.946 L 874.26 283.946 Q 875.766 285.031 877.935 285.031 Z  M 905.045 288.284 L 900.105 288.284 L 900.105 259.005 L 904.202 259.005 L 904.624 263.222 L 904.804 263.222 L 904.804 263.222 Q 906.913 261.113 909.232 259.698 L 909.232 259.698 L 909.232 259.698 Q 911.552 258.282 914.624 258.282 L 914.624 258.282 L 914.624 258.282 Q 919.263 258.282 921.402 261.174 L 921.402 261.174 L 921.402 261.174 Q 923.54 264.065 923.54 269.728 L 923.54 269.728 L 923.54 288.284 L 918.6 288.284 L 918.6 270.391 L 918.6 270.391 Q 918.6 266.234 917.275 264.397 L 917.275 264.397 L 917.275 264.397 Q 915.95 262.559 913.058 262.559 L 913.058 262.559 L 913.058 262.559 Q 910.768 262.559 909.021 263.704 L 909.021 263.704 L 909.021 263.704 Q 907.274 264.849 905.045 267.078 L 905.045 267.078 L 905.045 288.284 Z  M 939.807 289.007 L 939.807 289.007 L 939.807 289.007 Q 936.132 289.007 933.692 286.838 L 933.692 286.838 L 933.692 286.838 Q 931.252 284.669 931.252 280.693 L 931.252 280.693 L 931.252 280.693 Q 931.252 275.873 935.529 273.313 L 935.529 273.313 L 935.529 273.313 Q 939.807 270.753 949.205 269.728 L 949.205 269.728 L 949.205 269.728 Q 949.205 268.343 948.934 267.017 L 948.934 267.017 L 948.934 267.017 Q 948.663 265.692 948 264.668 L 948 264.668 L 948 264.668 Q 947.337 263.644 946.163 263.011 L 946.163 263.011 L 946.163 263.011 Q 944.988 262.379 943.18 262.379 L 943.18 262.379 L 943.18 262.379 Q 940.65 262.379 938.421 263.342 L 938.421 263.342 L 938.421 263.342 Q 936.192 264.306 934.445 265.511 L 934.445 265.511 L 932.517 262.077 L 932.517 262.077 Q 934.565 260.752 937.517 259.517 L 937.517 259.517 L 937.517 259.517 Q 940.469 258.282 944.024 258.282 L 944.024 258.282 L 944.024 258.282 Q 949.386 258.282 951.795 261.565 L 951.795 261.565 L 951.795 261.565 Q 954.205 264.849 954.205 270.331 L 954.205 270.331 L 954.205 288.284 L 950.109 288.284 L 949.687 284.79 L 949.506 284.79 L 949.506 284.79 Q 947.398 286.537 944.988 287.772 L 944.988 287.772 L 944.988 287.772 Q 942.578 289.007 939.807 289.007 Z  M 941.253 285.031 L 941.253 285.031 L 941.253 285.031 Q 943.361 285.031 945.229 284.037 L 945.229 284.037 L 945.229 284.037 Q 947.096 283.043 949.205 281.115 L 949.205 281.115 L 949.205 272.982 L 949.205 272.982 Q 945.53 273.464 943.03 274.126 L 943.03 274.126 L 943.03 274.126 Q 940.53 274.789 938.993 275.693 L 938.993 275.693 L 938.993 275.693 Q 937.457 276.596 936.764 277.771 L 936.764 277.771 L 936.764 277.771 Q 936.071 278.946 936.071 280.332 L 936.071 280.332 L 936.071 280.332 Q 936.071 282.862 937.578 283.946 L 937.578 283.946 L 937.578 283.946 Q 939.084 285.031 941.253 285.031 Z  M 439.23 289.007 L 439.23 289.007 L 439.23 289.007 Q 435.495 289.007 432.362 287.621 L 432.362 287.621 L 432.362 287.621 Q 429.229 286.236 426.91 283.615 L 426.91 283.615 L 426.91 283.615 Q 424.591 280.994 423.295 277.169 L 423.295 277.169 L 423.295 277.169 Q 422 273.343 422 268.524 L 422 268.524 L 422 268.524 Q 422 263.764 423.325 259.969 L 423.325 259.969 L 423.325 259.969 Q 424.651 256.173 427 253.523 L 427 253.523 L 427 253.523 Q 429.35 250.872 432.543 249.456 L 432.543 249.456 L 432.543 249.456 Q 435.736 248.04 439.531 248.04 L 439.531 248.04 L 439.531 248.04 Q 443.146 248.04 445.887 249.516 L 445.887 249.516 L 445.887 249.516 Q 448.628 250.992 450.375 252.92 L 450.375 252.92 L 447.664 256.173 L 447.664 256.173 Q 446.098 254.486 444.11 253.462 L 444.11 253.462 L 444.11 253.462 Q 442.122 252.438 439.592 252.438 L 439.592 252.438 L 439.592 252.438 Q 436.76 252.438 434.471 253.553 L 434.471 253.553 L 434.471 253.553 Q 432.181 254.667 430.555 256.746 L 430.555 256.746 L 430.555 256.746 Q 428.928 258.824 428.055 261.776 L 428.055 261.776 L 428.055 261.776 Q 427.181 264.728 427.181 268.403 L 427.181 268.403 L 427.181 268.403 Q 427.181 272.138 428.055 275.12 L 428.055 275.12 L 428.055 275.12 Q 428.928 278.103 430.495 280.211 L 430.495 280.211 L 430.495 280.211 Q 432.061 282.32 434.32 283.464 L 434.32 283.464 L 434.32 283.464 Q 436.579 284.609 439.411 284.609 L 439.411 284.609 L 439.411 284.609 Q 442.303 284.609 444.471 283.434 L 444.471 283.434 L 444.471 283.434 Q 446.64 282.259 448.568 280.151 L 448.568 280.151 L 451.339 283.284 L 451.339 283.284 Q 448.99 285.995 446.038 287.501 L 446.038 287.501 L 446.038 287.501 Q 443.086 289.007 439.23 289.007 Z  M 469.594 289.007 L 469.594 289.007 L 469.594 289.007 Q 466.883 289.007 464.443 287.983 L 464.443 287.983 L 464.443 287.983 Q 462.003 286.959 460.135 285.001 L 460.135 285.001 L 460.135 285.001 Q 458.268 283.043 457.153 280.181 L 457.153 280.181 L 457.153 280.181 Q 456.038 277.319 456.038 273.705 L 456.038 273.705 L 456.038 273.705 Q 456.038 270.03 457.153 267.168 L 457.153 267.168 L 457.153 267.168 Q 458.268 264.306 460.135 262.318 L 460.135 262.318 L 460.135 262.318 Q 462.003 260.33 464.443 259.306 L 464.443 259.306 L 464.443 259.306 Q 466.883 258.282 469.594 258.282 L 469.594 258.282 L 469.594 258.282 Q 472.305 258.282 474.745 259.306 L 474.745 259.306 L 474.745 259.306 Q 477.184 260.33 479.052 262.318 L 479.052 262.318 L 479.052 262.318 Q 480.92 264.306 482.034 267.168 L 482.034 267.168 L 482.034 267.168 Q 483.149 270.03 483.149 273.705 L 483.149 273.705 L 483.149 273.705 Q 483.149 277.319 482.034 280.181 L 482.034 280.181 L 482.034 280.181 Q 480.92 283.043 479.052 285.001 L 479.052 285.001 L 479.052 285.001 Q 477.184 286.959 474.745 287.983 L 474.745 287.983 L 474.745 287.983 Q 472.305 289.007 469.594 289.007 Z  M 469.594 284.91 L 469.594 284.91 L 469.594 284.91 Q 471.461 284.91 473.028 284.097 L 473.028 284.097 L 473.028 284.097 Q 474.594 283.284 475.708 281.808 L 475.708 281.808 L 475.708 281.808 Q 476.823 280.332 477.425 278.283 L 477.425 278.283 L 477.425 278.283 Q 478.028 276.235 478.028 273.705 L 478.028 273.705 L 478.028 273.705 Q 478.028 271.174 477.425 269.096 L 477.425 269.096 L 477.425 269.096 Q 476.823 267.017 475.708 265.511 L 475.708 265.511 L 475.708 265.511 Q 474.594 264.005 473.028 263.192 L 473.028 263.192 L 473.028 263.192 Q 471.461 262.379 469.594 262.379 L 469.594 262.379 L 469.594 262.379 Q 467.726 262.379 466.16 263.192 L 466.16 263.192 L 466.16 263.192 Q 464.593 264.005 463.479 265.511 L 463.479 265.511 L 463.479 265.511 Q 462.364 267.017 461.762 269.096 L 461.762 269.096 L 461.762 269.096 Q 461.159 271.174 461.159 273.705 L 461.159 273.705 L 461.159 273.705 Q 461.159 276.235 461.762 278.283 L 461.762 278.283 L 461.762 278.283 Q 462.364 280.332 463.479 281.808 L 463.479 281.808 L 463.479 281.808 Q 464.593 283.284 466.16 284.097 L 466.16 284.097 L 466.16 284.097 Q 467.726 284.91 469.594 284.91 Z  M 495.8 288.284 L 490.86 288.284 L 490.86 259.005 L 494.957 259.005 L 495.378 263.222 L 495.559 263.222 L 495.559 263.222 Q 497.487 261.113 499.746 259.698 L 499.746 259.698 L 499.746 259.698 Q 502.005 258.282 504.656 258.282 L 504.656 258.282 L 504.656 258.282 Q 508.03 258.282 509.928 259.758 L 509.928 259.758 L 509.928 259.758 Q 511.825 261.234 512.729 263.885 L 512.729 263.885 L 512.729 263.885 Q 515.018 261.354 517.338 259.818 L 517.338 259.818 L 517.338 259.818 Q 519.657 258.282 522.368 258.282 L 522.368 258.282 L 522.368 258.282 Q 526.887 258.282 529.086 261.174 L 529.086 261.174 L 529.086 261.174 Q 531.285 264.065 531.285 269.728 L 531.285 269.728 L 531.285 288.284 L 526.345 288.284 L 526.345 270.391 L 526.345 270.391 Q 526.345 266.234 525.019 264.397 L 525.019 264.397 L 525.019 264.397 Q 523.694 262.559 520.922 262.559 L 520.922 262.559 L 520.922 262.559 Q 517.609 262.559 513.573 267.078 L 513.573 267.078 L 513.573 288.284 L 508.632 288.284 L 508.632 270.391 L 508.632 270.391 Q 508.632 266.234 507.307 264.397 L 507.307 264.397 L 507.307 264.397 Q 505.982 262.559 503.15 262.559 L 503.15 262.559 L 503.15 262.559 Q 499.837 262.559 495.8 267.078 L 495.8 267.078 L 495.8 288.284 Z  M 549.358 289.007 L 549.358 289.007 L 549.358 289.007 Q 544.659 289.007 542.52 286.115 L 542.52 286.115 L 542.52 286.115 Q 540.382 283.223 540.382 277.56 L 540.382 277.56 L 540.382 259.005 L 545.382 259.005 L 545.382 276.898 L 545.382 276.898 Q 545.382 281.055 546.677 282.892 L 546.677 282.892 L 546.677 282.892 Q 547.972 284.729 550.864 284.729 L 550.864 284.729 L 550.864 284.729 Q 553.154 284.729 554.901 283.555 L 554.901 283.555 L 554.901 283.555 Q 556.648 282.38 558.756 279.789 L 558.756 279.789 L 558.756 259.005 L 563.696 259.005 L 563.696 288.284 L 559.6 288.284 L 559.178 283.705 L 558.997 283.705 L 558.997 283.705 Q 556.949 286.115 554.69 287.561 L 554.69 287.561 L 554.69 287.561 Q 552.431 289.007 549.358 289.007 Z  M 578.517 288.284 L 573.577 288.284 L 573.577 259.005 L 577.673 259.005 L 578.095 263.222 L 578.276 263.222 L 578.276 263.222 Q 580.384 261.113 582.704 259.698 L 582.704 259.698 L 582.704 259.698 Q 585.023 258.282 588.096 258.282 L 588.096 258.282 L 588.096 258.282 Q 592.735 258.282 594.873 261.174 L 594.873 261.174 L 594.873 261.174 Q 597.012 264.065 597.012 269.728 L 597.012 269.728 L 597.012 288.284 L 592.072 288.284 L 592.072 270.391 L 592.072 270.391 Q 592.072 266.234 590.747 264.397 L 590.747 264.397 L 590.747 264.397 Q 589.421 262.559 586.529 262.559 L 586.529 262.559 L 586.529 262.559 Q 584.24 262.559 582.493 263.704 L 582.493 263.704 L 582.493 263.704 Q 580.746 264.849 578.517 267.078 L 578.517 267.078 L 578.517 288.284 Z  M 611.471 288.284 L 606.531 288.284 L 606.531 259.005 L 611.471 259.005 L 611.471 288.284 Z  M 609.061 252.98 L 609.061 252.98 L 609.061 252.98 Q 607.615 252.98 606.621 252.077 L 606.621 252.077 L 606.621 252.077 Q 605.627 251.173 605.627 249.787 L 605.627 249.787 L 605.627 249.787 Q 605.627 248.341 606.621 247.468 L 606.621 247.468 L 606.621 247.468 Q 607.615 246.594 609.061 246.594 L 609.061 246.594 L 609.061 246.594 Q 610.507 246.594 611.501 247.468 L 611.501 247.468 L 611.501 247.468 Q 612.495 248.341 612.495 249.787 L 612.495 249.787 L 612.495 249.787 Q 612.495 251.173 611.501 252.077 L 611.501 252.077 L 611.501 252.077 Q 610.507 252.98 609.061 252.98 Z  M 631.352 289.007 L 631.352 289.007 L 631.352 289.007 Q 625.809 289.007 622.526 285.031 L 622.526 285.031 L 622.526 285.031 Q 619.242 281.055 619.242 273.705 L 619.242 273.705 L 619.242 273.705 Q 619.242 270.15 620.297 267.289 L 620.297 267.289 L 620.297 267.289 Q 621.351 264.427 623.098 262.439 L 623.098 262.439 L 623.098 262.439 Q 624.845 260.451 627.135 259.366 L 627.135 259.366 L 627.135 259.366 Q 629.424 258.282 631.954 258.282 L 631.954 258.282 L 631.954 258.282 Q 634.485 258.282 636.352 259.186 L 636.352 259.186 L 636.352 259.186 Q 638.22 260.089 640.148 261.656 L 640.148 261.656 L 639.906 256.655 L 639.906 245.389 L 644.907 245.389 L 644.907 288.284 L 640.81 288.284 L 640.389 284.85 L 640.208 284.85 L 640.208 284.85 Q 638.461 286.537 636.201 287.772 L 636.201 287.772 L 636.201 287.772 Q 633.942 289.007 631.352 289.007 Z  M 632.436 284.85 L 632.436 284.85 L 632.436 284.85 Q 634.485 284.85 636.292 283.856 L 636.292 283.856 L 636.292 283.856 Q 638.099 282.862 639.906 280.814 L 639.906 280.814 L 639.906 265.511 L 639.906 265.511 Q 638.039 263.824 636.322 263.132 L 636.322 263.132 L 636.322 263.132 Q 634.605 262.439 632.798 262.439 L 632.798 262.439 L 632.798 262.439 Q 631.051 262.439 629.514 263.252 L 629.514 263.252 L 629.514 263.252 Q 627.978 264.065 626.833 265.541 L 626.833 265.541 L 626.833 265.541 Q 625.689 267.017 625.026 269.066 L 625.026 269.066 L 625.026 269.066 Q 624.363 271.114 624.363 273.644 L 624.363 273.644 L 624.363 273.644 Q 624.363 278.946 626.472 281.898 L 626.472 281.898 L 626.472 281.898 Q 628.58 284.85 632.436 284.85 Z  M 661.535 289.007 L 661.535 289.007 L 661.535 289.007 Q 657.86 289.007 655.42 286.838 L 655.42 286.838 L 655.42 286.838 Q 652.98 284.669 652.98 280.693 L 652.98 280.693 L 652.98 280.693 Q 652.98 275.873 657.257 273.313 L 657.257 273.313 L 657.257 273.313 Q 661.535 270.753 670.933 269.728 L 670.933 269.728 L 670.933 269.728 Q 670.933 268.343 670.662 267.017 L 670.662 267.017 L 670.662 267.017 Q 670.391 265.692 669.728 264.668 L 669.728 264.668 L 669.728 264.668 Q 669.065 263.644 667.89 263.011 L 667.89 263.011 L 667.89 263.011 Q 666.716 262.379 664.908 262.379 L 664.908 262.379 L 664.908 262.379 Q 662.378 262.379 660.149 263.342 L 660.149 263.342 L 660.149 263.342 Q 657.92 264.306 656.173 265.511 L 656.173 265.511 L 654.245 262.077 L 654.245 262.077 Q 656.293 260.752 659.245 259.517 L 659.245 259.517 L 659.245 259.517 Q 662.197 258.282 665.752 258.282 L 665.752 258.282 L 665.752 258.282 Q 671.113 258.282 673.523 261.565 L 673.523 261.565 L 673.523 261.565 Q 675.933 264.849 675.933 270.331 L 675.933 270.331 L 675.933 288.284 L 671.836 288.284 L 671.415 284.79 L 671.234 284.79 L 671.234 284.79 Q 669.125 286.537 666.716 287.772 L 666.716 287.772 L 666.716 287.772 Q 664.306 289.007 661.535 289.007 Z  M 662.98 285.031 L 662.98 285.031 L 662.98 285.031 Q 665.089 285.031 666.957 284.037 L 666.957 284.037 L 666.957 284.037 Q 668.824 283.043 670.933 281.115 L 670.933 281.115 L 670.933 272.982 L 670.933 272.982 Q 667.258 273.464 664.758 274.126 L 664.758 274.126 L 664.758 274.126 Q 662.258 274.789 660.721 275.693 L 660.721 275.693 L 660.721 275.693 Q 659.185 276.596 658.492 277.771 L 658.492 277.771 L 658.492 277.771 Q 657.799 278.946 657.799 280.332 L 657.799 280.332 L 657.799 280.332 Q 657.799 282.862 659.305 283.946 L 659.305 283.946 L 659.305 283.946 Q 660.812 285.031 662.98 285.031 Z  M 695.151 289.007 L 695.151 289.007 L 695.151 289.007 Q 689.609 289.007 686.325 285.031 L 686.325 285.031 L 686.325 285.031 Q 683.042 281.055 683.042 273.705 L 683.042 273.705 L 683.042 273.705 Q 683.042 270.15 684.096 267.289 L 684.096 267.289 L 684.096 267.289 Q 685.151 264.427 686.898 262.439 L 686.898 262.439 L 686.898 262.439 Q 688.645 260.451 690.934 259.366 L 690.934 259.366 L 690.934 259.366 Q 693.223 258.282 695.754 258.282 L 695.754 258.282 L 695.754 258.282 Q 698.284 258.282 700.152 259.186 L 700.152 259.186 L 700.152 259.186 Q 702.019 260.089 703.947 261.656 L 703.947 261.656 L 703.706 256.655 L 703.706 245.389 L 708.706 245.389 L 708.706 288.284 L 704.61 288.284 L 704.188 284.85 L 704.007 284.85 L 704.007 284.85 Q 702.26 286.537 700.001 287.772 L 700.001 287.772 L 700.001 287.772 Q 697.742 289.007 695.151 289.007 Z  M 696.236 284.85 L 696.236 284.85 L 696.236 284.85 Q 698.284 284.85 700.091 283.856 L 700.091 283.856 L 700.091 283.856 Q 701.899 282.862 703.706 280.814 L 703.706 280.814 L 703.706 265.511 L 703.706 265.511 Q 701.839 263.824 700.122 263.132 L 700.122 263.132 L 700.122 263.132 Q 698.405 262.439 696.597 262.439 L 696.597 262.439 L 696.597 262.439 Q 694.85 262.439 693.314 263.252 L 693.314 263.252 L 693.314 263.252 Q 691.778 264.065 690.633 265.541 L 690.633 265.541 L 690.633 265.541 Q 689.488 267.017 688.826 269.066 L 688.826 269.066 L 688.826 269.066 Q 688.163 271.114 688.163 273.644 L 688.163 273.644 L 688.163 273.644 Q 688.163 278.946 690.271 281.898 L 690.271 281.898 L 690.271 281.898 Q 692.38 284.85 696.236 284.85 Z " fill-rule="evenodd" fill="rgb(0,0,0)"/></g></g></svg>